<?xml version="1.0" encoding="utf-8"?>
<!-- Generator: Adobe Illustrator 23.0.1, SVG Export Plug-In . SVG Version: 6.00 Build 0)  -->
<svg version="1.1" id="Layer_1" xmlns="http://www.w3.org/2000/svg" xmlns:xlink="http://www.w3.org/1999/xlink" x="0px" y="0px"
	 viewBox="0 0 216.2 215.8" style="enable-background:new 0 0 216.2 215.8;" xml:space="preserve">
<style type="text/css">
	.st0{fill:#FFFFFF;}
</style>
<g>
	<g id="Layer_1-2">
		<path class="st0" d="M6,135.6l11.9-3.4l0.6,2.3l-11.9,3.4l1.9,6.7l-2.1,0.6L2,129.5l2.1-0.6L6,135.6z"/>
		<path class="st0" d="M14.5,104.5l-6.4,0.2l0.3,11.6l6.4-0.2l0.1,2.4l-14.5,0.4l-0.1-2.4l5.9-0.2l-0.3-11.6l-5.9,0.2L0,102.5
			l14.5-0.4L14.5,104.5z"/>
		<path class="st0" d="M15.6,92.8L1.5,89.4L5,75.2l2.1,0.5L4.2,87.6l3.6,0.9l2-8.2l2.1,0.5l-2,8.3l4.1,1l3-12.4l2.1,0.5L15.6,92.8z"
			/>
		<path class="st0" d="M79.2,19l-2.8-2.4l-9,3.6l-0.3,3.6l-2.4,1l1.7-16.3l2.8-1.1l12.5,10.6L79.2,19z M68.5,10l-0.8,7.9l6.8-2.8
			L68.5,10z"/>
		<path class="st0" d="M102.2,14.7l-4.6-5l-7.3,0.9l0.7,5.5l-2.4,0.3L86.8,2.1l11.3-1.4c1.3-0.2,2.6,0,3.7,0.8
			c1,0.8,1.6,1.9,1.7,3.2c0.1,0.6,0.1,1.2-0.1,1.7c-0.1,0.5-0.3,1-0.6,1.4c-0.3,0.4-0.7,0.7-1.1,1c-0.4,0.3-0.9,0.5-1.4,0.6l4.6,5.1
			L102.2,14.7z M98.6,7.4c0.7,0,1.5-0.3,2-0.8c0.4-0.5,0.6-1.1,0.5-1.7c-0.2-1.6-1.3-2.3-3.3-2l-8.4,1.1L90,8.5L98.6,7.4z"/>
		<path class="st0" d="M120.9,3.2l-1.4,12.2l-2.4-0.3l1.4-12.3l-6.9-0.8l0.2-2.1L128,1.8L127.8,4L120.9,3.2z"/>
		<path class="st0" d="M150.3,19.3c-0.2,0.7-0.7,1.3-1.3,1.7c-0.6,0.5-1.3,0.8-2.1,0.9c-0.9,0.2-1.9,0.2-2.8,0.1
			c-1.1-0.1-2.3-0.4-3.3-0.9c-1.1-0.4-2.1-0.9-3.1-1.6c-0.8-0.5-1.4-1.2-2-1.9c-0.5-0.6-0.8-1.3-1-2.1c-0.1-0.7-0.1-1.4,0.2-2.1
			l3.5-9.2l2.3,0.8l-3.3,8.6c-0.4,1-0.2,2.1,0.4,3c1,1.1,2.3,1.9,3.8,2.4c1.4,0.6,2.9,0.8,4.4,0.7c1.1-0.2,1.9-0.9,2.3-1.9l3.3-8.6
			l2.3,0.9L150.3,19.3z"/>
		<path class="st0" d="M209.2,77.6l-3.6,1l2.1,8.2l-2.1,0.5l-2.1-8.2l-6.2,1.6l-0.6-2.3l14-3.7l3.7,14.1l-2.1,0.6L209.2,77.6z"/>
		<path class="st0" d="M208.7,116.3c-2.3,0.1-4.5-1-5.8-2.8c-0.6-0.8-1.1-1.8-1.4-2.8c-0.4-1.1-0.6-2.3-0.6-3.5
			c0-1.2,0.1-2.4,0.5-3.6c0.3-1,0.8-2,1.4-2.9c2.3-3.2,6.7-3.9,9.8-1.7c0.6,0.4,1.2,1,1.6,1.6c0.6,0.9,1.1,1.8,1.5,2.8
			c0.4,1.1,0.6,2.3,0.6,3.5c0,1.2-0.1,2.4-0.5,3.5c-0.3,1-0.8,2-1.4,2.9C213.1,115.2,210.9,116.3,208.7,116.3z M208.7,113.8
			c1.7,0,3.2-0.8,4.1-2.2c0.4-0.6,0.8-1.3,1-2.1c0.5-1.8,0.4-3.6-0.1-5.3c-0.3-0.8-0.6-1.5-1.2-2.1c-0.5-0.6-1.1-1-1.8-1.4
			c-0.7-0.3-1.4-0.5-2.2-0.5c-0.8,0-1.5,0.2-2.2,0.5c-0.7,0.3-1.3,0.8-1.7,1.4c-0.5,0.6-0.9,1.4-1.1,2.2c-0.3,0.9-0.4,1.9-0.4,2.8
			c0,1,0.2,1.9,0.4,2.8c0.2,0.8,0.6,1.5,1.1,2.1c0.5,0.6,1.1,1,1.8,1.3C207.2,113.6,207.9,113.8,208.7,113.8L208.7,113.8z"/>
		<path class="st0" d="M200.3,141.9c-0.7-0.2-1.3-0.6-1.8-1.1c-0.5-0.6-0.9-1.3-1.1-2c-0.3-0.9-0.4-1.9-0.4-2.8
			c0-1.1,0.2-2.3,0.5-3.4c0.3-1.1,0.7-2.2,1.3-3.2c0.5-0.8,1-1.6,1.7-2.2c0.6-0.5,1.3-0.9,2-1.1c0.7-0.2,1.4-0.2,2.1,0l9.4,2.6
			l-0.6,2.3l-8.9-2.4c-1-0.3-2.1,0-2.9,0.7c-1,1.1-1.7,2.5-2,4c-0.5,1.4-0.6,2.9-0.3,4.4c0.3,1,1.1,1.9,2.1,2.1l8.9,2.4l-0.6,2.3
			L200.3,141.9z"/>
		<path class="st0" d="M185.2,160.7l15.9-3.4l-10.2-6.1l1.2-2.1l12.4,7.5l-1.6,2.5l-15.9,3.4l10.2,6.1l-1.2,2.1l-12.4-7.5
			L185.2,160.7z"/>
		<path class="st0" d="M181,187.4c-0.8,0.8-1.8,1.5-2.9,2c-0.9,0.4-1.9,0.7-2.9,0.7c-1,0-1.9-0.2-2.8-0.6c-0.9-0.4-1.8-1.1-2.5-1.8
			c-1.4-1.4-2-3.4-1.8-5.4c0.1-0.9,0.4-1.9,0.8-2.7c0.5-0.9,1.1-1.7,1.8-2.4l7-6.6l9.9,10.6L181,187.4z M172.1,178.9
			c-0.5,0.5-0.9,1-1.2,1.6c-0.3,0.6-0.4,1.2-0.4,1.8c0,0.6,0.1,1.3,0.3,1.9c0.3,0.6,0.6,1.2,1.1,1.7c0.5,0.5,1.1,1,1.7,1.3
			c0.6,0.3,1.3,0.4,1.9,0.4c0.7,0,1.4-0.1,2-0.4c0.7-0.3,1.3-0.7,1.9-1.2l5.1-4.8l-6.9-7.4L172.1,178.9z"/>
		<path class="st0" d="M146.7,193.2l3,2l8.6-4.6l-0.1-3.6l2.3-1.3l0.1,16.4l-2.6,1.5l-13.6-9.1L146.7,193.2z M158.3,201l-0.1-7.9
			l-6.5,3.5L158.3,201z"/>
		<path class="st0" d="M136,209.9l-3.4-11.8l2.3-0.7l3.4,11.8l6.6-1.9l0.6,2.1l-15.6,4.5l-0.6-2.1L136,209.9z"/>
		<path class="st0" d="M118.6,200.8l1.5,14.4l-2.4,0.3l-1.5-14.4L118.6,200.8z"/>
		<path class="st0" d="M88.4,207.2c0.2-2.3,1.5-4.3,3.5-5.4c0.9-0.5,1.9-0.9,3-1.1c1.2-0.2,2.4-0.3,3.6-0.1c1.2,0.1,2.4,0.4,3.5,0.9
			c1,0.4,1.9,1,2.7,1.7c2.9,2.6,3.2,7,0.6,10c-0.5,0.6-1.1,1.1-1.8,1.4c-0.9,0.6-1.9,0.9-3,1.1c-2.4,0.5-4.8,0.2-7-0.7
			c-1-0.4-1.9-1-2.7-1.7C89.1,211.7,88.2,209.4,88.4,207.2z M90.9,207.4c-0.2,1.6,0.5,3.3,1.7,4.3c0.6,0.5,1.3,0.9,2,1.2
			c1.7,0.7,3.5,0.8,5.3,0.5c0.8-0.2,1.6-0.5,2.3-0.9c0.6-0.4,1.2-0.9,1.6-1.6c0.4-0.6,0.6-1.4,0.7-2.1c0.1-0.8,0-1.5-0.3-2.3
			c-0.3-0.7-0.7-1.3-1.3-1.9c-0.6-0.6-1.3-1-2-1.3c-1.8-0.7-3.7-0.9-5.6-0.6c-0.8,0.2-1.6,0.5-2.2,0.9c-0.6,0.4-1.1,0.9-1.5,1.6
			C91.2,205.9,91,206.7,90.9,207.4z"/>
		<path class="st0" d="M68.4,192.7l5.8,15.2l4.4-11l2.2,0.9l-5.4,13.4l-2.8-1.1l-5.8-15.1l-4.4,11l-2.2-0.9l5.4-13.4L68.4,192.7z"/>
	</g>
</g>
</svg>
