<?xml version="1.0" standalone="no"?>
<!DOCTYPE svg PUBLIC "-//W3C//DTD SVG 1.1//EN" "http://www.w3.org/Graphics/SVG/1.1/DTD/svg11.dtd" >
<svg xmlns="http://www.w3.org/2000/svg" xmlns:xlink="http://www.w3.org/1999/xlink" version="1.1">
<metadata>
Created by FontForge 20190801 at Thu Jul  6 07:03:25 2017
 By www-data
(c)2017 OMSE LTD
</metadata>
<defs>
<font id="ModernEraMonoRegular" horiz-adv-x="600" >
  <font-face 
    font-family="ModernEraMonoRegular"
    font-weight="400"
    font-stretch="normal"
    units-per-em="1000"
    panose-1="2 0 0 0 0 0 0 0 0 0"
    ascent="785"
    descent="-215"
    x-height="490"
    cap-height="700"
    bbox="-658 -224 653 927"
    underline-thickness="68"
    underline-position="-84"
    unicode-range="U+000D-FB02"
  />
<missing-glyph 
d="M425.5 83.5q57.5 33.5 91 91t33.5 125.5t-33.5 125.5t-91 91t-125.5 33.5q-67 0 -124.5 -33.5t-91.5 -91t-34 -125.5t34 -125.5t91.5 -91t124.5 -33.5q68 0 125.5 33.5zM403 477.5q47 -27.5 75 -74.5t28 -103t-28 -103t-75 -74.5t-103 -27.5t-103 27.5t-74.5 74.5
t-27.5 103t27.5 103t74.5 74.5t103 27.5t103 -27.5zM252.5 371.5q-12.5 12.5 -29.5 12.5t-30 -12.5t-13 -29.5t13 -29.5t30 -12.5t29.5 12.5t12.5 29.5t-12.5 29.5zM407 371.5q-13 12.5 -30 12.5t-29.5 -12.5t-12.5 -29.5t12.5 -29.5t29.5 -12.5t30 12.5t13 29.5t-13 29.5z
" />
    <glyph glyph-name=".notdef" 
d="M425.5 83.5q57.5 33.5 91 91t33.5 125.5t-33.5 125.5t-91 91t-125.5 33.5q-67 0 -124.5 -33.5t-91.5 -91t-34 -125.5t34 -125.5t91.5 -91t124.5 -33.5q68 0 125.5 33.5zM403 477.5q47 -27.5 75 -74.5t28 -103t-28 -103t-75 -74.5t-103 -27.5t-103 27.5t-74.5 74.5
t-27.5 103t27.5 103t74.5 74.5t103 27.5t103 -27.5zM252.5 371.5q-12.5 12.5 -29.5 12.5t-30 -12.5t-13 -29.5t13 -29.5t30 -12.5t29.5 12.5t12.5 29.5t-12.5 29.5zM407 371.5q-13 12.5 -30 12.5t-29.5 -12.5t-12.5 -29.5t12.5 -29.5t29.5 -12.5t30 12.5t13 29.5t-13 29.5z
" />
    <glyph glyph-name=".null" horiz-adv-x="0" 
 />
    <glyph glyph-name="nonmarkingreturn" unicode="&#xd;" 
 />
    <glyph glyph-name="space" unicode=" " 
 />
    <glyph glyph-name="exclam" unicode="!" 
d="M340 700v-525h-78v525h78zM259 93q17 17 41 17q25 0 42 -17.5t17 -41.5t-17.5 -41t-41.5 -17t-41 17.5t-17 41.5t17 41z" />
    <glyph glyph-name="quotedbl" unicode="&#x22;" 
d="M408 732v-204h-76v204h76zM268 732v-204h-76v204h76z" />
    <glyph glyph-name="numbersign" unicode="#" 
d="M454 446l-27 -192h105v-66h-113l-26 -188h-72l26 188h-137l-26 -188h-70l26 188h-105v66h113l27 192h-108v66h116l26 188h70l-26 -188h139l26 188h70l-26 -188h103v-66h-111zM383 446h-138l-27 -192h138z" />
    <glyph glyph-name="dollar" unicode="$" 
d="M486 53.5q-55 -53.5 -141 -64.5v-66h-76v66q-160 18 -209 188l72 22q32 -122 137 -139v268q-92 24 -139.5 68t-47.5 122q0 80 52.5 132t134.5 63v64h76v-65q138 -18 183 -179l-71 -20q-13 53 -39.5 86t-72.5 42v-252q102 -25 149 -71.5t47 -129.5q0 -81 -55 -134.5z
M185 449q27 -25 84 -42v235q-51 -9 -81 -41.5t-30 -82.5q0 -44 27 -69zM432 101.5q33 32.5 33 86.5q0 27 -7.5 47.5t-34 40.5t-78.5 34v-250q54 9 87 41.5z" />
    <glyph glyph-name="percent" unicode="%" 
d="M112.5 435.5q-33.5 19.5 -53 53t-19.5 73.5q0 39 19.5 72.5t53 53t72.5 19.5t72.5 -19.5t53 -53t19.5 -72.5q0 -40 -19.5 -73.5t-53 -53t-72.5 -19.5t-72.5 19.5zM245.5 500.5q25.5 25.5 25.5 61.5q0 35 -25.5 60.5t-60.5 25.5t-60.5 -25.5t-25.5 -60.5q0 -36 25.5 -61.5
t60.5 -25.5t60.5 25.5zM541 592l40 -47l-521 -437l-40 49zM339.5 12.5q-33.5 19.5 -53 53t-19.5 73.5q0 39 19.5 72.5t53 53t72.5 19.5t72.5 -19.5t53 -53t19.5 -72.5q0 -40 -19.5 -73.5t-53 -53t-72.5 -19.5t-72.5 19.5zM472.5 77.5q25.5 25.5 25.5 61.5q0 35 -25.5 60.5
t-60.5 25.5t-60.5 -25.5t-25.5 -60.5q0 -36 25.5 -61.5t60.5 -25.5t60.5 25.5z" />
    <glyph glyph-name="ampersand" unicode="&#x26;" 
d="M80 308.5q30 47.5 82 74.5q-34 24 -53 60.5t-19 80.5q0 55 26.5 98t73.5 67t105 24q78 0 129.5 -39t63.5 -104l-71 -18q-8 44 -41.5 68.5t-80.5 24.5q-56 0 -92.5 -32t-36.5 -86t36.5 -85t92.5 -31l126 -1v74h74v-74h56v-66h-56v-144q0 -63 -28 -112t-77.5 -76
t-110.5 -27q-66 0 -118.5 27t-81.5 75.5t-29 112.5q0 61 30 108.5zM149 123q21 -33 55.5 -50.5t74.5 -17.5q61 0 101.5 39.5t40.5 105.5v144l-133 1q-43 0 -79.5 -17.5t-58.5 -50.5t-22 -77t21 -77z" />
    <glyph glyph-name="quotesingle" unicode="'" 
d="M338 732v-204h-76v204h76z" />
    <glyph glyph-name="parenleft" unicode="(" 
d="M334 -171q-130 205 -130 471q0 267 130 469l62 -41q-46 -67 -81 -180t-35 -251q0 -135 34.5 -245.5t80.5 -180.5z" />
    <glyph glyph-name="parenright" unicode=")" 
d="M285.5 51.5q34.5 110.5 34.5 245.5q0 138 -35 251t-81 180l62 41q130 -202 130 -469q0 -266 -130 -471l-61 42q46 70 80.5 180.5z" />
    <glyph glyph-name="asterisk" unicode="*" 
d="M349 543l78 -107l-50 -36l-78 106l-77 -106l-50 36l78 107l-124 41l18 58l125 -41v131h61v-129l124 38l20 -57z" />
    <glyph glyph-name="plus" unicode="+" 
d="M263 265h-213v70h213v215h74v-215h213v-70h-213v-215h-74v215z" />
    <glyph glyph-name="comma" unicode="," 
d="M275 -47q11 26 11 43q-19 6 -31.5 20.5t-12.5 35.5q0 26 17 42t41 16q25 0 41.5 -17.5t16.5 -50.5q0 -34 -20 -81.5t-55 -81.5l-36 27q17 21 28 47z" />
    <glyph glyph-name="hyphen" unicode="-" 
d="M175 335h250v-70h-250v70z" />
    <glyph glyph-name="period" unicode="." 
d="M258.5 93q16.5 17 41.5 17t42 -17t17 -42q0 -24 -17 -41t-42 -17t-41.5 17t-16.5 41q0 25 16.5 42z" />
    <glyph glyph-name="slash" unicode="/" 
d="M128 0l266 700h79l-266 -700h-79z" />
    <glyph glyph-name="zero" unicode="0" 
d="M441.5 666q56.5 -48 84 -129.5t27.5 -183.5q0 -162 -62.5 -264.5t-189.5 -102.5t-191 102.5t-64 264.5q0 102 27.5 183.5t84.5 129.5t143 48q84 0 140.5 -48zM167.5 559.5q-44.5 -83.5 -44.5 -209.5q0 -79 18 -145l273 381q-44 57 -113 57q-89 0 -133.5 -83.5zM432 139
q43 82 43 211q0 91 -22 160l-276 -385q45 -68 124 -68q88 0 131 82z" />
    <glyph glyph-name="one" unicode="1" 
d="M523 71v-71h-446v71h186v544q-27 -17 -68 -31.5t-74 -20.5v75q33 7 72 24t70 38h78v-629h182z" />
    <glyph glyph-name="two" unicode="2" 
d="M163.5 567q22.5 37 59 56.5t79.5 19.5q67 0 109 -40.5t42 -102.5q0 -57 -29 -103.5t-106 -114.5l-236 -210v-72h450v71h-343l180 160q61 54 94.5 93.5t50.5 81t17 94.5q0 61 -29.5 109.5t-81.5 76.5t-118 28q-61 0 -113.5 -26t-85 -74.5t-34.5 -111.5l72 -21
q0 49 22.5 86z" />
    <glyph glyph-name="three" unicode="3" 
d="M422.5 16q56.5 30 88 83t31.5 117q0 65 -27.5 115.5t-78.5 79t-119 30.5l179 188v71h-418v-71h324l-203 -213l40 -49q33 9 57 9q77 0 122.5 -45.5t45.5 -114.5q0 -45 -21.5 -81t-59.5 -57t-87 -21q-46 0 -83.5 20.5t-60 55t-24.5 76.5l-71 -21q3 -55 34.5 -101t85 -73.5
t119.5 -27.5q70 0 126.5 30z" />
    <glyph glyph-name="four" unicode="4" 
d="M448 189h100v68h-100v443h-81l-316 -449v-62h319v-189h78v189zM370 589v-333h-236z" />
    <glyph glyph-name="five" unicode="5" 
d="M93.5 83q32.5 -44 86 -70.5t119.5 -26.5q68 0 124 30t88.5 83.5t32.5 121.5q0 67 -30.5 120t-86 82.5t-126.5 29.5q-32 0 -62.5 -8t-53.5 -20l18 204h290v71h-358l-28 -335l69 -25q24 20 57 32t65 12q49 0 87 -21t59.5 -58.5t21.5 -83.5q0 -72 -46.5 -118t-120.5 -46
q-67 0 -114.5 39t-54.5 102l-74 -22q5 -49 37.5 -93z" />
    <glyph glyph-name="six" unicode="6" 
d="M404.5 609.5q-34.5 33.5 -94.5 33.5q-94 0 -131 -69t-42 -201q23 31 68.5 55t100.5 24q67 0 121.5 -29t85.5 -81.5t31 -121.5t-31 -122t-86 -82.5t-125 -29.5q-120 0 -183.5 82.5t-63.5 237.5q0 197 58.5 302.5t196.5 105.5q86 0 138.5 -46t75.5 -123l-70 -22
q-15 53 -49.5 86.5zM420.5 102q45.5 45 45.5 118t-45 117.5t-119 44.5q-46 0 -82.5 -20.5t-57.5 -57.5t-21 -84q0 -45 20 -82t57 -59t84 -22q73 0 118.5 45z" />
    <glyph glyph-name="seven" unicode="7" 
d="M74 700h451v-71q-74 -114 -151 -298.5t-106 -330.5h-78q29 145 103 329t145 300h-364v71z" />
    <glyph glyph-name="eight" unicode="8" 
d="M508.5 306q28.5 -47 28.5 -106q0 -63 -30 -112t-84 -76t-123 -27q-70 0 -124 27t-84 76t-30 112q0 59 28.5 106t79.5 74q-37 24 -57 61.5t-20 82.5q0 55 26.5 98t74 67t106.5 24t106.5 -24t74 -67t26.5 -98q0 -45 -20 -82.5t-57 -61.5q50 -27 78.5 -74zM207 442
q37 -31 93 -31t93 31t37 85t-37 86t-93 32t-93 -32t-37 -86t37 -85zM413.5 94.5q45.5 39.5 45.5 105.5q0 67 -45.5 106t-113.5 39q-43 0 -79.5 -17.5t-58.5 -50.5t-22 -77t22 -77t58.5 -50.5t79.5 -17.5q68 0 113.5 39.5z" />
    <glyph glyph-name="nine" unicode="9" 
d="M205.5 90.5q34.5 -33.5 94.5 -33.5q94 0 131 69t42 201q-23 -31 -68.5 -55t-100.5 -24q-67 0 -121.5 29t-85.5 81.5t-31 121.5t31 122t86 82.5t125 29.5q120 0 183.5 -82.5t63.5 -237.5q0 -197 -58.5 -302.5t-196.5 -105.5q-86 0 -138.5 46t-75.5 123l70 22
q15 -53 49.5 -86.5zM189.5 598q-45.5 -45 -45.5 -118t45 -117.5t119 -44.5q46 0 82.5 20.5t57.5 57.5t21 84q0 45 -20 82t-57 59t-84 22q-73 0 -118.5 -45z" />
    <glyph glyph-name="colon" unicode=":" 
d="M258.5 397q16.5 17 41.5 17t42 -17t17 -41q0 -25 -17 -42t-42 -17t-41.5 17t-16.5 42q0 24 16.5 41zM258.5 93q16.5 17 41.5 17t42 -17t17 -42q0 -24 -17 -41t-42 -17t-41.5 17t-16.5 41q0 25 16.5 42z" />
    <glyph glyph-name="semicolon" unicode=";" 
d="M257.5 397.5q16.5 16.5 41.5 16.5t42 -16.5t17 -41.5t-17 -42t-42 -17t-41.5 17t-16.5 42t16.5 41.5zM275 -49q11 26 11 43q-19 6 -31.5 20.5t-12.5 35.5q0 26 17 42t41 16q25 0 41.5 -17.5t16.5 -50.5q0 -34 -20 -81.5t-55 -81.5l-36 27q17 21 28 47z" />
    <glyph glyph-name="less" unicode="&#x3c;" 
d="M550 470l-407 -169l407 -171v-77l-500 209v78l500 208v-78z" />
    <glyph glyph-name="equal" unicode="=" 
d="M50 444h500v-70h-500v70zM50 225h500v-70h-500v70z" />
    <glyph glyph-name="greater" unicode="&#x3e;" 
d="M550 340v-78l-500 -209v77l407 171l-407 169v78z" />
    <glyph glyph-name="question" unicode="?" 
d="M413 686.5q51 -27.5 79.5 -75t28.5 -106.5q0 -82 -47 -143.5t-133 -80.5v-108h-78v166h8q81 0 127 46t46 120q0 59 -41 98.5t-104 39.5q-68 0 -108.5 -39.5t-41.5 -105.5l-70 19q3 57 32 102t77.5 70t108.5 25q65 0 116 -27.5zM344 93q17 -17 17 -41q0 -25 -17 -42
t-42 -17q-24 0 -41 17t-17 42q0 24 17 41t41 17q25 0 42 -17z" />
    <glyph glyph-name="at" unicode="@" 
d="M525 700v-502h-59l-8 22q-38 -26 -88 -26q-70 0 -113.5 44t-43.5 113t43 111t114 42q49 0 86 -23v154h-312v-570h381v-65h-450v700h450zM432 284.5q23 25.5 24 62.5v4q-1 39 -23 63.5t-63 24.5q-44 0 -66 -24t-22 -64q0 -41 22 -66.5t66 -25.5q39 0 62 25.5z" />
    <glyph glyph-name="A" unicode="A" 
d="M420 196h-242l-59 -196h-79l218 700h80l222 -700h-80zM399 266l-101 331l-99 -331h200z" />
    <glyph glyph-name="B" unicode="B" 
d="M63 700h248q98 0 148.5 -51.5t50.5 -132.5q0 -52 -23 -90.5t-62 -60.5v-2q44 -16 78 -55.5t34 -109.5q0 -56 -25.5 -101t-73.5 -71t-114 -26h-261v700zM309 390q60 0 92 34t32 91q0 53 -33.5 84.5t-90.5 31.5h-168v-241h168zM325 69q64 0 99 37t35 92q0 56 -36.5 90.5
t-111.5 34.5h-170v-254h184z" />
    <glyph glyph-name="C" unicode="C" 
d="M420.5 600q-39.5 43 -103.5 43q-90 0 -139.5 -77.5t-49.5 -215.5q0 -141 49.5 -217t141.5 -76q65 0 102.5 41t56.5 116l69 -24q-26 -97 -82 -150.5t-146 -53.5q-82 0 -143 43.5t-93.5 125.5t-32.5 195q0 110 33.5 192.5t94 127t139.5 44.5q90 0 148.5 -57t84.5 -160
l-70 -25q-20 85 -59.5 128z" />
    <glyph glyph-name="D" unicode="D" 
d="M80 700h174q153 0 216 -100t63 -246q0 -95 -26.5 -175t-86 -129.5t-153.5 -49.5h-187v700zM261 70q104 0 149 81.5t45 203.5t-44.5 198.5t-158.5 76.5h-94v-560h103z" />
    <glyph glyph-name="E" unicode="E" 
d="M88 700h424v-70h-346v-242h305v-69h-305v-249h346v-70h-424v700z" />
    <glyph glyph-name="F" unicode="F" 
d="M88 700h424v-70h-346v-259h306v-69h-306v-302h-78v700z" />
    <glyph glyph-name="G" unicode="G" 
d="M489 0l-12 67q-15 -31 -60 -56t-111 -25q-80 0 -138 45.5t-88 128t-30 190.5q0 163 64.5 263.5t191.5 100.5q88 0 146.5 -51.5t82.5 -139.5l-72 -26q-15 66 -53.5 106t-101.5 40q-87 0 -133.5 -82.5t-46.5 -210.5q0 -137 42.5 -215t135.5 -78q89 0 127.5 69.5t40.5 176.5
h-166v68h242v-371h-61z" />
    <glyph glyph-name="H" unicode="H" 
d="M75 700h78v-306h294v306h78v-700h-78v323h-294v-323h-78v700z" />
    <glyph glyph-name="I" unicode="I" 
d="M339 630v-560h186v-70h-450v70h186v560h-186v70h450v-70h-186z" />
    <glyph glyph-name="J" unicode="J" 
d="M497 194q0 -100 -52.5 -154t-143.5 -54q-88 0 -141 50.5t-54 134.5v26l77 -13v-10q0 -53 31 -85t86 -32q57 0 88 35t31 99v439h-277v70h355v-506z" />
    <glyph glyph-name="K" unicode="K" 
d="M217 353l-72 -78v-275h-78v700h78v-320l294 320h96l-266 -290l276 -410h-92z" />
    <glyph glyph-name="L" unicode="L" 
d="M90 700h78v-629h342v-71h-420v700z" />
    <glyph glyph-name="M" unicode="M" 
d="M548 0h-76v586l-131 -303h-82l-132 306v-589h-76v700h107l143 -325l141 325h106v-700z" />
    <glyph glyph-name="N" unicode="N" 
d="M75 700h77l297 -553v553h76v-700h-76l-298 553v-553h-76v700z" />
    <glyph glyph-name="O" unicode="O" 
d="M122.5 624.5q62.5 90.5 177.5 90.5q116 0 178 -90t62 -274q0 -178 -62.5 -271t-177.5 -93q-114 0 -177 93t-63 271q0 183 62.5 273.5zM420.5 569.5q-41.5 74.5 -120.5 74.5q-162 0 -162 -293q0 -152 41 -222.5t121 -70.5q81 0 121.5 70.5t40.5 222.5q0 144 -41.5 218.5z
" />
    <glyph glyph-name="P" unicode="P" 
d="M85 700h213q104 0 164.5 -55.5t60.5 -155.5q0 -99 -61.5 -155.5t-162.5 -56.5h-136v-277h-78v700zM292 347q71 0 112 34.5t41 107.5t-41 107t-112 34h-129v-283h129z" />
    <glyph glyph-name="Q" unicode="Q" 
d="M493 -29l-60 60q-55 -44 -133 -44q-114 0 -177 93t-63 271q0 183 62.5 273.5t177.5 90.5q116 0 178 -90t62 -274q0 -171 -58 -264l64 -65zM382 83l-60 60l53 51l53 -53q34 73 34 210q0 144 -41.5 218.5t-120.5 74.5q-162 0 -162 -293q0 -152 41 -222.5t121 -70.5
q48 0 82 25z" />
    <glyph glyph-name="R" unicode="R" 
d="M285 297h-133v-297h-78v700h219q106 0 161.5 -55.5t55.5 -145.5q0 -80 -42.5 -130t-101.5 -63l168 -306h-84zM297 366q61 0 98 33t37 100t-38.5 99t-100.5 32h-141v-264h145z" />
    <glyph glyph-name="S" unicode="S" 
d="M59 177l72 22q19 -71 61.5 -106.5t114.5 -35.5q69 0 113 34t44 97q0 29 -10 52t-44 44t-102 35q-112 23 -169.5 68t-57.5 131q0 60 30 104.5t81 68.5t113 24q172 0 222 -182l-71 -20q-15 63 -51 97.5t-100 34.5q-66 0 -107 -34t-41 -93q0 -53 39 -79t127 -45
q113 -25 165 -72t52 -134q0 -60 -31 -105.5t-84 -70.5t-118 -25q-193 0 -248 190z" />
    <glyph glyph-name="T" unicode="T" 
d="M261 629h-201v71h480v-71h-201v-629h-78v629z" />
    <glyph glyph-name="U" unicode="U" 
d="M71 700h78v-464q0 -93 40 -136t110 -43t111 43t41 136v464h78v-469q0 -122 -63 -183.5t-167 -61.5t-166 62.5t-62 183.5v468z" />
    <glyph glyph-name="V" unicode="V" 
d="M567 700l-227 -700h-81l-227 700h80l188 -591l188 591h79z" />
    <glyph glyph-name="W" unicode="W" 
d="M563 700l-70 -700h-99l-93 297l-94 -297h-99l-71 700h75l57 -601l98 318h66l99 -318l56 601h75z" />
    <glyph glyph-name="X" unicode="X" 
d="M483 0l-183 295l-181 -295h-89l222 356l-213 344h88l173 -282l174 282h87l-211 -343l220 -357h-87z" />
    <glyph glyph-name="Y" unicode="Y" 
d="M339 0h-78v284l-236 416h85l190 -340l191 340h84l-236 -416v-284z" />
    <glyph glyph-name="Z" unicode="Z" 
d="M60 69l392 561h-364v70h452v-69l-392 -561h386v-70h-474v69z" />
    <glyph glyph-name="bracketleft" unicode="[" 
d="M371 769v-69h-67v-802h67v-69h-141v940h141z" />
    <glyph glyph-name="backslash" unicode="\" 
d="M127 700h79l266 -700h-79z" />
    <glyph glyph-name="bracketright" unicode="]" 
d="M371 -171h-141v69h67v802h-67v69h141v-940z" />
    <glyph glyph-name="asciicircum" unicode="^" 
d="M466 350l-166 278l-166 -278h-87l210 350h86l210 -350h-87z" />
    <glyph glyph-name="underscore" unicode="_" 
d="M50 -50h500v-68h-500v68z" />
    <glyph glyph-name="grave" unicode="`" 
d="M260 567l-99 118h106l66 -118h-73z" />
    <glyph glyph-name="a" unicode="a" 
d="M169.5 465.5q50.5 38.5 131.5 38.5q94 0 148 -45.5t54 -130.5v-328h-63l-10 52q-47 -66 -159 -66q-56 0 -95.5 20t-59.5 54t-20 74q0 66 46.5 105t147.5 53l137 19v16q0 55 -31.5 84t-94.5 29q-114 0 -128 -101l-69 17q15 71 65.5 109.5zM427 249l-128 -18
q-64 -9 -96.5 -30t-32.5 -63q0 -40 31.5 -63t85.5 -23q59 0 99.5 31.5t40.5 93.5v72z" />
    <glyph glyph-name="b" unicode="b" 
d="M137 700v-281q29 39 72 62t100 23q75 0 127.5 -37t79 -96t26.5 -125q0 -65 -28 -124.5t-81 -97t-124 -37.5q-60 0 -103.5 23.5t-70.5 61.5l-10 -72h-64v700h76zM156.5 147.5q20.5 -43.5 58 -68t86.5 -24.5q48 0 85.5 24.5t58.5 68t21 98.5t-21 98t-58.5 67.5t-85.5 24.5
q-49 0 -86.5 -24.5t-58 -67.5t-20.5 -98t20.5 -98.5z" />
    <glyph glyph-name="c" unicode="c" 
d="M450 28.5q-55 -42.5 -134 -42.5q-77 0 -133 36.5t-85 96t-29 126.5t30 126.5t86 96t131 36.5q81 0 136 -41.5t77 -107.5l-69 -24q-17 49 -54.5 76.5t-89.5 27.5q-50 0 -89 -24.5t-60.5 -68t-21.5 -97.5t21.5 -97.5t60.5 -68t89 -24.5q52 0 90 29t55 79l69 -24
q-25 -68 -80 -110.5z" />
    <glyph glyph-name="d" unicode="d" 
d="M530 0h-64l-10 72q-27 -38 -70.5 -61.5t-103.5 -23.5q-71 0 -124 37.5t-81 97t-28 124.5q0 66 26.5 125t79 96t127.5 37q57 0 100 -23t72 -62v281h76v-700zM434.5 344q-20.5 43 -58 67.5t-86.5 24.5q-48 0 -85.5 -24.5t-58.5 -67.5t-21 -98t21 -98.5t58.5 -68t85.5 -24.5
q49 0 86.5 24.5t58 68t20.5 98.5t-20.5 98z" />
    <glyph glyph-name="e" unicode="e" 
d="M445.5 26q-55.5 -40 -138.5 -40q-73 0 -128.5 34.5t-85.5 94t-30 130.5q0 70 31.5 129.5t87.5 94.5t124 35t120 -30.5t81 -86.5t29 -130v-33h-398q2 -48 24 -87.5t59.5 -62.5t85.5 -23q56 0 95.5 27.5t52.5 67.5l67 -21q-21 -59 -76.5 -99zM465 287q-5 65 -48.5 108.5
t-109.5 43.5q-70 0 -114.5 -43t-53.5 -109h326z" />
    <glyph glyph-name="f" unicode="f" 
d="M290 423v-353h127v-70h-321v70h118v353h-129v67h129v90q0 62 39 98t109 36q65 0 95.5 -35.5t43.5 -71.5l-66 -25q-1 2 -6.5 19.5t-24 31.5t-43.5 14q-71 0 -71 -73v-84h225v-67h-225z" />
    <glyph glyph-name="g" unicode="g" 
d="M166 31q-53 36 -79.5 94t-26.5 123q0 64 27.5 123t80.5 96t124 37q60 0 102.5 -23t68.5 -61l12 70h64v-491q0 -58 -24 -108t-77.5 -81.5t-137.5 -31.5q-90 0 -143.5 42.5t-73.5 114.5l72 17q28 -108 145 -108q82 0 122.5 40.5t40.5 112.5v88q-23 -39 -67 -64.5
t-103 -25.5q-74 0 -127 36zM418 114.5q45 51.5 45 133.5q0 55 -20.5 97.5t-58 66.5t-84.5 24q-74 0 -119 -52t-45 -136q0 -82 46 -133.5t120 -51.5q71 0 116 51.5z" />
    <glyph glyph-name="h" unicode="h" 
d="M427 303q0 73 -30.5 101.5t-84.5 28.5q-37 0 -69 -18.5t-51.5 -54t-19.5 -82.5v-278h-76v700h76v-275q58 79 163 79q76 0 122 -45.5t46 -137.5v-321h-76v303z" />
    <glyph glyph-name="i" unicode="i" 
d="M519 69v-69h-437v69h182v352h-139v69h215v-421h179zM261.5 666.5q16.5 16.5 41.5 16.5q23 0 39.5 -16.5t16.5 -40.5t-16.5 -40.5t-39.5 -16.5q-25 0 -41.5 16.5t-16.5 40.5t16.5 40.5z" />
    <glyph glyph-name="j" unicode="j" 
d="M456 -58q0 -77 -47.5 -121.5t-124.5 -44.5q-116 0 -157 101l65 28q20 -61 92 -61q46 0 71 25t25 74v477h-243v70h319v-548zM378.5 666.5q16.5 16.5 41.5 16.5q23 0 39.5 -16.5t16.5 -40.5t-16.5 -40.5t-39.5 -16.5q-25 0 -41.5 16.5t-16.5 40.5t16.5 40.5z" />
    <glyph glyph-name="k" unicode="k" 
d="M250 242l-78 -79v-163h-76v700h76v-436l227 227h97l-193 -196l217 -295h-90z" />
    <glyph glyph-name="l" unicode="l" 
d="M532 87q-41 -101 -157 -101q-77 0 -124.5 44.5t-47.5 121.5v480h-135v68h211v-547q0 -49 25 -74t71 -25q72 0 92 61z" />
    <glyph glyph-name="m" unicode="m" 
d="M121 490l10 -41q7 19 31 37t60 18q38 0 61.5 -20t31.5 -51q12 30 40 50.5t70 20.5q53 0 84 -33.5t31 -97.5v-373h-76v367q0 66 -55 66q-32 0 -51.5 -25.5t-19.5 -77.5v-330h-75v367q0 33 -15.5 49.5t-42.5 16.5q-30 0 -49.5 -25.5t-19.5 -77.5v-330h-76v490h61z" />
    <glyph glyph-name="n" unicode="n" 
d="M428 303q0 72 -31 101t-85 29q-37 0 -69 -18.5t-51.5 -53.5t-19.5 -82v-279h-76v490h64l11 -66q59 80 164 80q77 0 123 -45.5t46 -137.5v-321h-76v303z" />
    <glyph glyph-name="o" unicode="o" 
d="M520.5 119.5q-30.5 -59.5 -87.5 -96.5t-134 -37t-134 37t-86.5 96.5t-29.5 125.5t30.5 125.5t87.5 96.5t132 37q77 0 134 -37t87.5 -96.5t30.5 -125.5t-30.5 -125.5zM147 148.5q22 -43.5 62 -68.5t90 -25q51 0 91 25t62.5 68.5t22.5 96.5q0 54 -22.5 97t-62.5 68t-91 25
t-90.5 -25t-61.5 -68t-22 -97q0 -53 22 -96.5z" />
    <glyph glyph-name="p" unicode="p" 
d="M70 490h64l10 -72q27 38 70.5 61.5t103.5 23.5q71 0 124 -37.5t81 -97t28 -124.5q0 -66 -26.5 -125t-79 -96t-127.5 -37q-57 0 -100 23t-72 62v-281h-76v700zM165.5 146q20.5 -43 58 -67.5t86.5 -24.5q48 0 85.5 24.5t58.5 67.5t21 98t-21 98.5t-58.5 68t-85.5 24.5
q-49 0 -86.5 -24.5t-58 -68t-20.5 -98.5t20.5 -98z" />
    <glyph glyph-name="q" unicode="q" 
d="M454 -210v281q-29 -39 -72 -62t-100 -23q-75 0 -127.5 37t-79 96t-26.5 125q0 65 28 124.5t81 97t124 37.5q60 0 103.5 -23.5t70.5 -61.5l10 72h64v-700h-76zM434.5 342.5q-20.5 43.5 -58 68t-86.5 24.5q-48 0 -85.5 -24.5t-58.5 -68t-21 -98.5t21 -98t58.5 -67.5
t85.5 -24.5q49 0 86.5 24.5t58 67.5t20.5 98t-20.5 98.5z" />
    <glyph glyph-name="r" unicode="r" 
d="M474 484q35 -20 55.5 -50t25.5 -61l-71 -25q-4 32 -30.5 58.5t-73.5 26.5q-57 0 -92 -41t-35 -117v-206h126v-69h-320v69h118v352h-118v69h182l8 -51q17 25 55 45t87 20q48 0 83 -20z" />
    <glyph glyph-name="s" unicode="s" 
d="M429 340q-9 43 -39 70t-84 27q-62 0 -89 -22.5t-27 -53.5q0 -34 33 -50.5t99 -27.5q88 -15 135.5 -49t47.5 -101q0 -44 -26.5 -77.5t-72 -51.5t-100.5 -18q-166 0 -212 152l70 21q15 -47 45.5 -76.5t96.5 -29.5q56 0 90.5 20.5t34.5 58.5q0 18 -7.5 32t-34.5 27.5
t-81 21.5q-90 15 -140.5 47.5t-50.5 99.5q0 68 54.5 106t134.5 38q78 0 127 -38t66 -108z" />
    <glyph glyph-name="t" unicode="t" 
d="M520 87q-41 -101 -157 -101q-77 0 -124.5 44.5t-47.5 121.5v270h-135v68h135v118h76v-118h234v-68h-234v-269q0 -49 25 -74t71 -25q72 0 92 61z" />
    <glyph glyph-name="u" unicode="u" 
d="M172 187q0 -72 31 -101t85 -29q37 0 69 18.5t51.5 53.5t19.5 82v279h76v-490h-64l-11 66q-59 -80 -164 -80q-77 0 -123 45.5t-46 137.5v321h76v-303z" />
    <glyph glyph-name="v" unicode="v" 
d="M528 490l-187 -490h-82l-188 490h78l151 -403l151 403h77z" />
    <glyph glyph-name="w" unicode="w" 
d="M559 490l-99 -490h-72l-87 366l-87 -366h-74l-98 490h72l67 -359l83 359h71l84 -356l68 356h72z" />
    <glyph glyph-name="x" unicode="x" 
d="M437 0l-137 192l-138 -192h-85l179 248l-174 242h86l132 -186l132 186h86l-173 -242l178 -248h-86z" />
    <glyph glyph-name="y" unicode="y" 
d="M512 490v-491q0 -58 -21.5 -108t-70 -81.5t-123.5 -31.5q-85 0 -136.5 42t-71.5 114l73 17q12 -52 45 -78.5t90 -26.5q70 0 104.5 40.5t34.5 110.5v74l-1 5q-33 -41 -71.5 -60t-97.5 -19q-74 0 -125 45t-51 135v313h76v-288q0 -73 32 -103.5t90 -30.5q63 0 105.5 42
t42.5 113v267h76z" />
    <glyph glyph-name="z" unicode="z" 
d="M82 64l339 359h-331v67h426v-64l-339 -359h341l-1 -67h-435v64z" />
    <glyph glyph-name="braceleft" unicode="{" 
d="M246.5 349.5q11.5 12.5 11.5 41.5v281q0 45 28 71t66 26h36v-69h-25q-10 0 -19.5 -10.5t-9.5 -34.5v-278q0 -50 -27 -77q27 -27 27 -77v-280q0 -24 9.5 -34.5t19.5 -10.5h25v-69h-36q-38 0 -66 26t-28 71v284q0 29 -11.5 42t-35.5 13v72q24 0 35.5 12.5z" />
    <glyph glyph-name="bar" unicode="|" 
d="M339 769v-940h-78v940h78z" />
    <glyph glyph-name="braceright" unicode="}" 
d="M389 265q-24 0 -35.5 -13t-11.5 -42v-284q0 -45 -28 -71t-66 -26h-36v69h25q10 0 19.5 10.5t9.5 34.5v280q0 50 27 77q-27 27 -27 77v278q0 24 -9.5 34.5t-19.5 10.5h-25v69h36q38 0 66 -26t28 -71v-281q0 -29 11.5 -41.5t35.5 -12.5v-72z" />
    <glyph glyph-name="asciitilde" unicode="~" 
d="M483 257q-31 -19 -70 -19q-28 0 -55 8t-67 23q-35 13 -56 19.5t-41 6.5q-24 0 -43.5 -12t-38.5 -39l-51 40q27 41 58.5 60t71.5 19q29 0 57.5 -8t66.5 -23q31 -13 53 -19.5t42 -6.5q22 0 40 11.5t37 38.5l53 -39q-26 -41 -57 -60z" />
    <glyph glyph-name="uni00A0" unicode="&#xa0;" 
 />
    <glyph glyph-name="exclamdown" unicode="&#xa1;" 
d="M258 479.5q17 17.5 41 17.5t41.5 -17t17.5 -41t-17 -41.5t-42 -17.5q-24 0 -41 17t-17 41t17 41.5zM261 315h78v-525h-78v525z" />
    <glyph glyph-name="cent" unicode="&#xa2;" 
d="M462 140q-47 -41 -114 -49v-82h-77v84q-63 11 -108.5 48.5t-69 92t-23.5 114.5t24 114.5t69.5 92t107.5 48.5v88h77v-86q69 -8 115.5 -48t66.5 -99l-69 -24q-17 49 -54.5 76.5t-89.5 27.5q-50 0 -89 -24.5t-60.5 -68t-21.5 -97.5t21.5 -97.5t60.5 -68t89 -24.5
q52 0 90 29t55 79l69 -24q-22 -61 -69 -102z" />
    <glyph glyph-name="sterling" unicode="&#xa3;" 
d="M222 70h309v-70h-462v70h75v245h-75v69h75v122q0 66 26 113t70 71t100 24q86 0 132.5 -41t58.5 -103l-69 -16q-8 37 -38 63t-83 26q-51 0 -85 -34.5t-34 -98.5v-126h236v-69h-236v-245z" />
    <glyph glyph-name="currency" unicode="&#xa4;" 
d="M476 212l66 -67l-50 -50l-66 65q-54 -39 -125 -39q-72 0 -126 39l-66 -65l-50 50l66 67q-38 56 -38 126q0 68 38 123l-66 66l50 50l65 -63q54 41 127 41q74 0 128 -39l63 61l50 -50l-63 -64q37 -57 37 -125t-40 -126zM402.5 232.5q39.5 41.5 39.5 105.5q0 65 -39 106
t-102 41q-62 0 -101 -41t-39 -106q0 -64 39 -105.5t101 -41.5t101.5 41.5z" />
    <glyph glyph-name="yen" unicode="&#xa5;" 
d="M374 346h139v-66h-174v-76h174v-66h-174v-138h-78v138h-174v66h174v76h-174v66h139l-201 354h85l190 -340l191 340h84z" />
    <glyph glyph-name="brokenbar" unicode="&#xa6;" 
d="M339 769v-409h-78v409h78zM339 240v-411h-78v411h78z" />
    <glyph glyph-name="section" unicode="&#xa7;" 
d="M495 133q0 -44 -25.5 -77.5t-69 -51.5t-95.5 -18q-76 0 -128.5 35.5t-71.5 102.5l67 21q14 -41 42.5 -67.5t90.5 -26.5q52 0 84 21t32 60q0 28 -22 48.5t-93 32.5q-86 15 -134.5 47.5t-48.5 99.5t55 106q-55 37 -55 104q0 68 52.5 106t129.5 38q73 0 119 -34.5t64 -97.5
l-67 -18q-11 40 -40 62.5t-76 22.5q-58 0 -83 -22.5t-25 -54.5q0 -34 31 -51t91 -28q85 -15 130.5 -49t45.5 -101q0 -31 -14 -58t-39 -46q53 -37 53 -106zM227.5 311q30.5 -17 91.5 -28q23 -4 49 -11q25 9 39 27t14 43q0 28 -22 48.5t-93 32.5q-31 5 -49 10
q-32 -9 -46 -28.5t-14 -42.5q0 -34 30.5 -51z" />
    <glyph glyph-name="dieresis" unicode="&#xa8;" 
d="M181 586q-17 17 -17 40t17 40t41 17q23 0 40 -17t17 -40t-17 -40t-40 -17q-24 0 -41 17zM339 586q-17 17 -17 40t17 40t40 17q24 0 40.5 -17t16.5 -40t-16.5 -40t-40.5 -17q-23 0 -40 17z" />
    <glyph glyph-name="copyright" unicode="&#xa9;" 
d="M174.5 83.5q-57.5 33.5 -91 91t-33.5 125.5t33.5 125.5t91 91t125.5 33.5t125.5 -33.5t91 -91t33.5 -125.5t-33.5 -125.5t-91 -91t-125.5 -33.5t-125.5 33.5zM405 119q48 28 76 76t28 105t-28 105t-76 76t-105 28t-105 -28t-76 -76t-28 -105t28 -105t76 -76t105 -28
t105 28zM346.5 382q-18.5 15 -47.5 15q-38 0 -63 -28t-25 -69q0 -43 24.5 -70t63.5 -27q56 0 74 51l40 -13q-14 -37 -42.5 -57t-71.5 -20q-58 0 -94.5 37.5t-36.5 98.5q0 59 36.5 97.5t94.5 38.5q42 0 72.5 -21t43.5 -60l-42 -14q-8 26 -26.5 41z" />
    <glyph glyph-name="ordfeminine" unicode="&#xaa;" 
d="M302 737q63 0 101.5 -32t38.5 -94l1 -228h-57l-8 33q-32 -43 -101 -43q-54 0 -87 30t-33 76q0 44 31 71.5t104 38.5l83 12v10q0 70 -74 70q-67 0 -77 -62l-61 14q23 104 139 104zM375 552l-78 -11q-37 -6 -55.5 -19.5t-18.5 -39.5q0 -23 19 -37.5t51 -14.5
q35 0 58.5 19.5t23.5 55.5v47z" />
    <glyph glyph-name="guillemotleft" unicode="&#xab;" 
d="M201 301l102 -186h-80l-102 186l102 184h80zM377 301l102 -186h-80l-102 186l102 184h80z" />
    <glyph glyph-name="logicalnot" unicode="&#xac;" 
d="M551 190h-73v150h-428v70h501v-220z" />
    <glyph glyph-name="uni00AD" unicode="&#xad;" 
d="M175 335h250v-70h-250v70z" />
    <glyph glyph-name="registered" unicode="&#xae;" 
d="M209 368.5q-42 24.5 -66.5 66t-24.5 91.5q0 49 24.5 91t66.5 66.5t91 24.5t91 -24.5t66.5 -66.5t24.5 -91q0 -50 -24.5 -91.5t-66.5 -66t-91 -24.5t-91 24.5zM370.5 404q32.5 19 51.5 51.5t19 70.5t-19 70.5t-51.5 51.5t-70.5 19t-70.5 -19t-51.5 -51.5t-19 -70.5
t19 -70.5t51.5 -51.5t70.5 -19t70.5 19zM300 501h-21v-68h-40v185h72q27 0 43 -16t16 -39q0 -42 -31 -55l34 -75h-44zM306 536q13 0 19.5 7t6.5 16q0 10 -6.5 16.5t-19.5 6.5h-27v-46h27z" />
    <glyph glyph-name="macron" unicode="&#xaf;" 
d="M202 657h196v-62h-196v62z" />
    <glyph glyph-name="degree" unicode="&#xb0;" 
d="M175.5 636q19.5 33 52.5 52.5t72 19.5t72 -19.5t52.5 -52.5t19.5 -72t-19.5 -72t-52.5 -52.5t-72 -19.5t-72 19.5t-52.5 52.5t-19.5 72t19.5 72zM240 504.5q25 -24.5 60 -24.5t60 24.5t25 59.5t-25 59.5t-60 24.5t-60 -24.5t-25 -59.5t25 -59.5z" />
    <glyph glyph-name="plusminus" unicode="&#xb1;" 
d="M262 347h-213v70h213v215h74v-215h213v-70h-213v-215h-74v215zM51 71h500v-69h-500v69z" />
    <glyph glyph-name="uni00B2" unicode="&#xb2;" 
d="M254.5 725.5q17.5 18.5 45.5 18.5q26 0 42 -16t16 -39q0 -24 -14 -43t-39 -42l-118 -102v-58h233v58h-145l73 63q36 32 54 59.5t18 65.5q0 48 -34.5 79.5t-85.5 31.5q-49 0 -83.5 -30t-36.5 -79l57 -15q0 30 17.5 48.5z" />
    <glyph glyph-name="uni00B3" unicode="&#xb3;" 
d="M389 471q36 34 36 86q0 48 -25.5 76.5t-65.5 34.5l68 69v57h-215v-57h143l-86 -84l32 -37q14 4 22 4q29 0 47.5 -18t18.5 -45t-18.5 -44.5t-47.5 -17.5q-28 0 -46.5 18t-19.5 45l-57 -17q2 -44 36 -74t87 -30q55 0 91 34z" />
    <glyph glyph-name="acute" unicode="&#xb4;" 
d="M314 685h106l-99 -118h-73z" />
    <glyph glyph-name="uni00B5" unicode="&#xb5;" 
d="M504 490v-490h-64l-11 66q-59 -80 -164 -80q-55 0 -93 22v-217h-76v699h76v-303q0 -72 31 -101t85 -29q37 0 69 18.5t51.5 53.5t19.5 82v279h76z" />
    <glyph glyph-name="paragraph" unicode="&#xb6;" 
d="M229 336q-50 0 -91.5 24.5t-66 66.5t-24.5 91q0 50 25.5 91.5t71 66t103.5 24.5h306v-64h-86v-846h-72v846h-95v-846h-71v546z" />
    <glyph glyph-name="periodcentered" unicode="&#xb7;" 
d="M259 341q17 17 42 17t41.5 -17t16.5 -41q0 -25 -16.5 -42t-41.5 -17t-42 17t-17 42q0 24 17 41z" />
    <glyph glyph-name="cedilla" unicode="&#xb8;" 
d="M260 7l54 -7l-22 -41q37 -2 59 -22.5t22 -59.5q0 -38 -25 -61.5t-65 -23.5q-35 0 -60 20t-27 49l50 17q0 -17 10 -26.5t27 -9.5q16 0 26 10t10 26q0 15 -10 24.5t-26 9.5q-14 0 -23 -6l-41 28z" />
    <glyph glyph-name="uni00B9" unicode="&#xb9;" 
d="M418 501v-57h-226v57h84v225q-12 -8 -33 -15t-36 -10v60q16 3 36.5 12.5t32.5 20.5h61v-293h81z" />
    <glyph glyph-name="ordmasculine" unicode="&#xba;" 
d="M455.5 469q-21.5 -42 -62 -67.5t-93.5 -25.5q-54 0 -94.5 25.5t-62 67.5t-21.5 89t22 89t62.5 67.5t93.5 25.5t93.5 -25.5t62 -67.5t21.5 -89t-21.5 -89zM215 467q33 -36 85 -36q51 0 84 36t33 91t-33 91.5t-84 36.5q-52 0 -85 -36.5t-33 -91.5t33 -91z" />
    <glyph glyph-name="guillemotright" unicode="&#xbb;" 
d="M479 301l-102 -186h-80l102 186l-102 184h80zM303 301l-102 -186h-80l102 186l-102 184h80z" />
    <glyph glyph-name="onequarter" unicode="&#xbc;" 
d="M21 434h76v204q-11 -8 -29.5 -14t-32.5 -9v55q13 2 32 10.5t30 18.5h56v-265h73v-52h-205v52zM572 539l-504 -423l-38 46l504 421zM527 128h36v-47h-36v-81h-56v81h-142v41l138 195h60v-189zM471 240l-81 -112h81v112z" />
    <glyph glyph-name="onehalf" unicode="&#xbd;" 
d="M9 434h76v204q-11 -8 -29.5 -14t-32.5 -9v55q13 2 32 10.5t30 18.5h56v-265h73v-52h-205v52zM581 545l-521 -437l-40 49l521 435zM549 163q-16 -25 -49 -53l-67 -57h132v-53h-211v53l107 92q23 22 35.5 39t12.5 38t-15 35.5t-38 14.5q-25 0 -41 -16.5t-16 -44.5l-52 14
q2 44 33.5 71.5t75.5 27.5q46 0 77.5 -29t31.5 -72q0 -35 -16 -60z" />
    <glyph glyph-name="threequarters" unicode="&#xbe;" 
d="M229.5 406.5q32.5 30.5 32.5 77.5q0 44 -23 70t-59 31l62 63v51h-195v-51h129l-78 -76l29 -34q14 4 20 4q27 0 43.5 -16.5t16.5 -41.5q0 -24 -16.5 -40t-43.5 -16q-25 0 -42 16.5t-18 40.5l-51 -15q2 -40 32.5 -67t78.5 -27q50 0 82.5 30.5zM533 583l38 -44l-504 -423
l-38 46zM483 81h36v47h-36v189h-60l-138 -195v-41h142v-81h56v81zM427 240v-112h-81z" />
    <glyph glyph-name="questiondown" unicode="&#xbf;" 
d="M256 398q-17 17 -17 41q0 25 17 42t42 17q24 0 41 -17t17 -42q0 -24 -17 -41t-41 -17q-25 0 -42 17zM521 -26q-3 -57 -32 -102t-77.5 -70t-108.5 -25q-65 0 -116 27.5t-79.5 75t-28.5 106.5q0 82 47 143.5t133 80.5v108h78v-166h-8q-81 0 -127 -46t-46 -120
q0 -59 41 -98.5t104 -39.5q68 0 108.5 39.5t41.5 105.5z" />
    <glyph glyph-name="Agrave" unicode="&#xc0;" 
d="M420 196h-242l-59 -196h-79l218 700h80l222 -700h-80zM399 266l-101 331l-99 -331h200zM263 773l-99 118h106l66 -118h-73z" />
    <glyph glyph-name="Aacute" unicode="&#xc1;" 
d="M420 196h-242l-59 -196h-79l218 700h80l222 -700h-80zM399 266l-101 331l-99 -331h200zM329 891h106l-99 -118h-73z" />
    <glyph glyph-name="Acircumflex" unicode="&#xc2;" 
d="M420 196h-242l-59 -196h-79l218 700h80l222 -700h-80zM399 266l-101 331l-99 -331h200zM358 773l-59 64l-58 -64h-74l85 118h95l84 -118h-73z" />
    <glyph glyph-name="Atilde" unicode="&#xc3;" 
d="M420 196h-242l-59 -196h-79l218 700h80l222 -700h-80zM399 266l-101 331l-99 -331h200zM156 814q14 34 37 50t49 16q19 0 32 -4.5t34 -15.5q14 -8 24 -12t22 -4q27 0 45 39l46 -33q-25 -67 -89 -67q-19 0 -33 5t-32 15q-15 8 -24 11.5t-20 3.5q-28 0 -45 -35z" />
    <glyph glyph-name="Adieresis" unicode="&#xc4;" 
d="M420 196h-242l-59 -196h-79l218 700h80l222 -700h-80zM399 266l-101 331l-99 -331h200zM179 791.5q-17 16.5 -17 40.5t17 40.5t41 16.5q23 0 40 -16.5t17 -40.5t-17 -40.5t-40 -16.5q-24 0 -41 16.5zM340 791.5q-17 16.5 -17 40.5t17 40.5t40 16.5q24 0 40.5 -16.5
t16.5 -40.5t-16.5 -40.5t-40.5 -16.5q-23 0 -40 16.5z" />
    <glyph glyph-name="Aring" unicode="&#xc5;" 
d="M420 196h-242l-59 -196h-79l218 700h80l222 -700h-80zM399 266l-101 331l-99 -331h200zM240 902q25 25 60 25t60.5 -25t25.5 -60t-25.5 -60t-60.5 -25t-60 25t-25 60t25 60zM277.5 818.5q9.5 -9.5 22.5 -9.5q14 0 23.5 9.5t9.5 23.5q0 13 -9.5 23t-23.5 10
q-13 0 -22.5 -10t-9.5 -23q0 -14 9.5 -23.5z" />
    <glyph glyph-name="AE" unicode="&#xc6;" 
d="M395 630v-242h132v-69h-132v-249h155v-70h-233v167h-133l-59 -167h-75l254 700h246v-70h-155zM317 236v304l-108 -304h108z" />
    <glyph glyph-name="Ccedilla" unicode="&#xc7;" 
d="M421.5 98q37.5 41 56.5 116l69 -24q-51 -190 -205 -203l-15 -28q37 -2 59 -22.5t22 -59.5q0 -38 -25 -61.5t-65 -23.5q-35 0 -60 20t-27 49l50 17q0 -17 10 -26.5t27 -9.5q16 0 26 10t10 26q0 15 -10 24.5t-26 9.5q-14 0 -23 -6l-41 28l30 54q-109 14 -171.5 109
t-62.5 253q0 110 33.5 192.5t94 127t139.5 44.5q90 0 148.5 -57t84.5 -160l-70 -25q-20 85 -59.5 128t-103.5 43q-90 0 -139.5 -77.5t-49.5 -215.5q0 -141 49.5 -217t141.5 -76q65 0 102.5 41z" />
    <glyph glyph-name="Egrave" unicode="&#xc8;" 
d="M88 700h424v-70h-346v-242h305v-69h-305v-249h346v-70h-424v700zM267 773l-99 118h106l66 -118h-73z" />
    <glyph glyph-name="Eacute" unicode="&#xc9;" 
d="M88 700h424v-70h-346v-242h305v-69h-305v-249h346v-70h-424v700zM333 891h106l-99 -118h-73z" />
    <glyph glyph-name="Ecircumflex" unicode="&#xca;" 
d="M88 700h424v-70h-346v-242h305v-69h-305v-249h346v-70h-424v700zM362 773l-59 64l-58 -64h-74l85 118h95l84 -118h-73z" />
    <glyph glyph-name="Edieresis" unicode="&#xcb;" 
d="M88 700h424v-70h-346v-242h305v-69h-305v-249h346v-70h-424v700zM183 791.5q-17 16.5 -17 40.5t17 40.5t41 16.5q23 0 40 -16.5t17 -40.5t-17 -40.5t-40 -16.5q-24 0 -41 16.5zM344 791.5q-17 16.5 -17 40.5t17 40.5t40 16.5q24 0 40.5 -16.5t16.5 -40.5t-16.5 -40.5
t-40.5 -16.5q-23 0 -40 16.5z" />
    <glyph glyph-name="Igrave" unicode="&#xcc;" 
d="M339 630v-560h186v-70h-450v70h186v560h-186v70h450v-70h-186zM263 773l-99 118h106l66 -118h-73z" />
    <glyph glyph-name="Iacute" unicode="&#xcd;" 
d="M339 630v-560h186v-70h-450v70h186v560h-186v70h450v-70h-186zM329 891h106l-99 -118h-73z" />
    <glyph glyph-name="Icircumflex" unicode="&#xce;" 
d="M339 630v-560h186v-70h-450v70h186v560h-186v70h450v-70h-186zM358 773l-59 64l-58 -64h-74l85 118h95l84 -118h-73z" />
    <glyph glyph-name="Idieresis" unicode="&#xcf;" 
d="M339 630v-560h186v-70h-450v70h186v560h-186v70h450v-70h-186zM179 796q-17 17 -17 40t17 40t41 17q23 0 40 -17t17 -40t-17 -40t-40 -17q-24 0 -41 17zM337 796q-17 17 -17 40t17 40t40 17q24 0 40.5 -17t16.5 -40t-16.5 -40t-40.5 -17q-23 0 -40 17z" />
    <glyph glyph-name="Eth" unicode="&#xd0;" 
d="M470 600q63 -100 63 -246q0 -95 -26.5 -175t-86 -129.5t-153.5 -49.5h-187v315h-59v70h59v315h174q153 0 216 -100zM410 151.5q45 81.5 45 203.5t-44.5 198.5t-158.5 76.5h-94v-245h123v-70h-123v-245h103q104 0 149 81.5z" />
    <glyph glyph-name="Ntilde" unicode="&#xd1;" 
d="M75 700h77l297 -553v553h76v-700h-76l-298 553v-553h-76v700zM156 814q14 34 37 50t49 16q19 0 32 -4.5t34 -15.5q14 -8 24 -12t22 -4q27 0 45 39l46 -33q-25 -67 -89 -67q-19 0 -33 5t-32 15q-15 8 -24 11.5t-20 3.5q-28 0 -45 -35z" />
    <glyph glyph-name="Ograve" unicode="&#xd2;" 
d="M122.5 624.5q62.5 90.5 177.5 90.5q116 0 178 -90t62 -274q0 -178 -62.5 -271t-177.5 -93q-114 0 -177 93t-63 271q0 183 62.5 273.5zM420.5 569.5q-41.5 74.5 -120.5 74.5q-162 0 -162 -293q0 -152 41 -222.5t121 -70.5q81 0 121.5 70.5t40.5 222.5q0 144 -41.5 218.5z
M263 773l-99 118h106l66 -118h-73z" />
    <glyph glyph-name="Oacute" unicode="&#xd3;" 
d="M122.5 624.5q62.5 90.5 177.5 90.5q116 0 178 -90t62 -274q0 -178 -62.5 -271t-177.5 -93q-114 0 -177 93t-63 271q0 183 62.5 273.5zM420.5 569.5q-41.5 74.5 -120.5 74.5q-162 0 -162 -293q0 -152 41 -222.5t121 -70.5q81 0 121.5 70.5t40.5 222.5q0 144 -41.5 218.5z
M329 891h106l-99 -118h-73z" />
    <glyph glyph-name="Ocircumflex" unicode="&#xd4;" 
d="M122.5 624.5q62.5 90.5 177.5 90.5q116 0 178 -90t62 -274q0 -178 -62.5 -271t-177.5 -93q-114 0 -177 93t-63 271q0 183 62.5 273.5zM420.5 569.5q-41.5 74.5 -120.5 74.5q-162 0 -162 -293q0 -152 41 -222.5t121 -70.5q81 0 121.5 70.5t40.5 222.5q0 144 -41.5 218.5z
M358 773l-59 64l-58 -64h-74l85 118h95l84 -118h-73z" />
    <glyph glyph-name="Otilde" unicode="&#xd5;" 
d="M122.5 624.5q62.5 90.5 177.5 90.5q116 0 178 -90t62 -274q0 -178 -62.5 -271t-177.5 -93q-114 0 -177 93t-63 271q0 183 62.5 273.5zM420.5 569.5q-41.5 74.5 -120.5 74.5q-162 0 -162 -293q0 -152 41 -222.5t121 -70.5q81 0 121.5 70.5t40.5 222.5q0 144 -41.5 218.5z
M156 814q14 34 37 50t49 16q19 0 32 -4.5t34 -15.5q14 -8 24 -12t22 -4q27 0 45 39l46 -33q-25 -67 -89 -67q-19 0 -33 5t-32 15q-15 8 -24 11.5t-20 3.5q-28 0 -45 -35z" />
    <glyph glyph-name="Odieresis" unicode="&#xd6;" 
d="M122.5 624.5q62.5 90.5 177.5 90.5q116 0 178 -90t62 -274q0 -178 -62.5 -271t-177.5 -93q-114 0 -177 93t-63 271q0 183 62.5 273.5zM420.5 569.5q-41.5 74.5 -120.5 74.5q-162 0 -162 -293q0 -152 41 -222.5t121 -70.5q81 0 121.5 70.5t40.5 222.5q0 144 -41.5 218.5z
M179 791.5q-17 16.5 -17 40.5t17 40.5t41 16.5q23 0 40 -16.5t17 -40.5t-17 -40.5t-40 -16.5q-24 0 -41 16.5zM340 791.5q-17 16.5 -17 40.5t17 40.5t40 16.5q24 0 40.5 -16.5t16.5 -40.5t-16.5 -40.5t-40.5 -16.5q-23 0 -40 16.5z" />
    <glyph glyph-name="multiply" unicode="&#xd7;" 
d="M339 300l179 -179l-50 -50l-179 179l-180 -179l-50 50l179 179l-179 179l50 50l180 -179l179 179l50 -50z" />
    <glyph glyph-name="Oslash" unicode="&#xd8;" 
d="M540 351q0 -178 -62.5 -271t-177.5 -93q-78 0 -131 43l-31 -56l-61 31l43 79q-60 94 -60 267q0 183 62.5 273.5t177.5 90.5q84 0 139 -46l31 57l61 -35l-44 -80q53 -94 53 -260zM163 163l237 435q-37 46 -100 46q-162 0 -162 -293q0 -116 25 -188zM421.5 128.5
q40.5 70.5 40.5 222.5q0 102 -22 173l-236 -429q37 -37 96 -37q81 0 121.5 70.5z" />
    <glyph glyph-name="Ugrave" unicode="&#xd9;" 
d="M71 700h78v-464q0 -93 40 -136t110 -43t111 43t41 136v464h78v-469q0 -122 -63 -183.5t-167 -61.5t-166 62.5t-62 183.5v468zM266 773l-99 118h106l66 -118h-73z" />
    <glyph glyph-name="Uacute" unicode="&#xda;" 
d="M71 700h78v-464q0 -93 40 -136t110 -43t111 43t41 136v464h78v-469q0 -122 -63 -183.5t-167 -61.5t-166 62.5t-62 183.5v468zM332 891h106l-99 -118h-73z" />
    <glyph glyph-name="Ucircumflex" unicode="&#xdb;" 
d="M71 700h78v-464q0 -93 40 -136t110 -43t111 43t41 136v464h78v-469q0 -122 -63 -183.5t-167 -61.5t-166 62.5t-62 183.5v468zM361 773l-59 64l-58 -64h-74l85 118h95l84 -118h-73z" />
    <glyph glyph-name="Udieresis" unicode="&#xdc;" 
d="M71 700h78v-464q0 -93 40 -136t110 -43t111 43t41 136v464h78v-469q0 -122 -63 -183.5t-167 -61.5t-166 62.5t-62 183.5v468zM182 791.5q-17 16.5 -17 40.5t17 40.5t41 16.5q23 0 40 -16.5t17 -40.5t-17 -40.5t-40 -16.5q-24 0 -41 16.5zM343 791.5q-17 16.5 -17 40.5
t17 40.5t40 16.5q24 0 40.5 -16.5t16.5 -40.5t-16.5 -40.5t-40.5 -16.5q-23 0 -40 16.5z" />
    <glyph glyph-name="Yacute" unicode="&#xdd;" 
d="M339 0h-78v284l-236 416h85l190 -340l191 340h84l-236 -416v-284zM329 891h106l-99 -118h-73z" />
    <glyph glyph-name="Thorn" unicode="&#xde;" 
d="M96 700h78v-134h135q104 0 164.5 -55.5t60.5 -155.5q0 -99 -61.5 -155.5t-162.5 -56.5h-136v-143h-78v700zM303 213q71 0 112 34.5t41 107.5t-41 107t-112 34h-129v-283h129z" />
    <glyph glyph-name="germandbls" unicode="&#xdf;" 
d="M98 524q0 91 53 141t138 50q45 0 86.5 -20t68 -61t26.5 -101q0 -53 -25.5 -88.5t-55.5 -52.5v-2q126 -49 126 -187q0 -59 -27 -107.5t-76.5 -77t-113.5 -28.5q-43 0 -65 9l14 65q17 -6 46 -6q58 0 102.5 35t44.5 110q0 72 -44.5 108.5t-109.5 36.5h-33v67h34q46 0 80 32
t34 84q0 54 -30 86t-89 32q-50 0 -80 -33t-30 -93v-523h-74v524z" />
    <glyph glyph-name="agrave" unicode="&#xe0;" 
d="M169.5 465.5q50.5 38.5 131.5 38.5q94 0 148 -45.5t54 -130.5v-328h-63l-10 52q-47 -66 -159 -66q-56 0 -95.5 20t-59.5 54t-20 74q0 66 46.5 105t147.5 53l137 19v16q0 55 -31.5 84t-94.5 29q-114 0 -128 -101l-69 17q15 71 65.5 109.5zM427 249l-128 -18
q-64 -9 -96.5 -30t-32.5 -63q0 -40 31.5 -63t85.5 -23q59 0 99.5 31.5t40.5 93.5v72zM265 567l-99 118h106l66 -118h-73z" />
    <glyph glyph-name="aacute" unicode="&#xe1;" 
d="M169.5 465.5q50.5 38.5 131.5 38.5q94 0 148 -45.5t54 -130.5v-328h-63l-10 52q-47 -66 -159 -66q-56 0 -95.5 20t-59.5 54t-20 74q0 66 46.5 105t147.5 53l137 19v16q0 55 -31.5 84t-94.5 29q-114 0 -128 -101l-69 17q15 71 65.5 109.5zM427 249l-128 -18
q-64 -9 -96.5 -30t-32.5 -63q0 -40 31.5 -63t85.5 -23q59 0 99.5 31.5t40.5 93.5v72zM340 685h106l-99 -118h-73z" />
    <glyph glyph-name="acircumflex" unicode="&#xe2;" 
d="M169.5 465.5q50.5 38.5 131.5 38.5q94 0 148 -45.5t54 -130.5v-328h-63l-10 52q-47 -66 -159 -66q-56 0 -95.5 20t-59.5 54t-20 74q0 66 46.5 105t147.5 53l137 19v16q0 55 -31.5 84t-94.5 29q-114 0 -128 -101l-69 17q15 71 65.5 109.5zM427 249l-128 -18
q-64 -9 -96.5 -30t-32.5 -63q0 -40 31.5 -63t85.5 -23q59 0 99.5 31.5t40.5 93.5v72zM360 567l-59 64l-58 -64h-74l85 118h95l84 -118h-73z" />
    <glyph glyph-name="atilde" unicode="&#xe3;" 
d="M169.5 465.5q50.5 38.5 131.5 38.5q94 0 148 -45.5t54 -130.5v-328h-63l-10 52q-47 -66 -159 -66q-56 0 -95.5 20t-59.5 54t-20 74q0 66 46.5 105t147.5 53l137 19v16q0 55 -31.5 84t-94.5 29q-114 0 -128 -101l-69 17q15 71 65.5 109.5zM427 249l-128 -18
q-64 -9 -96.5 -30t-32.5 -63q0 -40 31.5 -63t85.5 -23q59 0 99.5 31.5t40.5 93.5v72zM161 610q14 34 37 50t49 16q19 0 32 -4.5t34 -15.5q14 -8 24 -12t22 -4q27 0 45 39l46 -33q-12 -33 -35.5 -50t-53.5 -17q-19 0 -33 5t-32 15q-15 8 -24 11.5t-20 3.5q-28 0 -45 -35z" />
    <glyph glyph-name="adieresis" unicode="&#xe4;" 
d="M169.5 465.5q50.5 38.5 131.5 38.5q94 0 148 -45.5t54 -130.5v-328h-63l-10 52q-47 -66 -159 -66q-56 0 -95.5 20t-59.5 54t-20 74q0 66 46.5 105t147.5 53l137 19v16q0 55 -31.5 84t-94.5 29q-114 0 -128 -101l-69 17q15 71 65.5 109.5zM427 249l-128 -18
q-64 -9 -96.5 -30t-32.5 -63q0 -40 31.5 -63t85.5 -23q59 0 99.5 31.5t40.5 93.5v72zM180 586q-17 17 -17 40t17 40t41 17q23 0 40 -17t17 -40t-17 -40t-40 -17q-24 0 -41 17zM338 586q-17 17 -17 40t17 40t40 17q24 0 40.5 -17t16.5 -40t-16.5 -40t-40.5 -17q-23 0 -40 17z
" />
    <glyph glyph-name="aring" unicode="&#xe5;" 
d="M169.5 465.5q50.5 38.5 131.5 38.5q94 0 148 -45.5t54 -130.5v-328h-63l-10 52q-47 -66 -159 -66q-56 0 -95.5 20t-59.5 54t-20 74q0 66 46.5 105t147.5 53l137 19v16q0 55 -31.5 84t-94.5 29q-114 0 -128 -101l-69 17q15 71 65.5 109.5zM427 249l-128 -18
q-64 -9 -96.5 -30t-32.5 -63q0 -40 31.5 -63t85.5 -23q59 0 99.5 31.5t40.5 93.5v72zM241 697q25 25 60 25t60.5 -25t25.5 -60t-25.5 -60t-60.5 -25t-60 25t-25 60t25 60zM278.5 613.5q9.5 -9.5 22.5 -9.5q14 0 23.5 9.5t9.5 23.5q0 13 -9.5 23t-23.5 10q-13 0 -22.5 -10
t-9.5 -23q0 -14 9.5 -23.5z" />
    <glyph glyph-name="ae" unicode="&#xe6;" 
d="M551 224h-221q0 -173 77 -173q32 0 47 25.5t21 69.5l66 -15q-8 -64 -41 -104.5t-96 -40.5q-80 0 -115 65q-18 -31 -45.5 -48t-63.5 -17q-65 0 -97.5 41t-32.5 106q0 57 36.5 98t114.5 50l53 6v28q0 60 -13.5 92t-47.5 32t-49.5 -26.5t-17.5 -73.5l-68 14q8 72 42 111.5
t93 39.5q74 0 104 -67q41 67 111 67q72 0 107.5 -60t35.5 -183v-37zM480 287q0 152 -76 152q-39 0 -57 -41t-18 -111h151zM254 224l-53 -7q-38 -5 -57.5 -22.5t-19.5 -57.5q0 -86 60 -86q32 0 51 24.5t19 76.5v72z" />
    <glyph glyph-name="ccedilla" unicode="&#xe7;" 
d="M458.5 34.5q-48.5 -41.5 -118.5 -47.5l-15 -28q37 -2 59 -22.5t22 -59.5q0 -38 -25 -61.5t-65 -23.5q-35 0 -60 20t-27 49l50 17q0 -17 10 -26.5t27 -9.5q16 0 26 10t10 26q0 15 -10 24.5t-26 9.5q-14 0 -23 -6l-41 28l30 54q-66 8 -114.5 46t-73.5 93.5t-25 117.5
q0 67 30 126.5t86 96t131 36.5q81 0 136 -41.5t77 -107.5l-69 -24q-17 49 -54.5 76.5t-89.5 27.5q-50 0 -89 -24.5t-60.5 -68t-21.5 -97.5t21.5 -97.5t60.5 -68t89 -24.5q52 0 90 29t55 79l69 -24q-23 -63 -71.5 -104.5z" />
    <glyph glyph-name="egrave" unicode="&#xe8;" 
d="M445.5 26q-55.5 -40 -138.5 -40q-73 0 -128.5 34.5t-85.5 94t-30 130.5q0 70 31.5 129.5t87.5 94.5t124 35t120 -30.5t81 -86.5t29 -130v-33h-398q2 -48 24 -87.5t59.5 -62.5t85.5 -23q56 0 95.5 27.5t52.5 67.5l67 -21q-21 -59 -76.5 -99zM465 287q-5 65 -48.5 108.5
t-109.5 43.5q-70 0 -114.5 -43t-53.5 -109h326zM270 567l-99 118h106l66 -118h-73z" />
    <glyph glyph-name="eacute" unicode="&#xe9;" 
d="M445.5 26q-55.5 -40 -138.5 -40q-73 0 -128.5 34.5t-85.5 94t-30 130.5q0 70 31.5 129.5t87.5 94.5t124 35t120 -30.5t81 -86.5t29 -130v-33h-398q2 -48 24 -87.5t59.5 -62.5t85.5 -23q56 0 95.5 27.5t52.5 67.5l67 -21q-21 -59 -76.5 -99zM465 287q-5 65 -48.5 108.5
t-109.5 43.5q-70 0 -114.5 -43t-53.5 -109h326zM345 685h106l-99 -118h-73z" />
    <glyph glyph-name="ecircumflex" unicode="&#xea;" 
d="M445.5 26q-55.5 -40 -138.5 -40q-73 0 -128.5 34.5t-85.5 94t-30 130.5q0 70 31.5 129.5t87.5 94.5t124 35t120 -30.5t81 -86.5t29 -130v-33h-398q2 -48 24 -87.5t59.5 -62.5t85.5 -23q56 0 95.5 27.5t52.5 67.5l67 -21q-21 -59 -76.5 -99zM465 287q-5 65 -48.5 108.5
t-109.5 43.5q-70 0 -114.5 -43t-53.5 -109h326zM365 567l-59 64l-58 -64h-74l85 118h95l84 -118h-73z" />
    <glyph glyph-name="edieresis" unicode="&#xeb;" 
d="M445.5 26q-55.5 -40 -138.5 -40q-73 0 -128.5 34.5t-85.5 94t-30 130.5q0 70 31.5 129.5t87.5 94.5t124 35t120 -30.5t81 -86.5t29 -130v-33h-398q2 -48 24 -87.5t59.5 -62.5t85.5 -23q56 0 95.5 27.5t52.5 67.5l67 -21q-21 -59 -76.5 -99zM465 287q-5 65 -48.5 108.5
t-109.5 43.5q-70 0 -114.5 -43t-53.5 -109h326zM185 586q-17 17 -17 40t17 40t41 17q23 0 40 -17t17 -40t-17 -40t-40 -17q-24 0 -41 17zM343 586q-17 17 -17 40t17 40t40 17q24 0 40.5 -17t16.5 -40t-16.5 -40t-40.5 -17q-23 0 -40 17z" />
    <glyph glyph-name="igrave" unicode="&#xec;" 
d="M519 69v-69h-437v69h182v352h-139v69h215v-421h179zM266 567l-99 118h106l66 -118h-73z" />
    <glyph glyph-name="iacute" unicode="&#xed;" 
d="M519 69v-69h-437v69h182v352h-139v69h215v-421h179zM341 685h106l-99 -118h-73z" />
    <glyph glyph-name="icircumflex" unicode="&#xee;" 
d="M519 69v-69h-437v69h182v352h-139v69h215v-421h179zM361 567l-59 64l-58 -64h-74l85 118h95l84 -118h-73z" />
    <glyph glyph-name="idieresis" unicode="&#xef;" 
d="M519 69v-69h-437v69h182v352h-139v69h215v-421h179zM181 586q-17 17 -17 40t17 40t41 17q23 0 40 -17t17 -40t-17 -40t-40 -17q-24 0 -41 17zM339 586q-17 17 -17 40t17 40t40 17q24 0 40.5 -17t16.5 -40t-16.5 -40t-40.5 -17q-23 0 -40 17z" />
    <glyph glyph-name="eth" unicode="&#xf0;" 
d="M550 277q0 -85 -29 -150.5t-85.5 -103t-137.5 -37.5t-137.5 37t-85 96t-28.5 124q0 64 30.5 123t88 96t132.5 37q94 0 158 -61q-31 89 -106 168l-133 -49l-20 52l107 39q-46 39 -98 69l41 47q71 -44 124 -91l113 41l20 -52l-90 -33q136 -151 136 -352zM389 79.5
q40 25.5 62 70t22 100.5q0 50 -22 92t-62 66t-91 24t-91 -24.5t-62 -67.5t-22 -97q0 -53 22 -96t62 -68t91 -25t91 25.5z" />
    <glyph glyph-name="ntilde" unicode="&#xf1;" 
d="M428 303q0 72 -31 101t-85 29q-37 0 -69 -18.5t-51.5 -53.5t-19.5 -82v-279h-76v490h64l11 -66q59 80 164 80q77 0 123 -45.5t46 -137.5v-321h-76v303zM177 610q14 34 37 50t49 16q19 0 32 -4.5t34 -15.5q14 -8 24 -12t22 -4q27 0 45 39l46 -33q-12 -33 -35.5 -50
t-53.5 -17q-19 0 -33 5t-32 15q-15 8 -24 11.5t-20 3.5q-28 0 -45 -35z" />
    <glyph glyph-name="ograve" unicode="&#xf2;" 
d="M520.5 119.5q-30.5 -59.5 -87.5 -96.5t-134 -37t-134 37t-86.5 96.5t-29.5 125.5t30.5 125.5t87.5 96.5t132 37q77 0 134 -37t87.5 -96.5t30.5 -125.5t-30.5 -125.5zM147 148.5q22 -43.5 62 -68.5t90 -25q51 0 91 25t62.5 68.5t22.5 96.5q0 54 -22.5 97t-62.5 68t-91 25
t-90.5 -25t-61.5 -68t-22 -97q0 -53 22 -96.5zM264 567l-99 118h106l66 -118h-73z" />
    <glyph glyph-name="oacute" unicode="&#xf3;" 
d="M520.5 119.5q-30.5 -59.5 -87.5 -96.5t-134 -37t-134 37t-86.5 96.5t-29.5 125.5t30.5 125.5t87.5 96.5t132 37q77 0 134 -37t87.5 -96.5t30.5 -125.5t-30.5 -125.5zM147 148.5q22 -43.5 62 -68.5t90 -25q51 0 91 25t62.5 68.5t22.5 96.5q0 54 -22.5 97t-62.5 68t-91 25
t-90.5 -25t-61.5 -68t-22 -97q0 -53 22 -96.5zM339 685h106l-99 -118h-73z" />
    <glyph glyph-name="ocircumflex" unicode="&#xf4;" 
d="M520.5 119.5q-30.5 -59.5 -87.5 -96.5t-134 -37t-134 37t-86.5 96.5t-29.5 125.5t30.5 125.5t87.5 96.5t132 37q77 0 134 -37t87.5 -96.5t30.5 -125.5t-30.5 -125.5zM147 148.5q22 -43.5 62 -68.5t90 -25q51 0 91 25t62.5 68.5t22.5 96.5q0 54 -22.5 97t-62.5 68t-91 25
t-90.5 -25t-61.5 -68t-22 -97q0 -53 22 -96.5zM359 567l-59 64l-58 -64h-74l85 118h95l84 -118h-73z" />
    <glyph glyph-name="otilde" unicode="&#xf5;" 
d="M520.5 119.5q-30.5 -59.5 -87.5 -96.5t-134 -37t-134 37t-86.5 96.5t-29.5 125.5t30.5 125.5t87.5 96.5t132 37q77 0 134 -37t87.5 -96.5t30.5 -125.5t-30.5 -125.5zM147 148.5q22 -43.5 62 -68.5t90 -25q51 0 91 25t62.5 68.5t22.5 96.5q0 54 -22.5 97t-62.5 68t-91 25
t-90.5 -25t-61.5 -68t-22 -97q0 -53 22 -96.5zM160 610q14 34 37 50t49 16q19 0 32 -4.5t34 -15.5q14 -8 24 -12t22 -4q27 0 45 39l46 -33q-12 -33 -35.5 -50t-53.5 -17q-19 0 -33 5t-32 15q-15 8 -24 11.5t-20 3.5q-28 0 -45 -35z" />
    <glyph glyph-name="odieresis" unicode="&#xf6;" 
d="M520.5 119.5q-30.5 -59.5 -87.5 -96.5t-134 -37t-134 37t-86.5 96.5t-29.5 125.5t30.5 125.5t87.5 96.5t132 37q77 0 134 -37t87.5 -96.5t30.5 -125.5t-30.5 -125.5zM147 148.5q22 -43.5 62 -68.5t90 -25q51 0 91 25t62.5 68.5t22.5 96.5q0 54 -22.5 97t-62.5 68t-91 25
t-90.5 -25t-61.5 -68t-22 -97q0 -53 22 -96.5zM179 586q-17 17 -17 40t17 40t41 17q23 0 40 -17t17 -40t-17 -40t-40 -17q-24 0 -41 17zM337 586q-17 17 -17 40t17 40t40 17q24 0 40.5 -17t16.5 -40t-16.5 -40t-40.5 -17q-23 0 -40 17z" />
    <glyph glyph-name="divide" unicode="&#xf7;" 
d="M258.5 552q16.5 17 41.5 17t42 -17t17 -42q0 -24 -17 -41t-42 -17t-41.5 17t-16.5 41q0 25 16.5 42zM45 334h510v-68h-510v68zM258.5 147q16.5 17 41.5 17t42 -17t17 -42q0 -24 -17 -41t-42 -17t-41.5 17t-16.5 41q0 25 16.5 42z" />
    <glyph glyph-name="oslash" unicode="&#xf8;" 
d="M529.5 351.5q21.5 -51.5 21.5 -106.5q0 -66 -30.5 -125.5t-87.5 -96.5t-134 -37q-62 0 -114 26l-37 -55l-52 35l37 56q-41 37 -62.5 89t-21.5 108q0 66 30.5 125.5t87.5 96.5t132 37q67 0 118 -28l34 51l52 -35l-35 -52q40 -37 61.5 -88.5zM174 109l204 308
q-35 18 -79 18q-51 0 -90.5 -25t-61.5 -68t-22 -97q0 -81 49 -136zM390 80q40 25 62.5 68.5t22.5 96.5q0 39 -12 73.5t-35 60.5l-204 -307q34 -17 75 -17q51 0 91 25z" />
    <glyph glyph-name="ugrave" unicode="&#xf9;" 
d="M172 187q0 -72 31 -101t85 -29q37 0 69 18.5t51.5 53.5t19.5 82v279h76v-490h-64l-11 66q-59 -80 -164 -80q-77 0 -123 45.5t-46 137.5v321h76v-303zM270 567l-99 118h106l66 -118h-73z" />
    <glyph glyph-name="uacute" unicode="&#xfa;" 
d="M172 187q0 -72 31 -101t85 -29q37 0 69 18.5t51.5 53.5t19.5 82v279h76v-490h-64l-11 66q-59 -80 -164 -80q-77 0 -123 45.5t-46 137.5v321h76v-303zM345 685h106l-99 -118h-73z" />
    <glyph glyph-name="ucircumflex" unicode="&#xfb;" 
d="M172 187q0 -72 31 -101t85 -29q37 0 69 18.5t51.5 53.5t19.5 82v279h76v-490h-64l-11 66q-59 -80 -164 -80q-77 0 -123 45.5t-46 137.5v321h76v-303zM365 567l-59 64l-58 -64h-74l85 118h95l84 -118h-73z" />
    <glyph glyph-name="udieresis" unicode="&#xfc;" 
d="M172 187q0 -72 31 -101t85 -29q37 0 69 18.5t51.5 53.5t19.5 82v279h76v-490h-64l-11 66q-59 -80 -164 -80q-77 0 -123 45.5t-46 137.5v321h76v-303zM185 586q-17 17 -17 40t17 40t41 17q23 0 40 -17t17 -40t-17 -40t-40 -17q-24 0 -41 17zM343 586q-17 17 -17 40t17 40
t40 17q24 0 40.5 -17t16.5 -40t-16.5 -40t-40.5 -17q-23 0 -40 17z" />
    <glyph glyph-name="yacute" unicode="&#xfd;" 
d="M512 490v-491q0 -58 -21.5 -108t-70 -81.5t-123.5 -31.5q-85 0 -136.5 42t-71.5 114l73 17q12 -52 45 -78.5t90 -26.5q70 0 104.5 40.5t34.5 110.5v74l-1 5q-33 -41 -71.5 -60t-97.5 -19q-74 0 -125 45t-51 135v313h76v-288q0 -73 32 -103.5t90 -30.5q63 0 105.5 42
t42.5 113v267h76zM339 685h106l-99 -118h-73z" />
    <glyph glyph-name="thorn" unicode="&#xfe;" 
d="M70 700h75v-281q28 39 71.5 61.5t101.5 22.5q70 0 123 -37.5t81.5 -97t28.5 -124.5q0 -66 -26.5 -125t-79 -96t-127.5 -37q-107 0 -172 85v-281h-76v910zM165.5 146q20.5 -43 58 -67t86.5 -24q48 0 85.5 24t58.5 67t21 98q0 54 -21 97.5t-58.5 68t-85.5 24.5
q-49 0 -86.5 -24.5t-58 -68t-20.5 -97.5q0 -55 20.5 -98z" />
    <glyph glyph-name="ydieresis" unicode="&#xff;" 
d="M512 490v-491q0 -58 -21.5 -108t-70 -81.5t-123.5 -31.5q-85 0 -136.5 42t-71.5 114l73 17q12 -52 45 -78.5t90 -26.5q70 0 104.5 40.5t34.5 110.5v74l-1 5q-33 -41 -71.5 -60t-97.5 -19q-74 0 -125 45t-51 135v313h76v-288q0 -73 32 -103.5t90 -30.5q63 0 105.5 42
t42.5 113v267h76zM179 586q-17 17 -17 40t17 40t41 17q23 0 40 -17t17 -40t-17 -40t-40 -17q-24 0 -41 17zM337 586q-17 17 -17 40t17 40t40 17q24 0 40.5 -17t16.5 -40t-16.5 -40t-40.5 -17q-23 0 -40 17z" />
    <glyph glyph-name="Amacron" unicode="&#x100;" 
d="M420 196h-242l-59 -196h-79l218 700h80l222 -700h-80zM399 266l-101 331l-99 -331h200zM203 863h196v-62h-196v62z" />
    <glyph glyph-name="amacron" unicode="&#x101;" 
d="M169.5 465.5q50.5 38.5 131.5 38.5q94 0 148 -45.5t54 -130.5v-328h-63l-10 52q-47 -66 -159 -66q-56 0 -95.5 20t-59.5 54t-20 74q0 66 46.5 105t147.5 53l137 19v16q0 55 -31.5 84t-94.5 29q-114 0 -128 -101l-69 17q15 71 65.5 109.5zM427 249l-128 -18
q-64 -9 -96.5 -30t-32.5 -63q0 -40 31.5 -63t85.5 -23q59 0 99.5 31.5t40.5 93.5v72zM204 657h196v-62h-196v62z" />
    <glyph glyph-name="Abreve" unicode="&#x102;" 
d="M420 196h-242l-59 -196h-79l218 700h80l222 -700h-80zM399 266l-101 331l-99 -331h200zM386 811.5q-33 -33.5 -86 -33.5t-86 33.5t-35 84.5h62q2 -26 17.5 -42t41.5 -16t42 16t18 42h61q-2 -51 -35 -84.5z" />
    <glyph glyph-name="abreve" unicode="&#x103;" 
d="M169.5 465.5q50.5 38.5 131.5 38.5q94 0 148 -45.5t54 -130.5v-328h-63l-10 52q-47 -66 -159 -66q-56 0 -95.5 20t-59.5 54t-20 74q0 66 46.5 105t147.5 53l137 19v16q0 55 -31.5 84t-94.5 29q-114 0 -128 -101l-69 17q15 71 65.5 109.5zM427 249l-128 -18
q-64 -9 -96.5 -30t-32.5 -63q0 -40 31.5 -63t85.5 -23q59 0 99.5 31.5t40.5 93.5v72zM387 601.5q-33 -33.5 -86 -33.5t-86 33.5t-35 84.5h62q2 -26 17.5 -42t41.5 -16t42 16t18 42h61q-2 -51 -35 -84.5z" />
    <glyph glyph-name="Aogonek" unicode="&#x104;" 
d="M512 -109q14 -13 38 -13h6l-1 -57q-6 -1 -14 -1q-49 0 -78.5 24t-29.5 63q0 51 47 93l-60 196h-242l-59 -196h-79l218 700h80l222 -700q-62 -34 -62 -78q0 -18 14 -31zM399 266l-101 331l-99 -331h200z" />
    <glyph glyph-name="aogonek" unicode="&#x105;" 
d="M449 458.5q54 -45.5 54 -130.5v-328h-6q-62 -34 -62 -78q0 -18 14 -31t38 -13h6l-1 -57q-6 -1 -14 -1q-49 0 -78.5 24t-29.5 63q0 64 67 107l-7 38q-47 -66 -159 -66q-56 0 -95.5 20t-59.5 54t-20 74q0 66 46.5 105t147.5 53l137 19v16q0 55 -31.5 84t-94.5 29
q-114 0 -128 -101l-69 17q15 71 65.5 109.5t131.5 38.5q94 0 148 -45.5zM427 249l-128 -18q-64 -9 -96.5 -30t-32.5 -63q0 -40 31.5 -63t85.5 -23q59 0 99.5 31.5t40.5 93.5v72z" />
    <glyph glyph-name="Cacute" unicode="&#x106;" 
d="M420.5 600q-39.5 43 -103.5 43q-90 0 -139.5 -77.5t-49.5 -215.5q0 -141 49.5 -217t141.5 -76q65 0 102.5 41t56.5 116l69 -24q-26 -97 -82 -150.5t-146 -53.5q-82 0 -143 43.5t-93.5 125.5t-32.5 195q0 110 33.5 192.5t94 127t139.5 44.5q90 0 148.5 -57t84.5 -160
l-70 -25q-20 85 -59.5 128zM346 891h106l-99 -118h-73z" />
    <glyph glyph-name="cacute" unicode="&#x107;" 
d="M450 28.5q-55 -42.5 -134 -42.5q-77 0 -133 36.5t-85 96t-29 126.5t30 126.5t86 96t131 36.5q81 0 136 -41.5t77 -107.5l-69 -24q-17 49 -54.5 76.5t-89.5 27.5q-50 0 -89 -24.5t-60.5 -68t-21.5 -97.5t21.5 -97.5t60.5 -68t89 -24.5q52 0 90 29t55 79l69 -24
q-25 -68 -80 -110.5zM355 685h106l-99 -118h-73z" />
    <glyph glyph-name="Ccircumflex" unicode="&#x108;" 
d="M420.5 600q-39.5 43 -103.5 43q-90 0 -139.5 -77.5t-49.5 -215.5q0 -141 49.5 -217t141.5 -76q65 0 102.5 41t56.5 116l69 -24q-26 -97 -82 -150.5t-146 -53.5q-82 0 -143 43.5t-93.5 125.5t-32.5 195q0 110 33.5 192.5t94 127t139.5 44.5q90 0 148.5 -57t84.5 -160
l-70 -25q-20 85 -59.5 128zM375 773l-59 64l-58 -64h-74l85 118h95l84 -118h-73z" />
    <glyph glyph-name="ccircumflex" unicode="&#x109;" 
d="M450 28.5q-55 -42.5 -134 -42.5q-77 0 -133 36.5t-85 96t-29 126.5t30 126.5t86 96t131 36.5q81 0 136 -41.5t77 -107.5l-69 -24q-17 49 -54.5 76.5t-89.5 27.5q-50 0 -89 -24.5t-60.5 -68t-21.5 -97.5t21.5 -97.5t60.5 -68t89 -24.5q52 0 90 29t55 79l69 -24
q-25 -68 -80 -110.5zM375 567l-59 64l-58 -64h-74l85 118h95l84 -118h-73z" />
    <glyph glyph-name="Cdotaccent" unicode="&#x10a;" 
d="M420.5 600q-39.5 43 -103.5 43q-90 0 -139.5 -77.5t-49.5 -215.5q0 -141 49.5 -217t141.5 -76q65 0 102.5 41t56.5 116l69 -24q-26 -97 -82 -150.5t-146 -53.5q-82 0 -143 43.5t-93.5 125.5t-32.5 195q0 110 33.5 192.5t94 127t139.5 44.5q90 0 148.5 -57t84.5 -160
l-70 -25q-20 85 -59.5 128zM275.5 873.5q16.5 16.5 41.5 16.5q23 0 39.5 -16.5t16.5 -40.5t-16.5 -40.5t-39.5 -16.5q-25 0 -41.5 16.5t-16.5 40.5t16.5 40.5z" />
    <glyph glyph-name="cdotaccent" unicode="&#x10b;" 
d="M450 28.5q-55 -42.5 -134 -42.5q-77 0 -133 36.5t-85 96t-29 126.5t30 126.5t86 96t131 36.5q81 0 136 -41.5t77 -107.5l-69 -24q-17 49 -54.5 76.5t-89.5 27.5q-50 0 -89 -24.5t-60.5 -68t-21.5 -97.5t21.5 -97.5t60.5 -68t89 -24.5q52 0 90 29t55 79l69 -24
q-25 -68 -80 -110.5zM275.5 666.5q16.5 16.5 41.5 16.5q23 0 39.5 -16.5t16.5 -40.5t-16.5 -40.5t-39.5 -16.5q-25 0 -41.5 16.5t-16.5 40.5t16.5 40.5z" />
    <glyph glyph-name="Ccaron" unicode="&#x10c;" 
d="M420.5 600q-39.5 43 -103.5 43q-90 0 -139.5 -77.5t-49.5 -215.5q0 -141 49.5 -217t141.5 -76q65 0 102.5 41t56.5 116l69 -24q-26 -97 -82 -150.5t-146 -53.5q-82 0 -143 43.5t-93.5 125.5t-32.5 195q0 110 33.5 192.5t94 127t139.5 44.5q90 0 148.5 -57t84.5 -160
l-70 -25q-20 85 -59.5 128zM449 895l-84 -118h-95l-85 118h74l58 -64l59 64h73z" />
    <glyph glyph-name="ccaron" unicode="&#x10d;" 
d="M450 28.5q-55 -42.5 -134 -42.5q-77 0 -133 36.5t-85 96t-29 126.5t30 126.5t86 96t131 36.5q81 0 136 -41.5t77 -107.5l-69 -24q-17 49 -54.5 76.5t-89.5 27.5q-50 0 -89 -24.5t-60.5 -68t-21.5 -97.5t21.5 -97.5t60.5 -68t89 -24.5q52 0 90 29t55 79l69 -24
q-25 -68 -80 -110.5zM448 685l-84 -118h-95l-85 118h74l58 -64l59 64h73z" />
    <glyph glyph-name="Dcaron" unicode="&#x10e;" 
d="M80 700h174q153 0 216 -100t63 -246q0 -95 -26.5 -175t-86 -129.5t-153.5 -49.5h-187v700zM261 70q104 0 149 81.5t45 203.5t-44.5 198.5t-158.5 76.5h-94v-560h103zM415 895l-84 -118h-95l-85 118h74l58 -64l59 64h73z" />
    <glyph glyph-name="dcaron" unicode="&#x10f;" 
d="M516 0h-64l-10 72q-60 -85 -166 -85q-69 0 -120.5 37.5t-79 97t-27.5 124.5q0 66 25.5 125t77 96t124.5 37q100 0 164 -85v281h76v-700zM566 700h87l-44 -118h-57zM421 343.5q-20 43.5 -56 68t-81 24.5q-73 0 -116 -53t-43 -137t43.5 -137.5t115.5 -53.5q45 0 80.5 25
t56 68.5t20.5 97.5t-20 97.5z" />
    <glyph glyph-name="Dcroat" unicode="&#x110;" 
d="M470 600q63 -100 63 -246q0 -95 -26.5 -175t-86 -129.5t-153.5 -49.5h-187v315h-59v70h59v315h174q153 0 216 -100zM410 151.5q45 81.5 45 203.5t-44.5 198.5t-158.5 76.5h-94v-245h123v-70h-123v-245h103q104 0 149 81.5z" />
    <glyph glyph-name="dcroat" unicode="&#x111;" 
d="M595 561h-65v-561h-64l-10 72q-27 -38 -70.5 -61.5t-103.5 -23.5q-71 0 -124 37.5t-81 97t-28 124.5q0 66 26.5 125t79 96t127.5 37q57 0 100 -23t72 -62v142h-144v61h144v78h76v-78h65v-61zM376.5 79.5q37.5 24.5 58 68t20.5 98.5t-20.5 98t-58 67.5t-86.5 24.5
q-48 0 -85.5 -24.5t-58.5 -67.5t-21 -98t21 -98.5t58.5 -68t85.5 -24.5q49 0 86.5 24.5z" />
    <glyph glyph-name="Emacron" unicode="&#x112;" 
d="M88 700h424v-70h-346v-242h305v-69h-305v-249h346v-70h-424v700zM207 863h196v-62h-196v62z" />
    <glyph glyph-name="emacron" unicode="&#x113;" 
d="M445.5 26q-55.5 -40 -138.5 -40q-73 0 -128.5 34.5t-85.5 94t-30 130.5q0 70 31.5 129.5t87.5 94.5t124 35t120 -30.5t81 -86.5t29 -130v-33h-398q2 -48 24 -87.5t59.5 -62.5t85.5 -23q56 0 95.5 27.5t52.5 67.5l67 -21q-21 -59 -76.5 -99zM465 287q-5 65 -48.5 108.5
t-109.5 43.5q-70 0 -114.5 -43t-53.5 -109h326zM209 657h196v-62h-196v62z" />
    <glyph glyph-name="Ebreve" unicode="&#x114;" 
d="M88 700h424v-70h-346v-242h305v-69h-305v-249h346v-70h-424v700zM390 801.5q-33 -33.5 -86 -33.5t-86 33.5t-35 84.5h62q2 -26 17.5 -42t41.5 -16t42 16t18 42h61q-2 -51 -35 -84.5z" />
    <glyph glyph-name="ebreve" unicode="&#x115;" 
d="M445.5 26q-55.5 -40 -138.5 -40q-73 0 -128.5 34.5t-85.5 94t-30 130.5q0 70 31.5 129.5t87.5 94.5t124 35t120 -30.5t81 -86.5t29 -130v-33h-398q2 -48 24 -87.5t59.5 -62.5t85.5 -23q56 0 95.5 27.5t52.5 67.5l67 -21q-21 -59 -76.5 -99zM465 287q-5 65 -48.5 108.5
t-109.5 43.5q-70 0 -114.5 -43t-53.5 -109h326zM392 601.5q-33 -33.5 -86 -33.5t-86 33.5t-35 84.5h62q2 -26 17.5 -42t41.5 -16t42 16t18 42h61q-2 -51 -35 -84.5z" />
    <glyph glyph-name="Edotaccent" unicode="&#x116;" 
d="M88 700h424v-70h-346v-242h305v-69h-305v-249h346v-70h-424v700zM262.5 873.5q16.5 16.5 41.5 16.5q23 0 39.5 -16.5t16.5 -40.5t-16.5 -40.5t-39.5 -16.5q-25 0 -41.5 16.5t-16.5 40.5t16.5 40.5z" />
    <glyph glyph-name="edotaccent" unicode="&#x117;" 
d="M445.5 26q-55.5 -40 -138.5 -40q-73 0 -128.5 34.5t-85.5 94t-30 130.5q0 70 31.5 129.5t87.5 94.5t124 35t120 -30.5t81 -86.5t29 -130v-33h-398q2 -48 24 -87.5t59.5 -62.5t85.5 -23q56 0 95.5 27.5t52.5 67.5l67 -21q-21 -59 -76.5 -99zM465 287q-5 65 -48.5 108.5
t-109.5 43.5q-70 0 -114.5 -43t-53.5 -109h326zM265.5 666.5q16.5 16.5 41.5 16.5q23 0 39.5 -16.5t16.5 -40.5t-16.5 -40.5t-39.5 -16.5q-25 0 -41.5 16.5t-16.5 40.5t16.5 40.5z" />
    <glyph glyph-name="Eogonek" unicode="&#x118;" 
d="M166 630v-242h305v-69h-305v-249h346v-70q-62 -34 -62 -78q0 -18 14 -31t38 -13h6l-1 -57q-6 -1 -14 -1q-49 0 -78.5 24t-29.5 63q0 54 48 93h-345v700h424v-70h-346z" />
    <glyph glyph-name="eogonek" unicode="&#x119;" 
d="M94.5 374.5q31.5 59.5 87.5 94.5t124 35t120 -30.5t81 -86.5t29 -130v-33h-398q2 -48 24 -87.5t59.5 -62.5t85.5 -23q56 0 95.5 27.5t52.5 67.5l67 -21q-13 -39 -43 -70t-71 -50q-44 -19 -60 -39.5t-16 -43.5q0 -18 14 -31t38 -13h6l-1 -57q-6 -1 -14 -1q-49 0 -78.5 24
t-29.5 63q0 44 33 79q-71 2 -125 37t-83 93.5t-29 128.5t31.5 129.5zM465 287q-5 65 -48.5 108.5t-109.5 43.5q-70 0 -114.5 -43t-53.5 -109h326z" />
    <glyph glyph-name="Ecaron" unicode="&#x11a;" 
d="M88 700h424v-70h-346v-242h305v-69h-305v-249h346v-70h-424v700zM436 895l-84 -118h-95l-85 118h74l58 -64l59 64h73z" />
    <glyph glyph-name="ecaron" unicode="&#x11b;" 
d="M445.5 26q-55.5 -40 -138.5 -40q-73 0 -128.5 34.5t-85.5 94t-30 130.5q0 70 31.5 129.5t87.5 94.5t124 35t120 -30.5t81 -86.5t29 -130v-33h-398q2 -48 24 -87.5t59.5 -62.5t85.5 -23q56 0 95.5 27.5t52.5 67.5l67 -21q-21 -59 -76.5 -99zM465 287q-5 65 -48.5 108.5
t-109.5 43.5q-70 0 -114.5 -43t-53.5 -109h326zM438 685l-84 -118h-95l-85 118h74l58 -64l59 64h73z" />
    <glyph glyph-name="Gcircumflex" unicode="&#x11c;" 
d="M489 0l-12 67q-15 -31 -60 -56t-111 -25q-80 0 -138 45.5t-88 128t-30 190.5q0 163 64.5 263.5t191.5 100.5q88 0 146.5 -51.5t82.5 -139.5l-72 -26q-15 66 -53.5 106t-101.5 40q-87 0 -133.5 -82.5t-46.5 -210.5q0 -137 42.5 -215t135.5 -78q89 0 127.5 69.5t40.5 176.5
h-166v68h242v-371h-61zM364 773l-59 64l-58 -64h-74l85 118h95l84 -118h-73z" />
    <glyph glyph-name="gcircumflex" unicode="&#x11d;" 
d="M166 31q-53 36 -79.5 94t-26.5 123q0 64 27.5 123t80.5 96t124 37q60 0 102.5 -23t68.5 -61l12 70h64v-491q0 -58 -24 -108t-77.5 -81.5t-137.5 -31.5q-90 0 -143.5 42.5t-73.5 114.5l72 17q28 -108 145 -108q82 0 122.5 40.5t40.5 112.5v88q-23 -39 -67 -64.5
t-103 -25.5q-74 0 -127 36zM418 114.5q45 51.5 45 133.5q0 55 -20.5 97.5t-58 66.5t-84.5 24q-74 0 -119 -52t-45 -136q0 -82 46 -133.5t120 -51.5q71 0 116 51.5zM358 567l-59 64l-58 -64h-74l85 118h95l84 -118h-73z" />
    <glyph glyph-name="Gbreve" unicode="&#x11e;" 
d="M489 0l-12 67q-15 -31 -60 -56t-111 -25q-80 0 -138 45.5t-88 128t-30 190.5q0 163 64.5 263.5t191.5 100.5q88 0 146.5 -51.5t82.5 -139.5l-72 -26q-15 66 -53.5 106t-101.5 40q-87 0 -133.5 -82.5t-46.5 -210.5q0 -137 42.5 -215t135.5 -78q89 0 127.5 69.5t40.5 176.5
h-166v68h242v-371h-61zM392 801.5q-33 -33.5 -86 -33.5t-86 33.5t-35 84.5h62q2 -26 17.5 -42t41.5 -16t42 16t18 42h61q-2 -51 -35 -84.5z" />
    <glyph glyph-name="gbreve" unicode="&#x11f;" 
d="M166 31q-53 36 -79.5 94t-26.5 123q0 64 27.5 123t80.5 96t124 37q60 0 102.5 -23t68.5 -61l12 70h64v-491q0 -58 -24 -108t-77.5 -81.5t-137.5 -31.5q-90 0 -143.5 42.5t-73.5 114.5l72 17q28 -108 145 -108q82 0 122.5 40.5t40.5 112.5v88q-23 -39 -67 -64.5
t-103 -25.5q-74 0 -127 36zM418 114.5q45 51.5 45 133.5q0 55 -20.5 97.5t-58 66.5t-84.5 24q-74 0 -119 -52t-45 -136q0 -82 46 -133.5t120 -51.5q71 0 116 51.5zM385 601.5q-33 -33.5 -86 -33.5t-86 33.5t-35 84.5h62q2 -26 17.5 -42t41.5 -16t42 16t18 42h61
q-2 -51 -35 -84.5z" />
    <glyph glyph-name="Gdotaccent" unicode="&#x120;" 
d="M489 0l-12 67q-15 -31 -60 -56t-111 -25q-80 0 -138 45.5t-88 128t-30 190.5q0 163 64.5 263.5t191.5 100.5q88 0 146.5 -51.5t82.5 -139.5l-72 -26q-15 66 -53.5 106t-101.5 40q-87 0 -133.5 -82.5t-46.5 -210.5q0 -137 42.5 -215t135.5 -78q89 0 127.5 69.5t40.5 176.5
h-166v68h242v-371h-61zM264.5 873.5q16.5 16.5 41.5 16.5q23 0 39.5 -16.5t16.5 -40.5t-16.5 -40.5t-39.5 -16.5q-25 0 -41.5 16.5t-16.5 40.5t16.5 40.5z" />
    <glyph glyph-name="gdotaccent" unicode="&#x121;" 
d="M166 31q-53 36 -79.5 94t-26.5 123q0 64 27.5 123t80.5 96t124 37q60 0 102.5 -23t68.5 -61l12 70h64v-491q0 -58 -24 -108t-77.5 -81.5t-137.5 -31.5q-90 0 -143.5 42.5t-73.5 114.5l72 17q28 -108 145 -108q82 0 122.5 40.5t40.5 112.5v88q-23 -39 -67 -64.5
t-103 -25.5q-74 0 -127 36zM418 114.5q45 51.5 45 133.5q0 55 -20.5 97.5t-58 66.5t-84.5 24q-74 0 -119 -52t-45 -136q0 -82 46 -133.5t120 -51.5q71 0 116 51.5zM258.5 666.5q16.5 16.5 41.5 16.5q23 0 39.5 -16.5t16.5 -40.5t-16.5 -40.5t-39.5 -16.5q-25 0 -41.5 16.5
t-16.5 40.5t16.5 40.5z" />
    <glyph glyph-name="Gcommaaccent" unicode="&#x122;" 
d="M489 0l-12 67q-15 -31 -60 -56t-111 -25q-80 0 -138 45.5t-88 128t-30 190.5q0 163 64.5 263.5t191.5 100.5q88 0 146.5 -51.5t82.5 -139.5l-72 -26q-15 66 -53.5 106t-101.5 40q-87 0 -133.5 -82.5t-46.5 -210.5q0 -137 42.5 -215t135.5 -78q89 0 127.5 69.5t40.5 176.5
h-166v68h242v-371h-61zM348.5 -60q15.5 -15 15.5 -43q0 -25 -15 -54t-40 -52l-30 23q19 24 24 44q-21 4 -32 16t-11 30q0 22 13.5 36.5t36.5 14.5t38.5 -15z" />
    <glyph glyph-name="gcommaaccent" unicode="&#x123;" 
d="M166 31q-53 36 -79.5 94t-26.5 123q0 64 27.5 123t80.5 96t124 37q60 0 102.5 -23t68.5 -61l12 70h64v-491q0 -58 -24 -108t-77.5 -81.5t-137.5 -31.5q-90 0 -143.5 42.5t-73.5 114.5l72 17q28 -108 145 -108q82 0 122.5 40.5t40.5 112.5v88q-23 -39 -67 -64.5
t-103 -25.5q-74 0 -127 36zM418 114.5q45 51.5 45 133.5q0 55 -20.5 97.5t-58 66.5t-84.5 24q-74 0 -119 -52t-45 -136q0 -82 46 -133.5t120 -51.5q71 0 116 51.5zM261.5 580q-15.5 15 -15.5 43q0 25 15 54t40 52l30 -23q-19 -24 -24 -44q21 -4 32 -16t11 -30
q0 -22 -13.5 -36.5t-36.5 -14.5t-38.5 15z" />
    <glyph glyph-name="Hcircumflex" unicode="&#x124;" 
d="M75 700h78v-306h294v306h78v-700h-78v323h-294v-323h-78v700zM358 773l-59 64l-58 -64h-74l85 118h95l84 -118h-73z" />
    <glyph glyph-name="hcircumflex" unicode="&#x125;" 
d="M140 837l-58 -64h-74l85 118h95l84 -118h-73zM457 458.5q46 -45.5 46 -137.5v-321h-76v303q0 73 -30.5 101.5t-84.5 28.5q-37 0 -69 -18.5t-51.5 -54t-19.5 -82.5v-278h-76v700h76v-275q58 79 163 79q76 0 122 -45.5z" />
    <glyph glyph-name="Hbar" unicode="&#x126;" 
d="M573 517h-47v-517h-78v323h-294v-323h-78v517h-48v70h48v113h78v-113h294v113h78v-113h47v-70zM448 517h-294v-123h294v123z" />
    <glyph glyph-name="hbar" unicode="&#x127;" 
d="M458 458.5q46 -45.5 46 -137.5v-321h-76v303q0 73 -30.5 101.5t-84.5 28.5q-37 0 -69 -18.5t-51.5 -54t-19.5 -82.5v-278h-76v561h-56v61h56v78h76v-78h153v-61h-153v-136q58 79 163 79q76 0 122 -45.5z" />
    <glyph glyph-name="Itilde" unicode="&#x128;" 
d="M339 630v-560h186v-70h-450v70h186v560h-186v70h450v-70h-186zM156 814q14 34 37 50t49 16q19 0 32 -4.5t34 -15.5q14 -8 24 -12t22 -4q27 0 45 39l46 -33q-25 -67 -89 -67q-19 0 -33 5t-32 15q-15 8 -24 11.5t-20 3.5q-28 0 -45 -35z" />
    <glyph glyph-name="itilde" unicode="&#x129;" 
d="M519 69v-69h-437v69h182v352h-139v69h215v-421h179zM162 610q14 34 37 50t49 16q19 0 32 -4.5t34 -15.5q14 -8 24 -12t22 -4q27 0 45 39l46 -33q-12 -33 -35.5 -50t-53.5 -17q-19 0 -33 5t-32 15q-15 8 -24 11.5t-20 3.5q-28 0 -45 -35z" />
    <glyph glyph-name="Imacron" unicode="&#x12a;" 
d="M339 630v-560h186v-70h-450v70h186v560h-186v70h450v-70h-186zM203 863h196v-62h-196v62z" />
    <glyph glyph-name="imacron" unicode="&#x12b;" 
d="M519 69v-69h-437v69h182v352h-139v69h215v-421h179zM205 657h196v-62h-196v62z" />
    <glyph glyph-name="Ibreve" unicode="&#x12c;" 
d="M339 630v-560h186v-70h-450v70h186v560h-186v70h450v-70h-186zM386 801.5q-33 -33.5 -86 -33.5t-86 33.5t-35 84.5h62q2 -26 17.5 -42t41.5 -16t42 16t18 42h61q-2 -51 -35 -84.5z" />
    <glyph glyph-name="ibreve" unicode="&#x12d;" 
d="M519 69v-69h-437v69h182v352h-139v69h215v-421h179zM388 601.5q-33 -33.5 -86 -33.5t-86 33.5t-35 84.5h62q2 -26 17.5 -42t41.5 -16t42 16t18 42h61q-2 -51 -35 -84.5z" />
    <glyph glyph-name="Iogonek" unicode="&#x12e;" 
d="M339 630v-560h186v-70h-189q-62 -34 -62 -78q0 -18 14 -31t38 -13h6l-1 -57q-6 -1 -14 -1q-49 0 -78.5 24t-29.5 63q0 54 48 93h-182v70h186v560h-186v70h450v-70h-186z" />
    <glyph glyph-name="iogonek" unicode="&#x12f;" 
d="M261.5 585.5q-16.5 16.5 -16.5 40.5t16.5 40.5t41.5 16.5q23 0 39.5 -16.5t16.5 -40.5t-16.5 -40.5t-39.5 -16.5q-25 0 -41.5 16.5zM519 69v-69h-178q-62 -34 -62 -78q0 -18 14 -31t38 -13h6l-1 -57q-6 -1 -14 -1q-49 0 -78.5 24t-29.5 63q0 54 48 93h-180v69h182v352
h-139v69h215v-421h179z" />
    <glyph glyph-name="Idotaccent" unicode="&#x130;" 
d="M339 630v-560h186v-70h-450v70h186v560h-186v70h450v-70h-186zM258.5 873.5q16.5 16.5 41.5 16.5q23 0 39.5 -16.5t16.5 -40.5t-16.5 -40.5t-39.5 -16.5q-25 0 -41.5 16.5t-16.5 40.5t16.5 40.5z" />
    <glyph glyph-name="dotlessi" unicode="&#x131;" 
d="M519 69v-69h-437v69h182v352h-139v69h215v-421h179z" />
    <glyph glyph-name="ij" unicode="&#x133;" 
d="M167.5 585.5q-16.5 16.5 -16.5 40.5t16.5 40.5t41.5 16.5q23 0 39.5 -16.5t16.5 -40.5t-16.5 -40.5t-39.5 -16.5q-25 0 -41.5 16.5zM437.5 585.5q-16.5 16.5 -16.5 40.5t16.5 40.5t41.5 16.5q23 0 39.5 -16.5t16.5 -40.5t-16.5 -40.5t-39.5 -16.5q-25 0 -41.5 16.5zM47 0
v69h125v352h-125v69h201v-421h102v-69h-303zM527 490v-548q0 -77 -47.5 -121.5t-124.5 -44.5q-116 0 -157 101l65 28q20 -61 92 -61q46 0 71 25t25 74v477h-124v70h200z" />
    <glyph glyph-name="Jcircumflex" unicode="&#x134;" 
d="M497 194q0 -100 -52.5 -154t-143.5 -54q-88 0 -141 50.5t-54 134.5v26l77 -13v-10q0 -53 31 -85t86 -32q57 0 88 35t31 99v439h-277v70h355v-506zM395 773l-59 64l-58 -64h-74l85 118h95l84 -118h-73z" />
    <glyph glyph-name="jcircumflex" unicode="&#x135;" 
d="M250 563h-74l85 118h95l84 -118h-73l-59 64zM456 -58q0 -77 -47.5 -121.5t-124.5 -44.5q-116 0 -157 101l65 28q20 -61 92 -61q46 0 71 25t25 74v477h-243v70h319v-548z" />
    <glyph glyph-name="Kcommaaccent" unicode="&#x136;" 
d="M217 353l-72 -78v-275h-78v700h78v-320l294 320h96l-266 -290l276 -410h-92zM339.5 -60q15.5 -15 15.5 -43q0 -25 -15 -54t-40 -52l-30 23q19 24 24 44q-21 4 -32 16t-11 30q0 22 13.5 36.5t36.5 14.5t38.5 -15z" />
    <glyph glyph-name="kcommaaccent" unicode="&#x137;" 
d="M250 242l-78 -79v-163h-76v700h76v-436l227 227h97l-193 -196l217 -295h-90zM327.5 -60q15.5 -15 15.5 -43q0 -25 -15 -54t-40 -52l-30 23q19 24 24 44q-21 4 -32 16t-11 30q0 22 13.5 36.5t36.5 14.5t38.5 -15z" />
    <glyph glyph-name="kgreenlandic" unicode="&#x138;" 
d="M250 242l-78 -79v-163h-76v490h76v-226l227 227h97l-193 -196l217 -295h-90z" />
    <glyph glyph-name="Lacute" unicode="&#x139;" 
d="M90 700h78v-629h342v-71h-420v700zM158 891h106l-99 -118h-73z" />
    <glyph glyph-name="lacute" unicode="&#x13a;" 
d="M532 87q-41 -101 -157 -101q-77 0 -124.5 44.5t-47.5 121.5v480h-135v68h211v-547q0 -49 25 -74t71 -25q72 0 92 61zM275 891h106l-99 -118h-73z" />
    <glyph glyph-name="Lcommaaccent" unicode="&#x13b;" 
d="M90 700h78v-629h342v-71h-420v700zM340.5 -60q15.5 -15 15.5 -43q0 -25 -15 -54t-40 -52l-30 23q19 24 24 44q-21 4 -32 16t-11 30q0 22 13.5 36.5t36.5 14.5t38.5 -15z" />
    <glyph glyph-name="lcommaaccent" unicode="&#x13c;" 
d="M532 87q-41 -101 -157 -101q-77 0 -124.5 44.5t-47.5 121.5v480h-135v68h211v-547q0 -49 25 -74t71 -25q72 0 92 61zM387.5 -60q15.5 -15 15.5 -43q0 -25 -15 -54t-40 -52l-30 23q19 24 24 44q-21 4 -32 16t-11 30q0 22 13.5 36.5t36.5 14.5t38.5 -15z" />
    <glyph glyph-name="Lcaron" unicode="&#x13d;" 
d="M90 700h78v-629h342v-71h-420v700zM259 700h88l-51 -118h-58z" />
    <glyph glyph-name="lcaron" unicode="&#x13e;" 
d="M532 87q-41 -101 -157 -101q-77 0 -124.5 44.5t-47.5 121.5v480h-135v68h211v-547q0 -49 25 -74t71 -25q72 0 92 61zM372 582h-57l14 118h87z" />
    <glyph glyph-name="Ldot" unicode="&#x13f;" 
d="M90 700h78v-629h342v-71h-420v700zM387 428q17 17 42 17t41.5 -17t16.5 -41q0 -25 -16.5 -42t-41.5 -17t-42 17t-17 42q0 24 17 41z" />
    <glyph glyph-name="ldot" unicode="&#x140;" 
d="M532 87q-41 -101 -157 -101q-77 0 -124.5 44.5t-47.5 121.5v480h-135v68h211v-547q0 -49 25 -74t71 -25q72 0 92 61zM498 432q17 17 42 17t41.5 -17t16.5 -41q0 -25 -16.5 -42t-41.5 -17t-42 17t-17 42q0 24 17 41z" />
    <glyph glyph-name="Lslash" unicode="&#x141;" 
d="M524 71v-71h-375v285l-59 -31l-30 60l89 47v339h78v-297l129 68l30 -59l-159 -85v-256h297z" />
    <glyph glyph-name="lslash" unicode="&#x142;" 
d="M532 87q-41 -101 -157 -101q-77 0 -124.5 44.5t-47.5 121.5v152l-97 -49l-26 53l123 63v261h-135v68h211v-290l99 50l27 -53l-126 -64v-190q0 -49 25 -74t71 -25q72 0 92 61z" />
    <glyph glyph-name="Nacute" unicode="&#x143;" 
d="M75 700h77l297 -553v553h76v-700h-76l-298 553v-553h-76v700zM329 891h106l-99 -118h-73z" />
    <glyph glyph-name="nacute" unicode="&#x144;" 
d="M428 303q0 72 -31 101t-85 29q-37 0 -69 -18.5t-51.5 -53.5t-19.5 -82v-279h-76v490h64l11 -66q59 80 164 80q77 0 123 -45.5t46 -137.5v-321h-76v303zM356 685h106l-99 -118h-73z" />
    <glyph glyph-name="Ncommaaccent" unicode="&#x145;" 
d="M75 700h77l297 -553v553h76v-700h-76l-298 553v-553h-76v700zM340.5 -60q15.5 -15 15.5 -43q0 -25 -15 -54t-40 -52l-30 23q19 24 24 44q-21 4 -32 16t-11 30q0 22 13.5 36.5t36.5 14.5t38.5 -15z" />
    <glyph glyph-name="ncommaaccent" unicode="&#x146;" 
d="M428 303q0 72 -31 101t-85 29q-37 0 -69 -18.5t-51.5 -53.5t-19.5 -82v-279h-76v490h64l11 -66q59 80 164 80q77 0 123 -45.5t46 -137.5v-321h-76v303zM340.5 -60q15.5 -15 15.5 -43q0 -25 -15 -54t-40 -52l-30 23q19 24 24 44q-21 4 -32 16t-11 30q0 22 13.5 36.5
t36.5 14.5t38.5 -15z" />
    <glyph glyph-name="Ncaron" unicode="&#x147;" 
d="M75 700h77l297 -553v553h76v-700h-76l-298 553v-553h-76v700zM432 895l-84 -118h-95l-85 118h74l58 -64l59 64h73z" />
    <glyph glyph-name="ncaron" unicode="&#x148;" 
d="M428 303q0 72 -31 101t-85 29q-37 0 -69 -18.5t-51.5 -53.5t-19.5 -82v-279h-76v490h64l11 -66q59 80 164 80q77 0 123 -45.5t46 -137.5v-321h-76v303zM449 685l-84 -118h-95l-85 118h74l58 -64l59 64h73z" />
    <glyph glyph-name="napostrophe" unicode="&#x149;" 
d="M134.5 686q15.5 -15 15.5 -43q0 -25 -15 -54t-40 -52l-30 23q19 24 24 44q-21 4 -32 16t-11 30q0 22 13.5 36.5t36.5 14.5t38.5 -15zM428 303q0 72 -31 101t-85 29q-37 0 -69 -18.5t-51.5 -53.5t-19.5 -82v-279h-76v490h64l11 -66q59 80 164 80q77 0 123 -45.5t46 -137.5
v-321h-76v303z" />
    <glyph glyph-name="Eng" unicode="&#x14a;" 
d="M525 700v-758q0 -77 -47.5 -121.5t-124.5 -44.5q-116 0 -157 101l65 28q20 -61 92 -61q46 0 71 25t25 74v57l-298 553v-553h-76v700h77l297 -553v553h76z" />
    <glyph glyph-name="eng" unicode="&#x14b;" 
d="M458 458.5q46 -45.5 46 -137.5v-415q0 -56 -35 -93t-89 -37q-60 0 -95 35l39 53q18 -18 48 -18q56 0 56 66v391q0 72 -31 101t-85 29q-37 0 -69 -18.5t-51.5 -53.5t-19.5 -82v-279h-76v490h64l11 -66q59 80 164 80q77 0 123 -45.5z" />
    <glyph glyph-name="Omacron" unicode="&#x14c;" 
d="M122.5 624.5q62.5 90.5 177.5 90.5q116 0 178 -90t62 -274q0 -178 -62.5 -271t-177.5 -93q-114 0 -177 93t-63 271q0 183 62.5 273.5zM420.5 569.5q-41.5 74.5 -120.5 74.5q-162 0 -162 -293q0 -152 41 -222.5t121 -70.5q81 0 121.5 70.5t40.5 222.5q0 144 -41.5 218.5z
M203 863h196v-62h-196v62z" />
    <glyph glyph-name="omacron" unicode="&#x14d;" 
d="M520.5 119.5q-30.5 -59.5 -87.5 -96.5t-134 -37t-134 37t-86.5 96.5t-29.5 125.5t30.5 125.5t87.5 96.5t132 37q77 0 134 -37t87.5 -96.5t30.5 -125.5t-30.5 -125.5zM147 148.5q22 -43.5 62 -68.5t90 -25q51 0 91 25t62.5 68.5t22.5 96.5q0 54 -22.5 97t-62.5 68t-91 25
t-90.5 -25t-61.5 -68t-22 -97q0 -53 22 -96.5zM203 657h196v-62h-196v62z" />
    <glyph glyph-name="Obreve" unicode="&#x14e;" 
d="M122.5 624.5q62.5 90.5 177.5 90.5q116 0 178 -90t62 -274q0 -178 -62.5 -271t-177.5 -93q-114 0 -177 93t-63 271q0 183 62.5 273.5zM420.5 569.5q-41.5 74.5 -120.5 74.5q-162 0 -162 -293q0 -152 41 -222.5t121 -70.5q81 0 121.5 70.5t40.5 222.5q0 144 -41.5 218.5z
M386 801.5q-33 -33.5 -86 -33.5t-86 33.5t-35 84.5h62q2 -26 17.5 -42t41.5 -16t42 16t18 42h61q-2 -51 -35 -84.5z" />
    <glyph glyph-name="obreve" unicode="&#x14f;" 
d="M520.5 119.5q-30.5 -59.5 -87.5 -96.5t-134 -37t-134 37t-86.5 96.5t-29.5 125.5t30.5 125.5t87.5 96.5t132 37q77 0 134 -37t87.5 -96.5t30.5 -125.5t-30.5 -125.5zM147 148.5q22 -43.5 62 -68.5t90 -25q51 0 91 25t62.5 68.5t22.5 96.5q0 54 -22.5 97t-62.5 68t-91 25
t-90.5 -25t-61.5 -68t-22 -97q0 -53 22 -96.5zM386 601.5q-33 -33.5 -86 -33.5t-86 33.5t-35 84.5h62q2 -26 17.5 -42t41.5 -16t42 16t18 42h61q-2 -51 -35 -84.5z" />
    <glyph glyph-name="Ohungarumlaut" unicode="&#x150;" 
d="M122.5 624.5q62.5 90.5 177.5 90.5q116 0 178 -90t62 -274q0 -178 -62.5 -271t-177.5 -93q-114 0 -177 93t-63 271q0 183 62.5 273.5zM420.5 569.5q-41.5 74.5 -120.5 74.5q-162 0 -162 -293q0 -152 41 -222.5t121 -70.5q81 0 121.5 70.5t40.5 222.5q0 144 -41.5 218.5z
M200 773l55 118h96l-89 -118h-62zM328 773l55 118h96l-89 -118h-62z" />
    <glyph glyph-name="ohungarumlaut" unicode="&#x151;" 
d="M520.5 119.5q-30.5 -59.5 -87.5 -96.5t-134 -37t-134 37t-86.5 96.5t-29.5 125.5t30.5 125.5t87.5 96.5t132 37q77 0 134 -37t87.5 -96.5t30.5 -125.5t-30.5 -125.5zM147 148.5q22 -43.5 62 -68.5t90 -25q51 0 91 25t62.5 68.5t22.5 96.5q0 54 -22.5 97t-62.5 68t-91 25
t-90.5 -25t-61.5 -68t-22 -97q0 -53 22 -96.5zM195 567l55 118h96l-89 -118h-62zM323 567l55 118h96l-89 -118h-62z" />
    <glyph glyph-name="OE" unicode="&#x152;" 
d="M390 630v-242h129v-69h-129v-249h152v-70h-230v78q-39 -85 -116 -85q-76 0 -114.5 87t-38.5 270q0 187 39 272t117 85q77 0 113 -73v66h230v-70h-152zM261.5 137q20.5 67 20.5 213q0 280 -83 280q-40 0 -59 -67t-19 -213q0 -147 18.5 -213.5t59.5 -66.5q42 0 62.5 67z
" />
    <glyph glyph-name="oe" unicode="&#x153;" 
d="M553 224h-221q0 -173 77 -173q32 0 47 25.5t21 69.5l66 -15q-8 -64 -41 -104.5t-96 -40.5q-79 0 -114 62q-38 -62 -103 -62q-74 0 -106 65t-32 194q0 119 32.5 189t113.5 70q68 0 102 -66q39 66 111 66q143 0 143 -247v-33zM244 96.5q12 45.5 12 148.5q0 100 -13 147
t-50 47q-39 0 -54 -48t-15 -146q0 -101 13 -147.5t54 -46.5t53 45.5zM482 287q0 152 -76 152q-39 0 -57 -41t-18 -111h151z" />
    <glyph glyph-name="Racute" unicode="&#x154;" 
d="M285 297h-133v-297h-78v700h219q106 0 161.5 -55.5t55.5 -145.5q0 -80 -42.5 -130t-101.5 -63l168 -306h-84zM297 366q61 0 98 33t37 100t-38.5 99t-100.5 32h-141v-264h145zM310 891h106l-99 -118h-73z" />
    <glyph glyph-name="racute" unicode="&#x155;" 
d="M474 484q35 -20 55.5 -50t25.5 -61l-71 -25q-4 32 -30.5 58.5t-73.5 26.5q-57 0 -92 -41t-35 -117v-206h126v-69h-320v69h118v352h-118v69h182l8 -51q17 25 55 45t87 20q48 0 83 -20zM353 685h106l-99 -118h-73z" />
    <glyph glyph-name="Rcommaaccent" unicode="&#x156;" 
d="M285 297h-133v-297h-78v700h219q106 0 161.5 -55.5t55.5 -145.5q0 -80 -42.5 -130t-101.5 -63l168 -306h-84zM297 366q61 0 98 33t37 100t-38.5 99t-100.5 32h-141v-264h145zM333.5 -60q15.5 -15 15.5 -43q0 -25 -15 -54t-40 -52l-30 23q19 24 24 44q-21 4 -32 16t-11 30
q0 22 13.5 36.5t36.5 14.5t38.5 -15z" />
    <glyph glyph-name="rcommaaccent" unicode="&#x157;" 
d="M474 484q35 -20 55.5 -50t25.5 -61l-71 -25q-4 32 -30.5 58.5t-73.5 26.5q-57 0 -92 -41t-35 -117v-206h126v-69h-320v69h118v352h-118v69h182l8 -51q17 25 55 45t87 20q48 0 83 -20zM252.5 -60q15.5 -15 15.5 -43q0 -25 -15 -54t-40 -52l-30 23q19 24 24 44
q-21 4 -32 16t-11 30q0 22 13.5 36.5t36.5 14.5t38.5 -15z" />
    <glyph glyph-name="Rcaron" unicode="&#x158;" 
d="M285 297h-133v-297h-78v700h219q106 0 161.5 -55.5t55.5 -145.5q0 -80 -42.5 -130t-101.5 -63l168 -306h-84zM297 366q61 0 98 33t37 100t-38.5 99t-100.5 32h-141v-264h145zM413 895l-84 -118h-95l-85 118h74l58 -64l59 64h73z" />
    <glyph glyph-name="rcaron" unicode="&#x159;" 
d="M474 484q35 -20 55.5 -50t25.5 -61l-71 -25q-4 32 -30.5 58.5t-73.5 26.5q-57 0 -92 -41t-35 -117v-206h126v-69h-320v69h118v352h-118v69h182l8 -51q17 25 55 45t87 20q48 0 83 -20zM446 685l-84 -118h-95l-85 118h74l58 -64l59 64h73z" />
    <glyph glyph-name="Sacute" unicode="&#x15a;" 
d="M59 177l72 22q19 -71 61.5 -106.5t114.5 -35.5q69 0 113 34t44 97q0 29 -10 52t-44 44t-102 35q-112 23 -169.5 68t-57.5 131q0 60 30 104.5t81 68.5t113 24q172 0 222 -182l-71 -20q-15 63 -51 97.5t-100 34.5q-66 0 -107 -34t-41 -93q0 -53 39 -79t127 -45
q113 -25 165 -72t52 -134q0 -60 -31 -105.5t-84 -70.5t-118 -25q-193 0 -248 190zM329 891h106l-99 -118h-73z" />
    <glyph glyph-name="sacute" unicode="&#x15b;" 
d="M429 340q-9 43 -39 70t-84 27q-62 0 -89 -22.5t-27 -53.5q0 -34 33 -50.5t99 -27.5q88 -15 135.5 -49t47.5 -101q0 -44 -26.5 -77.5t-72 -51.5t-100.5 -18q-166 0 -212 152l70 21q15 -47 45.5 -76.5t96.5 -29.5q56 0 90.5 20.5t34.5 58.5q0 18 -7.5 32t-34.5 27.5
t-81 21.5q-90 15 -140.5 47.5t-50.5 99.5q0 68 54.5 106t134.5 38q78 0 127 -38t66 -108zM345 685h106l-99 -118h-73z" />
    <glyph glyph-name="Scircumflex" unicode="&#x15c;" 
d="M59 177l72 22q19 -71 61.5 -106.5t114.5 -35.5q69 0 113 34t44 97q0 29 -10 52t-44 44t-102 35q-112 23 -169.5 68t-57.5 131q0 60 30 104.5t81 68.5t113 24q172 0 222 -182l-71 -20q-15 63 -51 97.5t-100 34.5q-66 0 -107 -34t-41 -93q0 -53 39 -79t127 -45
q113 -25 165 -72t52 -134q0 -60 -31 -105.5t-84 -70.5t-118 -25q-193 0 -248 190zM358 773l-59 64l-58 -64h-74l85 118h95l84 -118h-73z" />
    <glyph glyph-name="scircumflex" unicode="&#x15d;" 
d="M429 340q-9 43 -39 70t-84 27q-62 0 -89 -22.5t-27 -53.5q0 -34 33 -50.5t99 -27.5q88 -15 135.5 -49t47.5 -101q0 -44 -26.5 -77.5t-72 -51.5t-100.5 -18q-166 0 -212 152l70 21q15 -47 45.5 -76.5t96.5 -29.5q56 0 90.5 20.5t34.5 58.5q0 18 -7.5 32t-34.5 27.5
t-81 21.5q-90 15 -140.5 47.5t-50.5 99.5q0 68 54.5 106t134.5 38q78 0 127 -38t66 -108zM365 567l-59 64l-58 -64h-74l85 118h95l84 -118h-73z" />
    <glyph glyph-name="Scedilla" unicode="&#x15e;" 
d="M511.5 86q-28.5 -44 -78 -69.5t-110.5 -29.5l-15 -28q37 -2 59 -22.5t22 -59.5q0 -38 -25 -61.5t-65 -23.5q-35 0 -60 20t-27 49l50 17q0 -17 10 -26.5t27 -9.5q16 0 26 10t10 26q0 15 -10 24.5t-26 9.5q-14 0 -23 -6l-41 28l31 55q-158 19 -207 188l72 22
q19 -71 61.5 -106.5t114.5 -35.5q69 0 113 34t44 97q0 29 -10 52t-44 44t-102 35q-112 23 -169.5 68t-57.5 131q0 60 30 104.5t81 68.5t113 24q172 0 222 -182l-71 -20q-15 63 -51 97.5t-100 34.5q-66 0 -107 -34t-41 -93q0 -53 39 -79t127 -45q113 -25 165 -72t52 -134
q0 -58 -28.5 -102z" />
    <glyph glyph-name="scedilla" unicode="&#x15f;" 
d="M459 36q-46 -39 -117 -48l-16 -29q37 -2 59 -22.5t22 -59.5q0 -38 -25 -61.5t-65 -23.5q-35 0 -60 20t-27 49l50 17q0 -17 10 -26.5t27 -9.5q16 0 26 10t10 26q0 15 -10 24.5t-26 9.5q-14 0 -23 -6l-41 28l30 53q-146 11 -189 151l70 21q15 -47 45.5 -76.5t96.5 -29.5
q56 0 90.5 20.5t34.5 58.5q0 18 -7.5 32t-34.5 27.5t-81 21.5q-90 15 -140.5 47.5t-50.5 99.5q0 68 54.5 106t134.5 38q78 0 127 -38t66 -108l-70 -18q-9 43 -39 70t-84 27q-62 0 -89 -22.5t-27 -53.5q0 -34 33 -50.5t99 -27.5q88 -15 135.5 -49t47.5 -101q0 -58 -46 -97z
" />
    <glyph glyph-name="Scaron" unicode="&#x160;" 
d="M59 177l72 22q19 -71 61.5 -106.5t114.5 -35.5q69 0 113 34t44 97q0 29 -10 52t-44 44t-102 35q-112 23 -169.5 68t-57.5 131q0 60 30 104.5t81 68.5t113 24q172 0 222 -182l-71 -20q-15 63 -51 97.5t-100 34.5q-66 0 -107 -34t-41 -93q0 -53 39 -79t127 -45
q113 -25 165 -72t52 -134q0 -60 -31 -105.5t-84 -70.5t-118 -25q-193 0 -248 190zM432 895l-84 -118h-95l-85 118h74l58 -64l59 64h73z" />
    <glyph glyph-name="scaron" unicode="&#x161;" 
d="M429 340q-9 43 -39 70t-84 27q-62 0 -89 -22.5t-27 -53.5q0 -34 33 -50.5t99 -27.5q88 -15 135.5 -49t47.5 -101q0 -44 -26.5 -77.5t-72 -51.5t-100.5 -18q-166 0 -212 152l70 21q15 -47 45.5 -76.5t96.5 -29.5q56 0 90.5 20.5t34.5 58.5q0 18 -7.5 32t-34.5 27.5
t-81 21.5q-90 15 -140.5 47.5t-50.5 99.5q0 68 54.5 106t134.5 38q78 0 127 -38t66 -108zM438 685l-84 -118h-95l-85 118h74l58 -64l59 64h73z" />
    <glyph glyph-name="uni0162" unicode="&#x162;" 
d="M331 0l-22 -41q37 -2 59 -22.5t22 -59.5q0 -38 -25 -61.5t-65 -23.5q-35 0 -60 20t-27 49l50 17q0 -17 10 -26.5t27 -9.5q16 0 26 10t10 26q0 15 -10 24.5t-26 9.5q-14 0 -23 -6l-41 28l37 66h-12v629h-201v71h480v-71h-201v-629h-8z" />
    <glyph glyph-name="uni0163" unicode="&#x163;" 
d="M474 21q-30 -28 -87 -34l-15 -28q37 -2 59 -22.5t22 -59.5q0 -38 -25 -61.5t-65 -23.5q-35 0 -60 20t-27 49l50 17q0 -17 10 -26.5t27 -9.5q16 0 26 10t10 26q0 15 -10 24.5t-26 9.5q-14 0 -23 -6l-41 28l31 54q-64 10 -101.5 53t-37.5 111v270h-135v68h135v118h76v-118
h234v-68h-234v-269q0 -49 25 -74t71 -25q72 0 92 61l65 -28q-16 -38 -46 -66z" />
    <glyph glyph-name="Tcaron" unicode="&#x164;" 
d="M261 629h-201v71h480v-71h-201v-629h-78v629zM433 895l-84 -118h-95l-85 118h74l58 -64l59 64h73z" />
    <glyph glyph-name="tcaron" unicode="&#x165;" 
d="M360 582h-57l14 118h87zM520 87q-41 -101 -157 -101q-77 0 -124.5 44.5t-47.5 121.5v270h-135v68h135v118h76v-118h234v-68h-234v-269q0 -49 25 -74t71 -25q72 0 92 61z" />
    <glyph glyph-name="Tbar" unicode="&#x166;" 
d="M339 629v-244h117v-70h-117v-315h-78v315h-116v70h116v244h-201v71h480v-71h-201z" />
    <glyph glyph-name="tbar" unicode="&#x167;" 
d="M520 87q-41 -101 -157 -101q-77 0 -124.5 44.5t-47.5 121.5v81h-98v61h98v128h-135v68h135v118h76v-118h234v-68h-234v-128h151v-61h-151v-80q0 -49 25 -74t71 -25q72 0 92 61z" />
    <glyph glyph-name="Utilde" unicode="&#x168;" 
d="M71 700h78v-464q0 -93 40 -136t110 -43t111 43t41 136v464h78v-469q0 -122 -63 -183.5t-167 -61.5t-166 62.5t-62 183.5v468zM159 814q14 34 37 50t49 16q19 0 32 -4.5t34 -15.5q14 -8 24 -12t22 -4q27 0 45 39l46 -33q-25 -67 -89 -67q-19 0 -33 5t-32 15
q-15 8 -24 11.5t-20 3.5q-28 0 -45 -35z" />
    <glyph glyph-name="utilde" unicode="&#x169;" 
d="M172 187q0 -72 31 -101t85 -29q37 0 69 18.5t51.5 53.5t19.5 82v279h76v-490h-64l-11 66q-59 -80 -164 -80q-77 0 -123 45.5t-46 137.5v321h76v-303zM166 610q14 34 37 50t49 16q19 0 32 -4.5t34 -15.5q14 -8 24 -12t22 -4q27 0 45 39l46 -33q-12 -33 -35.5 -50
t-53.5 -17q-19 0 -33 5t-32 15q-15 8 -24 11.5t-20 3.5q-28 0 -45 -35z" />
    <glyph glyph-name="Umacron" unicode="&#x16a;" 
d="M71 700h78v-464q0 -93 40 -136t110 -43t111 43t41 136v464h78v-469q0 -122 -63 -183.5t-167 -61.5t-166 62.5t-62 183.5v468zM206 863h196v-62h-196v62z" />
    <glyph glyph-name="umacron" unicode="&#x16b;" 
d="M172 187q0 -72 31 -101t85 -29q37 0 69 18.5t51.5 53.5t19.5 82v279h76v-490h-64l-11 66q-59 -80 -164 -80q-77 0 -123 45.5t-46 137.5v321h76v-303zM209 657h196v-62h-196v62z" />
    <glyph glyph-name="Ubreve" unicode="&#x16c;" 
d="M71 700h78v-464q0 -93 40 -136t110 -43t111 43t41 136v464h78v-469q0 -122 -63 -183.5t-167 -61.5t-166 62.5t-62 183.5v468zM389 801.5q-33 -33.5 -86 -33.5t-86 33.5t-35 84.5h62q2 -26 17.5 -42t41.5 -16t42 16t18 42h61q-2 -51 -35 -84.5z" />
    <glyph glyph-name="ubreve" unicode="&#x16d;" 
d="M172 187q0 -72 31 -101t85 -29q37 0 69 18.5t51.5 53.5t19.5 82v279h76v-490h-64l-11 66q-59 -80 -164 -80q-77 0 -123 45.5t-46 137.5v321h76v-303zM392 601.5q-33 -33.5 -86 -33.5t-86 33.5t-35 84.5h62q2 -26 17.5 -42t41.5 -16t42 16t18 42h61q-2 -51 -35 -84.5z" />
    <glyph glyph-name="Uring" unicode="&#x16e;" 
d="M71 700h78v-464q0 -93 40 -136t110 -43t111 43t41 136v464h78v-469q0 -122 -63 -183.5t-167 -61.5t-166 62.5t-62 183.5v468zM243 902q25 25 60 25t60.5 -25t25.5 -60t-25.5 -60t-60.5 -25t-60 25t-25 60t25 60zM280.5 818.5q9.5 -9.5 22.5 -9.5q14 0 23.5 9.5t9.5 23.5
q0 13 -9.5 23t-23.5 10q-13 0 -22.5 -10t-9.5 -23q0 -14 9.5 -23.5z" />
    <glyph glyph-name="uring" unicode="&#x16f;" 
d="M172 187q0 -72 31 -101t85 -29q37 0 69 18.5t51.5 53.5t19.5 82v279h76v-490h-64l-11 66q-59 -80 -164 -80q-77 0 -123 45.5t-46 137.5v321h76v-303zM246 697q25 25 60 25t60.5 -25t25.5 -60t-25.5 -60t-60.5 -25t-60 25t-25 60t25 60zM283.5 613.5q9.5 -9.5 22.5 -9.5
q14 0 23.5 9.5t9.5 23.5q0 13 -9.5 23t-23.5 10q-13 0 -22.5 -10t-9.5 -23q0 -14 9.5 -23.5z" />
    <glyph glyph-name="Uhungarumlaut" unicode="&#x170;" 
d="M71 700h78v-464q0 -93 40 -136t110 -43t111 43t41 136v464h78v-469q0 -122 -63 -183.5t-167 -61.5t-166 62.5t-62 183.5v468zM203 773l55 118h96l-89 -118h-62zM331 773l55 118h96l-89 -118h-62z" />
    <glyph glyph-name="uhungarumlaut" unicode="&#x171;" 
d="M172 187q0 -72 31 -101t85 -29q37 0 69 18.5t51.5 53.5t19.5 82v279h76v-490h-64l-11 66q-59 -80 -164 -80q-77 0 -123 45.5t-46 137.5v321h76v-303zM201 567l55 118h96l-89 -118h-62zM329 567l55 118h96l-89 -118h-62z" />
    <glyph glyph-name="Uogonek" unicode="&#x172;" 
d="M290.5 -156q-29.5 24 -29.5 63q0 44 33 79q-101 2 -162 64.5t-61 181.5v468h78v-464q0 -93 40 -136t110 -43t111 43t41 136v464h78v-469q0 -91 -33 -144t-92 -80q-44 -20 -61 -40.5t-17 -44.5q0 -18 14 -31t38 -13h6l-1 -57q-6 -1 -14 -1q-49 0 -78.5 24z" />
    <glyph glyph-name="uogonek" unicode="&#x173;" 
d="M442 -78q0 -18 14 -31t38 -13h6l-1 -57q-6 -1 -14 -1q-49 0 -78.5 24t-29.5 63q0 61 61 103l-9 56q-59 -80 -164 -80q-77 0 -123 45.5t-46 137.5v321h76v-303q0 -72 31 -101t85 -29q37 0 69 18.5t51.5 53.5t19.5 82v279h76v-490q-62 -34 -62 -78z" />
    <glyph glyph-name="Wcircumflex" unicode="&#x174;" 
d="M563 700l-70 -700h-99l-93 297l-94 -297h-99l-71 700h75l57 -601l98 318h66l99 -318l56 601h75zM359 773l-59 64l-58 -64h-74l85 118h95l84 -118h-73z" />
    <glyph glyph-name="wcircumflex" unicode="&#x175;" 
d="M559 490l-99 -490h-72l-87 366l-87 -366h-74l-98 490h72l67 -359l83 359h71l84 -356l68 356h72zM358 567l-59 64l-58 -64h-74l85 118h95l84 -118h-73z" />
    <glyph glyph-name="Ycircumflex" unicode="&#x176;" 
d="M339 0h-78v284l-236 416h85l190 -340l191 340h84l-236 -416v-284zM358 773l-59 64l-58 -64h-74l85 118h95l84 -118h-73z" />
    <glyph glyph-name="ycircumflex" unicode="&#x177;" 
d="M512 490v-491q0 -58 -21.5 -108t-70 -81.5t-123.5 -31.5q-85 0 -136.5 42t-71.5 114l73 17q12 -52 45 -78.5t90 -26.5q70 0 104.5 40.5t34.5 110.5v74l-1 5q-33 -41 -71.5 -60t-97.5 -19q-74 0 -125 45t-51 135v313h76v-288q0 -73 32 -103.5t90 -30.5q63 0 105.5 42
t42.5 113v267h76zM359 567l-59 64l-58 -64h-74l85 118h95l84 -118h-73z" />
    <glyph glyph-name="Ydieresis" unicode="&#x178;" 
d="M339 0h-78v284l-236 416h85l190 -340l191 340h84l-236 -416v-284zM179 791.5q-17 16.5 -17 40.5t17 40.5t41 16.5q23 0 40 -16.5t17 -40.5t-17 -40.5t-40 -16.5q-24 0 -41 16.5zM340 791.5q-17 16.5 -17 40.5t17 40.5t40 16.5q24 0 40.5 -16.5t16.5 -40.5t-16.5 -40.5
t-40.5 -16.5q-23 0 -40 16.5z" />
    <glyph glyph-name="Zacute" unicode="&#x179;" 
d="M60 69l392 561h-364v70h452v-69l-392 -561h386v-70h-474v69zM329 891h106l-99 -118h-73z" />
    <glyph glyph-name="zacute" unicode="&#x17a;" 
d="M82 64l339 359h-331v67h426v-64l-339 -359h341l-1 -67h-435v64zM339 685h106l-99 -118h-73z" />
    <glyph glyph-name="Zdotaccent" unicode="&#x17b;" 
d="M60 69l392 561h-364v70h452v-69l-392 -561h386v-70h-474v69zM258.5 873.5q16.5 16.5 41.5 16.5q23 0 39.5 -16.5t16.5 -40.5t-16.5 -40.5t-39.5 -16.5q-25 0 -41.5 16.5t-16.5 40.5t16.5 40.5z" />
    <glyph glyph-name="zdotaccent" unicode="&#x17c;" 
d="M82 64l339 359h-331v67h426v-64l-339 -359h341l-1 -67h-435v64zM259.5 666.5q16.5 16.5 41.5 16.5q23 0 39.5 -16.5t16.5 -40.5t-16.5 -40.5t-39.5 -16.5q-25 0 -41.5 16.5t-16.5 40.5t16.5 40.5z" />
    <glyph glyph-name="Zcaron" unicode="&#x17d;" 
d="M60 69l392 561h-364v70h452v-69l-392 -561h386v-70h-474v69zM432 895l-84 -118h-95l-85 118h74l58 -64l59 64h73z" />
    <glyph glyph-name="zcaron" unicode="&#x17e;" 
d="M82 64l339 359h-331v67h426v-64l-339 -359h341l-1 -67h-435v64zM432 685l-84 -118h-95l-85 118h74l58 -64l59 64h73z" />
    <glyph glyph-name="longs" unicode="&#x17f;" 
d="M290 574v-504h127v-70h-321v70h118v353h-129v67h129v90q0 62 39 98t109 36q65 0 95.5 -35.5t43.5 -71.5l-66 -25q-1 2 -6.5 19.5t-24 31.5t-43.5 14q-71 0 -71 -73z" />
    <glyph glyph-name="florin" unicode="&#x192;" 
d="M457 490v-69h-116v-464q0 -57 -34.5 -92.5t-88.5 -35.5q-45 0 -71 13t-35 24l43 53q4 -6 17.5 -12.5t33.5 -6.5q57 0 57 64v457h-114v69h114v151q0 57 34 92.5t88 35.5q46 0 71 -12.5t35 -24.5l-42 -53q-4 5 -18 12t-33 7q-57 0 -57 -64v-144h116z" />
    <glyph glyph-name="uni01B5" unicode="&#x1b5;" 
d="M540 631l-172 -246h127v-70h-176l-171 -245h386v-70h-474v69l172 246h-108v70h157l171 245h-364v70h452v-69z" />
    <glyph glyph-name="uni01B6" unicode="&#x1b6;" 
d="M518 67l-1 -67h-435v64l141 149h-87v61h144l141 149h-331v67h426v-64l-144 -152h79v-61h-136l-138 -146h341z" />
    <glyph glyph-name="AEacute" unicode="&#x1fc;" 
d="M395 630v-242h132v-69h-132v-249h155v-70h-233v167h-133l-59 -167h-75l254 700h246v-70h-155zM317 236v304l-108 -304h108zM427 891h106l-99 -118h-73z" />
    <glyph glyph-name="aeacute" unicode="&#x1fd;" 
d="M551 224h-221q0 -173 77 -173q32 0 47 25.5t21 69.5l66 -15q-8 -64 -41 -104.5t-96 -40.5q-80 0 -115 65q-18 -31 -45.5 -48t-63.5 -17q-65 0 -97.5 41t-32.5 106q0 57 36.5 98t114.5 50l53 6v28q0 60 -13.5 92t-47.5 32t-49.5 -26.5t-17.5 -73.5l-68 14q8 72 42 111.5
t93 39.5q74 0 104 -67q41 67 111 67q72 0 107.5 -60t35.5 -183v-37zM480 287q0 152 -76 152q-39 0 -57 -41t-18 -111h151zM254 224l-53 -7q-38 -5 -57.5 -22.5t-19.5 -57.5q0 -86 60 -86q32 0 51 24.5t19 76.5v72zM336 695h106l-99 -118h-73z" />
    <glyph glyph-name="Oslashacute" unicode="&#x1fe;" 
d="M540 351q0 -178 -62.5 -271t-177.5 -93q-78 0 -131 43l-31 -56l-61 31l43 79q-60 94 -60 267q0 183 62.5 273.5t177.5 90.5q84 0 139 -46l31 57l61 -35l-44 -80q53 -94 53 -260zM163 163l237 435q-37 46 -100 46q-162 0 -162 -293q0 -116 25 -188zM421.5 128.5
q40.5 70.5 40.5 222.5q0 102 -22 173l-236 -429q37 -37 96 -37q81 0 121.5 70.5zM329 891h106l-99 -118h-73z" />
    <glyph glyph-name="oslashacute" unicode="&#x1ff;" 
d="M529.5 351.5q21.5 -51.5 21.5 -106.5q0 -66 -30.5 -125.5t-87.5 -96.5t-134 -37q-62 0 -114 26l-37 -55l-52 35l37 56q-41 37 -62.5 89t-21.5 108q0 66 30.5 125.5t87.5 96.5t132 37q67 0 118 -28l34 51l52 -35l-35 -52q40 -37 61.5 -88.5zM174 109l204 308
q-35 18 -79 18q-51 0 -90.5 -25t-61.5 -68t-22 -97q0 -81 49 -136zM390 80q40 25 62.5 68.5t22.5 96.5q0 39 -12 73.5t-35 60.5l-204 -307q34 -17 75 -17q51 0 91 25zM339 685h106l-99 -118h-73z" />
    <glyph glyph-name="Scommaaccent" unicode="&#x218;" 
d="M59 177l72 22q19 -71 61.5 -106.5t114.5 -35.5q69 0 113 34t44 97q0 29 -10 52t-44 44t-102 35q-112 23 -169.5 68t-57.5 131q0 60 30 104.5t81 68.5t113 24q172 0 222 -182l-71 -20q-15 63 -51 97.5t-100 34.5q-66 0 -107 -34t-41 -93q0 -53 39 -79t127 -45
q113 -25 165 -72t52 -134q0 -60 -31 -105.5t-84 -70.5t-118 -25q-193 0 -248 190zM340.5 -60q15.5 -15 15.5 -43q0 -25 -15 -54t-40 -52l-30 23q19 24 24 44q-21 4 -32 16t-11 30q0 22 13.5 36.5t36.5 14.5t38.5 -15z" />
    <glyph glyph-name="scommaaccent" unicode="&#x219;" 
d="M429 340q-9 43 -39 70t-84 27q-62 0 -89 -22.5t-27 -53.5q0 -34 33 -50.5t99 -27.5q88 -15 135.5 -49t47.5 -101q0 -44 -26.5 -77.5t-72 -51.5t-100.5 -18q-166 0 -212 152l70 21q15 -47 45.5 -76.5t96.5 -29.5q56 0 90.5 20.5t34.5 58.5q0 18 -7.5 32t-34.5 27.5
t-81 21.5q-90 15 -140.5 47.5t-50.5 99.5q0 68 54.5 106t134.5 38q78 0 127 -38t66 -108zM357.5 -60q15.5 -15 15.5 -43q0 -25 -15 -54t-40 -52l-30 23q19 24 24 44q-21 4 -32 16t-11 30q0 22 13.5 36.5t36.5 14.5t38.5 -15z" />
    <glyph glyph-name="uni021A" unicode="&#x21a;" 
d="M261 629h-201v71h480v-71h-201v-629h-78v629zM341.5 -60q15.5 -15 15.5 -43q0 -25 -15 -54t-40 -52l-30 23q19 24 24 44q-21 4 -32 16t-11 30q0 22 13.5 36.5t36.5 14.5t38.5 -15z" />
    <glyph glyph-name="uni021B" unicode="&#x21b;" 
d="M520 87q-41 -101 -157 -101q-77 0 -124.5 44.5t-47.5 121.5v270h-135v68h135v118h76v-118h234v-68h-234v-269q0 -49 25 -74t71 -25q72 0 92 61zM403.5 -60q15.5 -15 15.5 -43q0 -25 -15 -54t-40 -52l-30 23q19 24 24 44q-21 4 -32 16t-11 30q0 22 13.5 36.5t36.5 14.5
t38.5 -15z" />
    <glyph glyph-name="uni0237" unicode="&#x237;" 
d="M456 -58q0 -77 -47.5 -121.5t-124.5 -44.5q-116 0 -157 101l65 28q20 -61 92 -61q46 0 71 25t25 74v477h-243v70h319v-548z" />
    <glyph glyph-name="circumflex" unicode="&#x2c6;" 
d="M359 567l-59 64l-58 -64h-74l85 118h95l84 -118h-73z" />
    <glyph glyph-name="caron" unicode="&#x2c7;" 
d="M432 685l-84 -118h-95l-85 118h74l58 -64l59 64h73z" />
    <glyph glyph-name="breve" unicode="&#x2d8;" 
d="M386 601.5q-33 -33.5 -86 -33.5t-86 33.5t-35 84.5h62q2 -26 17.5 -42t41.5 -16t42 16t18 42h61q-2 -51 -35 -84.5z" />
    <glyph glyph-name="dotaccent" unicode="&#x2d9;" 
d="M259.5 666.5q16.5 16.5 41.5 16.5q23 0 39.5 -16.5t16.5 -40.5t-16.5 -40.5t-39.5 -16.5q-25 0 -41.5 16.5t-16.5 40.5t16.5 40.5z" />
    <glyph glyph-name="ring" unicode="&#x2da;" 
d="M249 697q25 25 60 25t60.5 -25t25.5 -60t-25.5 -60t-60.5 -25t-60 25t-25 60t25 60zM286.5 613.5q9.5 -9.5 22.5 -9.5q14 0 23.5 9.5t9.5 23.5q0 13 -9.5 23t-23.5 10q-13 0 -22.5 -10t-9.5 -23q0 -14 9.5 -23.5z" />
    <glyph glyph-name="ogonek" unicode="&#x2db;" 
d="M336 -180q-49 0 -78.5 24t-29.5 63q0 38 23 67t57 48l47 -22q-62 -34 -62 -78q0 -18 14 -31t38 -13h6l-1 -57q-6 -1 -14 -1z" />
    <glyph glyph-name="tilde" unicode="&#x2dc;" 
d="M155 610q14 34 37 50t49 16q19 0 32 -4.5t34 -15.5q14 -8 24 -12t22 -4q27 0 45 39l46 -33q-12 -33 -35.5 -50t-53.5 -17q-19 0 -33 5t-32 15q-15 8 -24 11.5t-20 3.5q-28 0 -45 -35z" />
    <glyph glyph-name="hungarumlaut" unicode="&#x2dd;" 
d="M187 567l55 118h96l-89 -118h-62zM315 567l55 118h96l-89 -118h-62z" />
    <glyph glyph-name="gravecomb" unicode="&#x300;" horiz-adv-x="0" 
d="M-174 567l-99 118h106l66 -118h-73z" />
    <glyph glyph-name="acutecomb" unicode="&#x301;" horiz-adv-x="0" 
d="M-159 685h106l-99 -118h-73z" />
    <glyph glyph-name="uni0302" unicode="&#x302;" horiz-adv-x="0" 
d="M-161 567l-59 64l-58 -64h-74l85 118h95l84 -118h-73z" />
    <glyph glyph-name="tildecomb" unicode="&#x303;" horiz-adv-x="0" 
d="M-385 610q14 34 37 50t49 16q19 0 32 -4.5t34 -15.5q14 -8 24 -12t22 -4q27 0 45 39l46 -33q-12 -33 -35.5 -50t-53.5 -17q-19 0 -33 5t-32 15q-15 8 -24 11.5t-20 3.5q-28 0 -45 -35z" />
    <glyph glyph-name="uni0304" unicode="&#x304;" horiz-adv-x="0" 
d="M-286 657h196v-62h-196v62z" />
    <glyph glyph-name="uni0306" unicode="&#x306;" horiz-adv-x="0" 
d="M-108 601.5q-33 -33.5 -86 -33.5t-86 33.5t-35 84.5h62q2 -26 17.5 -42t41.5 -16t42 16t18 42h61q-2 -51 -35 -84.5z" />
    <glyph glyph-name="uni0307" unicode="&#x307;" horiz-adv-x="0" 
d="M-211.5 666.5q16.5 16.5 41.5 16.5q23 0 39.5 -16.5t16.5 -40.5t-16.5 -40.5t-39.5 -16.5q-25 0 -41.5 16.5t-16.5 40.5t16.5 40.5z" />
    <glyph glyph-name="uni0308" unicode="&#x308;" horiz-adv-x="0" 
d="M-310 586q-17 17 -17 40t17 40t41 17q23 0 40 -17t17 -40t-17 -40t-40 -17q-24 0 -41 17zM-152 586q-17 17 -17 40t17 40t40 17q24 0 40.5 -17t16.5 -40t-16.5 -40t-40.5 -17q-23 0 -40 17z" />
    <glyph glyph-name="uni030A" unicode="&#x30a;" horiz-adv-x="0" 
d="M-231 697q25 25 60 25t60.5 -25t25.5 -60t-25.5 -60t-60.5 -25t-60 25t-25 60t25 60zM-193.5 613.5q9.5 -9.5 22.5 -9.5q14 0 23.5 9.5t9.5 23.5q0 13 -9.5 23t-23.5 10q-13 0 -22.5 -10t-9.5 -23q0 -14 9.5 -23.5z" />
    <glyph glyph-name="uni030B" unicode="&#x30b;" horiz-adv-x="0" 
d="M-351 567l55 118h96l-89 -118h-62zM-223 567l55 118h96l-89 -118h-62z" />
    <glyph glyph-name="uni030C" unicode="&#x30c;" horiz-adv-x="0" 
d="M-88 685l-84 -118h-95l-85 118h74l58 -64l59 64h73z" />
    <glyph glyph-name="uni0312" unicode="&#x312;" horiz-adv-x="0" 
d="M-157.5 580q-15.5 15 -15.5 43q0 25 15 54t40 52l30 -23q-19 -24 -24 -44q21 -4 32 -16t11 -30q0 -22 -13.5 -36.5t-36.5 -14.5t-38.5 15z" />
    <glyph glyph-name="uni0326" unicode="&#x326;" horiz-adv-x="0" 
d="M-94.5 -60q15.5 -15 15.5 -43q0 -25 -15 -54t-40 -52l-30 23q19 24 24 44q-21 4 -32 16t-11 30q0 22 13.5 36.5t36.5 14.5t38.5 -15z" />
    <glyph glyph-name="uni0327" unicode="&#x327;" horiz-adv-x="0" 
d="M-179 7l54 -7l-22 -41q37 -2 59 -22.5t22 -59.5q0 -38 -25 -61.5t-65 -23.5q-35 0 -60 20t-27 49l50 17q0 -17 10 -26.5t27 -9.5q16 0 26 10t10 26q0 15 -10 24.5t-26 9.5q-14 0 -23 -6l-41 28z" />
    <glyph glyph-name="uni0328" unicode="&#x328;" horiz-adv-x="0" 
d="M-121 -180q-49 0 -78.5 24t-29.5 63q0 38 23 67t57 48l47 -22q-62 -34 -62 -78q0 -18 14 -31t38 -13h6l-1 -57q-6 -1 -14 -1z" />
    <glyph glyph-name="uni0335" unicode="&#x335;" horiz-adv-x="0" 
d="M-435 371h308v-61h-308v61z" />
    <glyph glyph-name="uni0336" unicode="&#x336;" horiz-adv-x="0" 
d="M-408 382h320v-64h-320v64z" />
    <glyph glyph-name="uni0337" unicode="&#x337;" horiz-adv-x="0" 
d="M-158 474l40 -53l-243 -190l-39 54z" />
    <glyph glyph-name="uni0338" unicode="&#x338;" horiz-adv-x="0" 
d="M-172 521l54 -39l-366 -511l-54 40z" />
    <glyph glyph-name="uni0394" unicode="&#x394;" 
d="M258 700h83l205 -700h-493zM300 602l-145 -532h289z" />
    <glyph glyph-name="uni03A9" unicode="&#x3a9;" 
d="M464 69h76v-69h-183v69q52 22 78.5 91t26.5 191q0 144 -41.5 218.5t-120.5 74.5q-162 0 -162 -293q0 -237 105 -282v-69h-184v69h80q-79 88 -79 282q0 183 62.5 273.5t177.5 90.5q116 0 178 -90t62 -274q0 -197 -76 -282z" />
    <glyph glyph-name="uni03BC" unicode="&#x3bc;" 
d="M504 490v-490h-64l-11 66q-59 -80 -164 -80q-55 0 -93 22v-217h-76v699h76v-303q0 -72 31 -101t85 -29q37 0 69 18.5t51.5 53.5t19.5 82v279h76z" />
    <glyph glyph-name="pi" unicode="&#x3c0;" 
d="M534 21q-35 -35 -96 -35q-47 0 -78.5 30.5t-31.5 82.5v324h-99v-423h-76v423h-88v67h435v-67h-96v-320q0 -26 13 -37.5t34 -11.5q23 0 40 17z" />
    <glyph glyph-name="Wgrave" unicode="&#x1e80;" 
d="M563 700l-70 -700h-99l-93 297l-94 -297h-99l-71 700h75l57 -601l98 318h66l99 -318l56 601h75zM264 773l-99 118h106l66 -118h-73z" />
    <glyph glyph-name="wgrave" unicode="&#x1e81;" 
d="M559 490l-99 -490h-72l-87 366l-87 -366h-74l-98 490h72l67 -359l83 359h71l84 -356l68 356h72zM263 567l-99 118h106l66 -118h-73z" />
    <glyph glyph-name="Wacute" unicode="&#x1e82;" 
d="M563 700l-70 -700h-99l-93 297l-94 -297h-99l-71 700h75l57 -601l98 318h66l99 -318l56 601h75zM330 891h106l-99 -118h-73z" />
    <glyph glyph-name="wacute" unicode="&#x1e83;" 
d="M559 490l-99 -490h-72l-87 366l-87 -366h-74l-98 490h72l67 -359l83 359h71l84 -356l68 356h72zM338 685h106l-99 -118h-73z" />
    <glyph glyph-name="Wdieresis" unicode="&#x1e84;" 
d="M563 700l-70 -700h-99l-93 297l-94 -297h-99l-71 700h75l57 -601l98 318h66l99 -318l56 601h75zM180 791.5q-17 16.5 -17 40.5t17 40.5t41 16.5q23 0 40 -16.5t17 -40.5t-17 -40.5t-40 -16.5q-24 0 -41 16.5zM341 791.5q-17 16.5 -17 40.5t17 40.5t40 16.5
q24 0 40.5 -16.5t16.5 -40.5t-16.5 -40.5t-40.5 -16.5q-23 0 -40 16.5z" />
    <glyph glyph-name="wdieresis" unicode="&#x1e85;" 
d="M559 490l-99 -490h-72l-87 366l-87 -366h-74l-98 490h72l67 -359l83 359h71l84 -356l68 356h72zM178 586q-17 17 -17 40t17 40t41 17q23 0 40 -17t17 -40t-17 -40t-40 -17q-24 0 -41 17zM336 586q-17 17 -17 40t17 40t40 17q24 0 40.5 -17t16.5 -40t-16.5 -40t-40.5 -17
q-23 0 -40 17z" />
    <glyph glyph-name="uni1E8A" unicode="&#x1e8a;" 
d="M483 0l-183 295l-181 -295h-89l222 356l-213 344h88l173 -282l174 282h87l-211 -343l220 -357h-87zM257.5 873.5q16.5 16.5 41.5 16.5q23 0 39.5 -16.5t16.5 -40.5t-16.5 -40.5t-39.5 -16.5q-25 0 -41.5 16.5t-16.5 40.5t16.5 40.5z" />
    <glyph glyph-name="uni1E8B" unicode="&#x1e8b;" 
d="M437 0l-137 192l-138 -192h-85l179 248l-174 242h86l132 -186l132 186h86l-173 -242l178 -248h-86zM272.5 666.5q16.5 16.5 41.5 16.5q23 0 39.5 -16.5t16.5 -40.5t-16.5 -40.5t-39.5 -16.5q-25 0 -41.5 16.5t-16.5 40.5t16.5 40.5z" />
    <glyph glyph-name="Ygrave" unicode="&#x1ef2;" 
d="M339 0h-78v284l-236 416h85l190 -340l191 340h84l-236 -416v-284zM263 773l-99 118h106l66 -118h-73z" />
    <glyph glyph-name="ygrave" unicode="&#x1ef3;" 
d="M512 490v-491q0 -58 -21.5 -108t-70 -81.5t-123.5 -31.5q-85 0 -136.5 42t-71.5 114l73 17q12 -52 45 -78.5t90 -26.5q70 0 104.5 40.5t34.5 110.5v74l-1 5q-33 -41 -71.5 -60t-97.5 -19q-74 0 -125 45t-51 135v313h76v-288q0 -73 32 -103.5t90 -30.5q63 0 105.5 42
t42.5 113v267h76zM264 567l-99 118h106l66 -118h-73z" />
    <glyph glyph-name="endash" unicode="&#x2013;" 
d="M80 335h440v-70h-440v70z" />
    <glyph glyph-name="emdash" unicode="&#x2014;" 
d="M0 335h600v-70h-600v70z" />
    <glyph glyph-name="quoteleft" unicode="&#x2018;" 
d="M326 681q-11 -26 -11 -43q19 -6 31.5 -20.5t12.5 -35.5q0 -26 -17 -42t-41 -16q-25 0 -41.5 17.5t-16.5 50.5q0 34 20 81.5t55 81.5l36 -27q-17 -21 -28 -47z" />
    <glyph glyph-name="quoteright" unicode="&#x2019;" 
d="M275 595q11 26 11 43q-19 6 -31.5 20.5t-12.5 35.5q0 26 17 42t41 16q25 0 41.5 -17.5t16.5 -50.5q0 -34 -20 -81.5t-55 -81.5l-36 27q17 21 28 47z" />
    <glyph glyph-name="quotesinglbase" unicode="&#x201a;" 
d="M274 -47q11 26 11 43q-19 6 -31.5 20.5t-12.5 35.5q0 26 17 42t41 16q25 0 41.5 -17.5t16.5 -50.5q0 -34 -20 -81.5t-55 -81.5l-36 27q17 21 28 47z" />
    <glyph glyph-name="quotedblleft" unicode="&#x201c;" 
d="M244 681q-11 -26 -11 -43q19 -6 31.5 -20.5t12.5 -35.5q0 -26 -17 -42t-41 -16q-25 0 -41.5 17.5t-16.5 50.5q0 34 20 81.5t55 81.5l36 -27q-17 -21 -28 -47zM411 681q-11 -26 -11 -43q19 -6 31.5 -20.5t12.5 -35.5q0 -26 -17 -42t-41 -16q-25 0 -41.5 17.5t-16.5 50.5
q0 34 20 81.5t55 81.5l36 -27q-17 -21 -28 -47z" />
    <glyph glyph-name="quotedblright" unicode="&#x201d;" 
d="M189 596q11 26 11 43q-19 6 -31.5 20.5t-12.5 35.5q0 26 17 42t41 16q25 0 41.5 -17.5t16.5 -50.5q0 -34 -20 -81.5t-55 -81.5l-36 27q17 21 28 47zM356 596q11 26 11 43q-19 6 -31.5 20.5t-12.5 35.5q0 26 17 42t41 16q25 0 41.5 -17.5t16.5 -50.5q0 -34 -20 -81.5
t-55 -81.5l-36 27q17 21 28 47z" />
    <glyph glyph-name="quotedblbase" unicode="&#x201e;" 
d="M188 -31q11 26 11 43q-19 6 -31.5 20.5t-12.5 35.5q0 26 17 42t41 16q25 0 41.5 -17.5t16.5 -50.5q0 -34 -20 -81.5t-55 -81.5l-36 27q17 21 28 47zM355 -31q11 26 11 43q-19 6 -31.5 20.5t-12.5 35.5q0 26 17 42t41 16q25 0 41.5 -17.5t16.5 -50.5q0 -34 -20 -81.5
t-55 -81.5l-36 27q17 21 28 47z" />
    <glyph glyph-name="dagger" unicode="&#x2020;" 
d="M420 542h-87v-192h-65v192h-88v59h88v99h65v-99h87v-59z" />
    <glyph glyph-name="daggerdbl" unicode="&#x2021;" 
d="M333 542v-47h87v-59h-87v-99h-65v99h-88v59h88v47h-88v59h88v99h65v-99h87v-59h-87z" />
    <glyph glyph-name="bullet" unicode="&#x2022;" 
d="M240 360q25 25 61 25q35 0 59.5 -25t24.5 -60q0 -36 -24.5 -60.5t-59.5 -24.5q-36 0 -61 24.5t-25 60.5q0 35 25 60z" />
    <glyph glyph-name="ellipsis" unicode="&#x2026;" 
d="M75 93q17 17 41 17q25 0 42 -17t17 -41t-17 -41.5t-42 -17.5q-24 0 -41 17.5t-17 41.5t17 41zM259 93q17 17 41 17q25 0 42 -17t17 -41t-17 -41.5t-42 -17.5q-24 0 -41 17.5t-17 41.5t17 41zM442 93q17 17 41 17q25 0 42 -17t17 -41t-17 -41.5t-42 -17.5q-24 0 -41 17.5
t-17 41.5t17 41z" />
    <glyph glyph-name="perthousand" unicode="&#x2030;" 
d="M108 446.5q-32 18.5 -50.5 51t-18.5 70.5t18.5 70t50.5 50.5t70 18.5t70 -18.5t50.5 -50.5t18.5 -70t-18.5 -70.5t-50.5 -51t-70 -18.5t-70 18.5zM236 509.5q24 24.5 24 58.5t-24 58t-58 24t-58 -24t-24 -58t24 -58.5t58 -24.5t58 24.5zM37 202l485 401l41 -47l-486 -403
zM172 22q-29 29 -29 70t29 70t70 29t70 -29t29 -70t-29 -70t-70 -29t-70 29zM393 22q-29 29 -29 70t29 70t70 29t70 -29t29 -70t-29 -70t-70 -29t-70 29zM279 54.5q16 15.5 16 37.5q0 21 -16 37t-37 16q-22 0 -37.5 -16t-15.5 -37q0 -22 15.5 -37.5t37.5 -15.5q21 0 37 15.5
zM500 54.5q16 15.5 16 37.5q0 21 -16 37t-37 16q-22 0 -37.5 -16t-15.5 -37q0 -22 15.5 -37.5t37.5 -15.5q21 0 37 15.5z" />
    <glyph glyph-name="guilsinglleft" unicode="&#x2039;" 
d="M289 301l102 -186h-80l-102 186l102 184h80z" />
    <glyph glyph-name="guilsinglright" unicode="&#x203a;" 
d="M391 301l-102 -186h-80l102 186l-102 184h80z" />
    <glyph glyph-name="fraction" unicode="&#x2044;" 
d="M541 592l40 -47l-521 -437l-40 49z" />
    <glyph glyph-name="uni2070" unicode="&#x2070;" 
d="M398 750.5q33 -50.5 33 -130.5q0 -81 -33 -132t-97 -51q-65 0 -98 50.5t-33 132.5q0 80 33.5 130.5t97.5 50.5t97 -50.5zM248.5 709q-17.5 -34 -17.5 -90q0 -23 3 -44l108 150q-18 18 -41 18q-35 0 -52.5 -34zM352 527q17 34 17 92q0 28 -4 47l-109 -151q19 -22 45 -22
q34 0 51 34z" />
    <glyph glyph-name="uni2074" unicode="&#x2074;" 
d="M389 533h40v52h-40v209h-66l-152 -216v-45h156v-89h62v89zM327 709v-124h-89z" />
    <glyph glyph-name="uni2075" unicode="&#x2075;" 
d="M214 466q35 -29 86 -29q55 0 90.5 33.5t35.5 87.5q0 53 -33.5 84.5t-87.5 31.5q-24 0 -44 -9l6 71h131v58h-184l-17 -173l54 -19q18 18 49 18q28 0 46.5 -17.5t18.5 -44.5q0 -28 -18.5 -45.5t-46.5 -17.5q-27 0 -45.5 15.5t-20.5 42.5l-57 -17q2 -41 37 -70z" />
    <glyph glyph-name="uni2076" unicode="&#x2076;" 
d="M343 732q-14 12 -37 12q-36 0 -51 -25t-16 -72q6 9 25 18.5t45 9.5q51 0 84.5 -32.5t33.5 -85.5q0 -54 -35.5 -87t-89.5 -33q-65 0 -97 43.5t-32 122.5q0 96 31.5 147t101.5 51q46 0 74 -23.5t38 -64.5l-54 -16q-7 23 -21 35zM347.5 512q17.5 18 17.5 45q0 28 -17 45
t-46 17q-27 0 -45 -17.5t-18 -44.5t18 -45t45 -18q28 0 45.5 18z" />
    <glyph glyph-name="uni2077" unicode="&#x2077;" 
d="M186 794h229v-57q-34 -54 -67 -139.5t-44 -153.5h-62q12 69 43 154.5t62 138.5h-161v57z" />
    <glyph glyph-name="uni2078" unicode="&#x2078;" 
d="M412.5 596q11.5 -22 11.5 -48q0 -48 -35 -79.5t-89 -31.5q-53 0 -88.5 31.5t-35.5 79.5q0 26 11.5 48t32.5 37q-30 25 -30 68t31.5 71.5t78.5 28.5t79 -28.5t32 -71.5q0 -40 -31 -68q21 -15 32.5 -37zM264.5 668.5q14.5 -12.5 35.5 -12.5q22 0 36.5 12.5t14.5 33.5
t-14.5 33.5t-36.5 12.5q-21 0 -35.5 -13t-14.5 -33q0 -21 14.5 -33.5zM344.5 508.5q18.5 15.5 18.5 40.5q0 26 -18.5 41.5t-44.5 15.5t-44 -16t-18 -41t18 -40.5t44 -15.5t44.5 15.5z" />
    <glyph glyph-name="uni2079" unicode="&#x2079;" 
d="M258 506q14 -12 37 -12q35 0 50 25t17 73q-7 -10 -25 -19t-45 -9q-51 0 -84.5 32.5t-33.5 84.5q0 54 35.5 87t89.5 33q64 0 96 -43.5t32 -122.5q0 -95 -31 -146.5t-101 -51.5q-46 0 -74 23.5t-38 64.5l54 16q7 -23 21 -35zM253 726.5q-18 -17.5 -18 -45.5t18 -45t46 -17
q27 0 45 17.5t18 44.5t-18 45t-45 18q-28 0 -46 -17.5z" />
    <glyph glyph-name="uni2080" unicode="&#x2080;" 
d="M398 186.5q33 -50.5 33 -130.5q0 -81 -33 -132t-97 -51q-65 0 -98 50.5t-33 132.5q0 80 33.5 130.5t97.5 50.5t97 -50.5zM248.5 145q-17.5 -34 -17.5 -90q0 -23 3 -44l108 150q-18 18 -41 18q-35 0 -52.5 -34zM352 -37q17 34 17 92q0 28 -4 47l-109 -151q19 -22 45 -22
q34 0 51 34z" />
    <glyph glyph-name="uni2081" unicode="&#x2081;" 
d="M418 -63v-57h-226v57h84v225q-12 -8 -33 -15t-36 -10v60q16 3 36.5 12.5t32.5 20.5h61v-293h81z" />
    <glyph glyph-name="uni2082" unicode="&#x2082;" 
d="M254.5 161.5q17.5 18.5 45.5 18.5q26 0 42 -16t16 -39q0 -24 -14 -43t-39 -42l-118 -102v-58h233v58h-145l73 63q36 32 54 59.5t18 65.5q0 48 -34.5 79.5t-85.5 31.5q-49 0 -83.5 -30t-36.5 -79l57 -15q0 30 17.5 48.5z" />
    <glyph glyph-name="uni2083" unicode="&#x2083;" 
d="M389 -93q36 34 36 86q0 48 -25.5 76.5t-65.5 34.5l68 69v57h-215v-57h143l-86 -84l32 -37q14 4 22 4q29 0 47.5 -18t18.5 -45t-18.5 -44.5t-47.5 -17.5q-28 0 -46.5 18t-19.5 45l-57 -17q2 -44 36 -74t87 -30q55 0 91 34z" />
    <glyph glyph-name="uni2084" unicode="&#x2084;" 
d="M389 -31h40v52h-40v209h-66l-152 -216v-45h156v-89h62v89zM327 145v-124h-89z" />
    <glyph glyph-name="uni2085" unicode="&#x2085;" 
d="M214 -98q35 -29 86 -29q55 0 90.5 33.5t35.5 87.5q0 53 -33.5 84.5t-87.5 31.5q-24 0 -44 -9l6 71h131v58h-184l-17 -173l54 -19q18 18 49 18q28 0 46.5 -17.5t18.5 -44.5q0 -28 -18.5 -45.5t-46.5 -17.5q-27 0 -45.5 15.5t-20.5 42.5l-57 -17q2 -41 37 -70z" />
    <glyph glyph-name="uni2086" unicode="&#x2086;" 
d="M343 168q-14 12 -37 12q-36 0 -51 -25t-16 -72q6 9 25 18.5t45 9.5q51 0 84.5 -32.5t33.5 -85.5q0 -54 -35.5 -87t-89.5 -33q-65 0 -97 43.5t-32 122.5q0 96 31.5 147t101.5 51q46 0 74 -23.5t38 -64.5l-54 -16q-7 23 -21 35zM347.5 -52q17.5 18 17.5 45q0 28 -17 45
t-46 17q-27 0 -45 -17.5t-18 -44.5t18 -45t45 -18q28 0 45.5 18z" />
    <glyph glyph-name="uni2087" unicode="&#x2087;" 
d="M186 230h229v-57q-34 -54 -67 -139.5t-44 -153.5h-62q12 69 43 154.5t62 138.5h-161v57z" />
    <glyph glyph-name="uni2088" unicode="&#x2088;" 
d="M412.5 32q11.5 -22 11.5 -48q0 -48 -35 -79.5t-89 -31.5q-53 0 -88.5 31.5t-35.5 79.5q0 26 11.5 48t32.5 37q-30 25 -30 68t31.5 71.5t78.5 28.5t79 -28.5t32 -71.5q0 -40 -31 -68q21 -15 32.5 -37zM264.5 104.5q14.5 -12.5 35.5 -12.5q22 0 36.5 12.5t14.5 33.5
t-14.5 33.5t-36.5 12.5q-21 0 -35.5 -13t-14.5 -33q0 -21 14.5 -33.5zM344.5 -55.5q18.5 15.5 18.5 40.5q0 26 -18.5 41.5t-44.5 15.5t-44 -16t-18 -41t18 -40.5t44 -15.5t44.5 15.5z" />
    <glyph glyph-name="uni2089" unicode="&#x2089;" 
d="M258 -58q14 -12 37 -12q35 0 50 25t17 73q-7 -10 -25 -19t-45 -9q-51 0 -84.5 32.5t-33.5 84.5q0 54 35.5 87t89.5 33q64 0 96 -43.5t32 -122.5q0 -95 -31 -146.5t-101 -51.5q-46 0 -74 23.5t-38 64.5l54 16q7 -23 21 -35zM253 162.5q-18 -17.5 -18 -45.5t18 -45t46 -17
q27 0 45 17.5t18 44.5t-18 45t-45 18q-28 0 -46 -17.5z" />
    <glyph glyph-name="Euro" unicode="&#x20ac;" 
d="M444.5 98q37.5 41 56.5 116l69 -24q-54 -204 -238 -204q-93 0 -157 65t-86 182h-61v65h53q-2 34 -2 52q0 19 2 53h-53v65h62q23 115 89.5 180.5t160.5 65.5q90 0 148.5 -57t84.5 -160l-70 -25q-20 85 -59.5 128t-103.5 43q-65 0 -109.5 -45.5t-62.5 -129.5h212l-19 -65
h-202q-2 -34 -2 -53q0 -18 2 -52h175l-19 -65h-148q17 -86 62 -131t113 -45q65 0 102.5 41z" />
    <glyph glyph-name="uni20BF" unicode="&#x20bf;" 
d="M486.5 90q-40.5 -50 -112.5 -62v-78h-64v74h-56v-74h-64v74h-105v654h105v62h64v-62h56v62h64v-68q63 -14 95.5 -59t32.5 -107q0 -48 -21.5 -84.5t-57.5 -56.5v-2q41 -15 72.5 -51.5t31.5 -102.5q0 -69 -40.5 -119zM158 388h157q56 0 85.5 32t29.5 85q0 49 -31 78.5
t-84 29.5h-157v-225zM422 122.5q33 34.5 33 86.5t-34.5 84.5t-104.5 32.5h-158v-238h171q60 0 93 34.5z" />
    <glyph glyph-name="trademark" unicode="&#x2122;" 
d="M39 706h206v-53h-75v-218h-56v218h-75v53zM561 435h-57v152l-65 -152h-39l-65 153l-1 -153h-55v271h59l82 -191l81 191h60v-271z" />
    <glyph glyph-name="uni2153" unicode="&#x2153;" 
d="M23 434h76v204q-11 -8 -29.5 -14t-32.5 -9v55q13 2 32 10.5t30 18.5h56v-265h73v-52h-205v52zM567 539l-504 -423l-38 46l504 421zM552 172q23 -26 23 -70q0 -47 -32.5 -77.5t-82.5 -30.5q-48 0 -78.5 27t-32.5 67l51 15q1 -24 18 -40.5t42 -16.5q27 0 43.5 16t16.5 40
q0 25 -16.5 41.5t-43.5 16.5q-6 0 -20 -4l-29 34l78 76h-129v51h195v-51l-62 -63q36 -5 59 -31z" />
    <glyph glyph-name="uni2154" unicode="&#x2154;" 
d="M91 638.5q16 16.5 41 16.5q23 0 38 -14.5t15 -35.5t-12.5 -38t-35.5 -39l-107 -92v-53h211v53h-132l67 57q33 28 49 53t16 60q0 43 -31.5 72t-77.5 29q-44 0 -75.5 -27.5t-33.5 -71.5l52 -14q0 28 16 44.5zM538 583l38 -44l-504 -423l-38 46zM540.5 24.5
q32.5 30.5 32.5 77.5q0 44 -23 70t-59 31l62 63v51h-195v-51h129l-78 -76l29 -34q14 4 20 4q27 0 43.5 -16.5t16.5 -41.5q0 -24 -16.5 -40t-43.5 -16q-25 0 -42 16.5t-18 40.5l-51 -15q2 -40 32.5 -67t78.5 -27q50 0 82.5 30.5z" />
    <glyph glyph-name="arrowleft" unicode="&#x2190;" 
d="M565 265h-404l188 -188l-45 -47l-269 269l268 271l46 -47l-189 -191h405v-67z" />
    <glyph glyph-name="arrowup" unicode="&#x2191;" 
d="M524 251l-192 190v-406h-66v404l-189 -189l-46 47l269 268l269 -268z" />
    <glyph glyph-name="arrowright" unicode="&#x2192;" 
d="M565 299l-269 -269l-45 47l188 188h-404v67h405l-189 191l46 47z" />
    <glyph glyph-name="arrowdown" unicode="&#x2193;" 
d="M569 303l-269 -268l-269 268l46 47l189 -189v404h66v-406l192 190z" />
    <glyph glyph-name="arrowboth" unicode="&#x2194;" 
d="M579 299l-203 -203l-45 47l122 122h-306l122 -122l-45 -47l-203 203l202 205l46 -47l-123 -125h308l-123 125l46 47z" />
    <glyph glyph-name="arrowupdn" unicode="&#x2195;" 
d="M457 269l47 -46l-205 -202l-203 203l47 45l122 -122v306l-122 -122l-47 45l203 203l205 -202l-47 -46l-125 123v-308z" />
    <glyph glyph-name="uni2196" unicode="&#x2196;" 
d="M457 94l-296 296v-267h-65v380l380 1v-65l-269 -1l297 -297z" />
    <glyph glyph-name="uni2197" unicode="&#x2197;" 
d="M504 503v-380h-65v267l-296 -296l-47 47l297 297l-269 1v65z" />
    <glyph glyph-name="uni2198" unicode="&#x2198;" 
d="M504 476v-380l-380 -1v65l269 1l-297 297l47 47l296 -296v267h65z" />
    <glyph glyph-name="uni2199" unicode="&#x2199;" 
d="M207 161l269 -1v-65l-380 1v380h65v-267l296 296l47 -47z" />
    <glyph glyph-name="uni21A9" unicode="&#x21a9;" 
d="M456 592.5q39 -23.5 61.5 -63t22.5 -87.5q0 -47 -23 -86.5t-62 -63.5t-86 -25h-183l119 -119l-46 -47l-198 199l197 198l47 -45l-119 -120h183q44 2 75 33.5t31 75.5q0 43 -31 75.5t-74 34.5v65q47 -1 86 -24.5z" />
    <glyph glyph-name="uni21B0" unicode="&#x21b0;" 
d="M521 11h-64v258h-254l168 -169l-46 -46l-246 247l247 247l45 -46l-166 -167h316v-324z" />
    <glyph glyph-name="uni21B1" unicode="&#x21b1;" 
d="M521 301l-246 -247l-46 46l168 169h-254v-258h-64v324h316l-166 167l45 46z" />
    <glyph glyph-name="uni21B2" unicode="&#x21b2;" 
d="M521 590v-324h-316l166 -167l-45 -46l-247 247l246 247l46 -46l-168 -169h254v258h64z" />
    <glyph glyph-name="uni21B3" unicode="&#x21b3;" 
d="M521 300l-247 -247l-45 46l166 167h-316v324h64v-258h254l-168 169l46 46z" />
    <glyph glyph-name="uni21B4" unicode="&#x21b4;" 
d="M547 326l-247 -247l-247 246l46 46l169 -168v254h-215v64h281v-316l167 166z" />
    <glyph glyph-name="partialdiff" unicode="&#x2202;" 
d="M76 545q23 77 75.5 123t138.5 46q138 0 196.5 -105.5t58.5 -302.5q0 -155 -63.5 -237.5t-183.5 -82.5q-70 0 -125 29.5t-86 82.5t-31 122t31 121.5t85.5 81.5t121.5 29q55 0 100.5 -24t68.5 -55q-5 132 -42 201t-131 69q-60 0 -94.5 -33.5t-49.5 -86.5zM382 79
q37 22 57 59t20 82q0 47 -21 84t-57.5 57.5t-82.5 20.5q-74 0 -119 -44.5t-45 -117.5t45.5 -118t118.5 -45q47 0 84 22z" />
    <glyph glyph-name="emptyset" unicode="&#x2205;" 
d="M498 450q51 -67 51 -150q0 -67 -33.5 -124.5t-91 -91t-124.5 -33.5q-41 0 -79.5 13.5t-69.5 37.5l-52 -52l-48 48l52 52q-51 67 -51 150q0 67 33.5 124.5t90.5 91t124 33.5q83 0 150 -51l52 52l48 -48zM150 197l254 255q-45 31 -104 31q-51 0 -92 -24t-64.5 -66
t-23.5 -93q0 -57 30 -103zM452 403l-255 -255q45 -31 103 -31q52 0 93 24t64.5 66t23.5 93q0 56 -29 103z" />
    <glyph glyph-name="product" unicode="&#x220f;" 
d="M522 0h-77v629h-289v-629h-77v700h443v-700z" />
    <glyph glyph-name="summation" unicode="&#x2211;" 
d="M530 630h-356l253 -280l-253 -280h356v-70h-460v63l258 287l-258 287v63h460v-70z" />
    <glyph glyph-name="minus" unicode="&#x2212;" 
d="M50 335h500v-70h-500v70z" />
    <glyph glyph-name="uni2219" unicode="&#x2219;" 
d="M258 341q17 17 42 17t41.5 -17t16.5 -41q0 -25 -16.5 -42t-41.5 -17t-42 17t-17 42q0 24 17 41z" />
    <glyph glyph-name="radical" unicode="&#x221a;" 
d="M577 700l-275 -700h-85l-125 315h-69v70h116l120 -301l236 616h82z" />
    <glyph glyph-name="infinity" unicode="&#x221e;" 
d="M521.5 209.5q35.5 35.5 35.5 90.5t-35.5 90.5t-90.5 35.5q-36 0 -67 -19t-64 -58q-33 40 -65 58.5t-65 18.5q-55 0 -90.5 -36t-35.5 -90t35.5 -90t90.5 -36q33 0 64.5 18.5t65.5 59.5q36 -40 65.5 -59t65.5 -19q55 0 90.5 35.5zM215 346q20 -15 47 -46q-27 -31 -47 -46
t-45 -15q-26 0 -43 17.5t-17 43.5t17 43.5t43 17.5q25 0 45 -15zM387 346.5q22 14.5 44 14.5q26 0 43 -17.5t17 -43.5t-17 -43.5t-43 -17.5q-22 0 -44 14.5t-48 46.5q26 32 48 46.5z" />
    <glyph glyph-name="integral" unicode="&#x222b;" 
d="M455 756.5q25 -12.5 35 -24.5l-42 -53q-4 5 -18 12t-33 7q-57 0 -57 -64v-677q0 -57 -34.5 -92.5t-88.5 -35.5q-45 0 -71 13t-35 24l43 53q4 -6 17.5 -12.5t33.5 -6.5q57 0 57 64v677q0 57 34 92.5t88 35.5q46 0 71 -12.5z" />
    <glyph glyph-name="approxequal" unicode="&#x2248;" 
d="M484 149q-31 -19 -70 -19q-28 0 -55 8t-67 23q-35 13 -56 19.5t-41 6.5q-24 0 -43.5 -12t-38.5 -39l-51 40q27 41 58.5 60t71.5 19q29 0 57.5 -8t66.5 -23q31 -13 53 -19.5t42 -6.5q22 0 40 11.5t37 38.5l53 -39q-26 -41 -57 -60zM484 362q-31 -19 -70 -19q-28 0 -55 8
t-67 23q-35 13 -56 19.5t-41 6.5q-24 0 -43.5 -12t-38.5 -39l-51 40q27 41 58.5 60t71.5 19q29 0 57.5 -8t66.5 -23q31 -13 53 -19.5t42 -6.5q22 0 40 11.5t37 38.5l53 -39q-26 -41 -57 -60z" />
    <glyph glyph-name="notequal" unicode="&#x2260;" 
d="M376 374l-70 -149h244v-70h-277l-60 -127l-64 30l45 97h-144v70h177l70 149h-247v70h280l59 126l64 -31l-45 -95h142v-70h-174z" />
    <glyph glyph-name="lessequal" unicode="&#x2264;" 
d="M551 547l-407 -169l407 -171v-77l-500 209v78l500 208v-78zM49 71h500v-70h-500v70z" />
    <glyph glyph-name="greaterequal" unicode="&#x2265;" 
d="M549 339l-500 -209v77l407 171l-407 169v78l500 -208v-78zM551 71v-70h-500v70h500z" />
    <glyph glyph-name="uni258A" unicode="&#x258a;" 
d="M525 700v-700h-450v700h450z" />
    <glyph glyph-name="lozenge" unicode="&#x25ca;" 
d="M553 350h-1l-209 -349h-86l-209 349h-1v1h1l209 349h86l209 -349h1v-1zM466 351l-166 277l-166 -277l166 -278z" />
    <glyph glyph-name="uni25D0" unicode="&#x25d0;" 
d="M424.5 516q57.5 -34 91.5 -91.5t34 -124.5t-34 -124.5t-91.5 -91.5t-125.5 -34q-67 0 -124.5 34t-91 91.5t-33.5 124.5t33.5 124.5t91 91.5t124.5 34q68 0 125.5 -34zM399.5 128.5q44.5 25.5 70 70.5t25.5 101t-25.5 100.5t-70 70.5t-99.5 26v-394q55 0 99.5 25.5z" />
    <glyph glyph-name="smileface" unicode="&#x263a;" 
d="M425.5 83.5q57.5 33.5 91 91t33.5 125.5t-33.5 125.5t-91 91t-125.5 33.5q-67 0 -124.5 -33.5t-91.5 -91t-34 -125.5t34 -125.5t91.5 -91t124.5 -33.5q68 0 125.5 33.5zM403 477.5q47 -27.5 75 -74.5t28 -103t-28 -103t-75 -74.5t-103 -27.5t-103 27.5t-74.5 74.5
t-27.5 103t27.5 103t74.5 74.5t103 27.5t103 -27.5zM252.5 371.5q-12.5 12.5 -29.5 12.5t-30 -12.5t-13 -29.5t13 -29.5t30 -12.5t29.5 12.5t12.5 29.5t-12.5 29.5zM407 371.5q-13 12.5 -30 12.5t-29.5 -12.5t-12.5 -29.5t12.5 -29.5t29.5 -12.5t30 12.5t13 29.5t-13 29.5z
" />
    <glyph glyph-name="fi" unicode="&#xfb01;" 
d="M32 70h77v353h-77v67h77v43q0 86 49.5 133.5t139.5 47.5q71 0 120.5 -26t68.5 -81l-70 -25q-14 30 -42 47.5t-81 17.5q-55 0 -82 -29.5t-27 -84.5v-43h323v-421h67v-69h-229v69h86v354h-247v-353h86v-70h-239v70z" />
    <glyph glyph-name="fl" unicode="&#xfb02;" 
d="M575 69v-69h-229v69h86v459q0 60 -38 86.5t-99 26.5q-110 0 -110 -121v-30h131v-67h-131v-353h86v-70h-239v70h77v353h-77v67h77v30q0 89 50 137.5t142 48.5q85 0 131 -37v31h76v-631h67z" />
    <glyph glyph-name="G.ss05" 
d="M308 371h245v-9q0 -165 -53.5 -270.5t-193.5 -105.5q-80 0 -138 45.5t-88 128t-30 190.5q0 163 64.5 263.5t191.5 100.5q88 0 146.5 -51.5t82.5 -139.5l-72 -26q-15 66 -53.5 106t-101.5 40q-87 0 -133.5 -82.5t-46.5 -210.5q0 -293 184 -293q84 0 121.5 69t40.5 177
h-166v68z" />
    <glyph glyph-name="Gbreve.ss05" 
d="M308 371h245v-9q0 -165 -53.5 -270.5t-193.5 -105.5q-80 0 -138 45.5t-88 128t-30 190.5q0 163 64.5 263.5t191.5 100.5q88 0 146.5 -51.5t82.5 -139.5l-72 -26q-15 66 -53.5 106t-101.5 40q-87 0 -133.5 -82.5t-46.5 -210.5q0 -293 184 -293q84 0 121.5 69t40.5 177
h-166v68zM393 801.5q-33 -33.5 -86 -33.5t-86 33.5t-35 84.5h62q2 -26 17.5 -42t41.5 -16t42 16t18 42h61q-2 -51 -35 -84.5z" />
    <glyph glyph-name="Gcircumflex.ss05" 
d="M308 371h245v-9q0 -165 -53.5 -270.5t-193.5 -105.5q-80 0 -138 45.5t-88 128t-30 190.5q0 163 64.5 263.5t191.5 100.5q88 0 146.5 -51.5t82.5 -139.5l-72 -26q-15 66 -53.5 106t-101.5 40q-87 0 -133.5 -82.5t-46.5 -210.5q0 -293 184 -293q84 0 121.5 69t40.5 177
h-166v68zM365 773l-59 64l-58 -64h-74l85 118h95l84 -118h-73z" />
    <glyph glyph-name="Gcommaaccent.ss05" 
d="M308 371h245v-9q0 -165 -53.5 -270.5t-193.5 -105.5q-80 0 -138 45.5t-88 128t-30 190.5q0 163 64.5 263.5t191.5 100.5q88 0 146.5 -51.5t82.5 -139.5l-72 -26q-15 66 -53.5 106t-101.5 40q-87 0 -133.5 -82.5t-46.5 -210.5q0 -293 184 -293q84 0 121.5 69t40.5 177
h-166v68zM349.5 -60q15.5 -15 15.5 -43q0 -25 -15 -54t-40 -52l-30 23q19 24 24 44q-21 4 -32 16t-11 30q0 22 13.5 36.5t36.5 14.5t38.5 -15z" />
    <glyph glyph-name="Gdotaccent.ss05" 
d="M308 371h245v-9q0 -165 -53.5 -270.5t-193.5 -105.5q-80 0 -138 45.5t-88 128t-30 190.5q0 163 64.5 263.5t191.5 100.5q88 0 146.5 -51.5t82.5 -139.5l-72 -26q-15 66 -53.5 106t-101.5 40q-87 0 -133.5 -82.5t-46.5 -210.5q0 -293 184 -293q84 0 121.5 69t40.5 177
h-166v68zM265.5 873.5q16.5 16.5 41.5 16.5q23 0 39.5 -16.5t16.5 -40.5t-16.5 -40.5t-39.5 -16.5q-25 0 -41.5 16.5t-16.5 40.5t16.5 40.5z" />
    <glyph glyph-name="i.loclTRK" 
d="M519 69v-69h-437v69h182v352h-139v69h215v-421h179zM261.5 666.5q16.5 16.5 41.5 16.5q23 0 39.5 -16.5t16.5 -40.5t-16.5 -40.5t-39.5 -16.5q-25 0 -41.5 16.5t-16.5 40.5t16.5 40.5z" />
    <glyph glyph-name="a.ss01" 
d="M562 -7q-16 -7 -40 -7q-36 0 -60.5 16t-33.5 48q-48 -64 -156 -64q-54 0 -92.5 20t-58 54t-19.5 74q0 65 46 105t142 54l131 19v15q0 113 -120 113q-106 0 -122 -101l-69 18q14 70 63.5 108.5t127.5 38.5q92 0 144 -45t52 -131v-245q0 -34 35 -34q10 0 16 3zM421 248
l-122 -18q-61 -9 -92 -29.5t-31 -62.5q0 -40 30 -63t82 -23q56 0 94.5 31.5t38.5 93.5v71z" />
    <glyph glyph-name="aacute.ss01" 
d="M562 -7q-16 -7 -40 -7q-36 0 -60.5 16t-33.5 48q-48 -64 -156 -64q-54 0 -92.5 20t-58 54t-19.5 74q0 65 46 105t142 54l131 19v15q0 113 -120 113q-106 0 -122 -101l-69 18q14 70 63.5 108.5t127.5 38.5q92 0 144 -45t52 -131v-245q0 -34 35 -34q10 0 16 3zM421 248
l-122 -18q-61 -9 -92 -29.5t-31 -62.5q0 -40 30 -63t82 -23q56 0 94.5 31.5t38.5 93.5v71zM342 685h106l-99 -118h-73z" />
    <glyph glyph-name="acircumflex.ss01" 
d="M562 -7q-16 -7 -40 -7q-36 0 -60.5 16t-33.5 48q-48 -64 -156 -64q-54 0 -92.5 20t-58 54t-19.5 74q0 65 46 105t142 54l131 19v15q0 113 -120 113q-106 0 -122 -101l-69 18q14 70 63.5 108.5t127.5 38.5q92 0 144 -45t52 -131v-245q0 -34 35 -34q10 0 16 3zM421 248
l-122 -18q-61 -9 -92 -29.5t-31 -62.5q0 -40 30 -63t82 -23q56 0 94.5 31.5t38.5 93.5v71zM362 567l-59 64l-58 -64h-74l85 118h95l84 -118h-73z" />
    <glyph glyph-name="adieresis.ss01" 
d="M562 -7q-16 -7 -40 -7q-36 0 -60.5 16t-33.5 48q-48 -64 -156 -64q-54 0 -92.5 20t-58 54t-19.5 74q0 65 46 105t142 54l131 19v15q0 113 -120 113q-106 0 -122 -101l-69 18q14 70 63.5 108.5t127.5 38.5q92 0 144 -45t52 -131v-245q0 -34 35 -34q10 0 16 3zM421 248
l-122 -18q-61 -9 -92 -29.5t-31 -62.5q0 -40 30 -63t82 -23q56 0 94.5 31.5t38.5 93.5v71zM182 586q-17 17 -17 40t17 40t41 17q23 0 40 -17t17 -40t-17 -40t-40 -17q-24 0 -41 17zM340 586q-17 17 -17 40t17 40t40 17q24 0 40.5 -17t16.5 -40t-16.5 -40t-40.5 -17
q-23 0 -40 17z" />
    <glyph glyph-name="agrave.ss01" 
d="M562 -7q-16 -7 -40 -7q-36 0 -60.5 16t-33.5 48q-48 -64 -156 -64q-54 0 -92.5 20t-58 54t-19.5 74q0 65 46 105t142 54l131 19v15q0 113 -120 113q-106 0 -122 -101l-69 18q14 70 63.5 108.5t127.5 38.5q92 0 144 -45t52 -131v-245q0 -34 35 -34q10 0 16 3zM421 248
l-122 -18q-61 -9 -92 -29.5t-31 -62.5q0 -40 30 -63t82 -23q56 0 94.5 31.5t38.5 93.5v71zM267 567l-99 118h106l66 -118h-73z" />
    <glyph glyph-name="amacron.ss01" 
d="M562 -7q-16 -7 -40 -7q-36 0 -60.5 16t-33.5 48q-48 -64 -156 -64q-54 0 -92.5 20t-58 54t-19.5 74q0 65 46 105t142 54l131 19v15q0 113 -120 113q-106 0 -122 -101l-69 18q14 70 63.5 108.5t127.5 38.5q92 0 144 -45t52 -131v-245q0 -34 35 -34q10 0 16 3zM421 248
l-122 -18q-61 -9 -92 -29.5t-31 -62.5q0 -40 30 -63t82 -23q56 0 94.5 31.5t38.5 93.5v71zM206 657h196v-62h-196v62z" />
    <glyph glyph-name="aogonek.ss01" 
d="M514 -116q14 -13 38 -13h6l-1 -57q-6 -1 -14 -1q-49 0 -78.5 24t-29.5 63q0 52 47 92q-42 14 -54 58q-48 -64 -156 -64q-54 0 -92.5 20t-58 54t-19.5 74q0 65 46 105t142 54l131 19v15q0 113 -120 113q-106 0 -122 -101l-69 18q14 70 63.5 108.5t127.5 38.5q92 0 144 -45
t52 -131v-245q0 -34 35 -34q10 0 16 3l14 -59q-62 -34 -62 -78q0 -18 14 -31zM421 248l-122 -18q-61 -9 -92 -29.5t-31 -62.5q0 -40 30 -63t82 -23q56 0 94.5 31.5t38.5 93.5v71z" />
    <glyph glyph-name="aring.ss01" 
d="M562 -7q-16 -7 -40 -7q-36 0 -60.5 16t-33.5 48q-48 -64 -156 -64q-54 0 -92.5 20t-58 54t-19.5 74q0 65 46 105t142 54l131 19v15q0 113 -120 113q-106 0 -122 -101l-69 18q14 70 63.5 108.5t127.5 38.5q92 0 144 -45t52 -131v-245q0 -34 35 -34q10 0 16 3zM421 248
l-122 -18q-61 -9 -92 -29.5t-31 -62.5q0 -40 30 -63t82 -23q56 0 94.5 31.5t38.5 93.5v71zM243 697q25 25 60 25t60.5 -25t25.5 -60t-25.5 -60t-60.5 -25t-60 25t-25 60t25 60zM280.5 613.5q9.5 -9.5 22.5 -9.5q14 0 23.5 9.5t9.5 23.5q0 13 -9.5 23t-23.5 10
q-13 0 -22.5 -10t-9.5 -23q0 -14 9.5 -23.5z" />
    <glyph glyph-name="atilde.ss01" 
d="M562 -7q-16 -7 -40 -7q-36 0 -60.5 16t-33.5 48q-48 -64 -156 -64q-54 0 -92.5 20t-58 54t-19.5 74q0 65 46 105t142 54l131 19v15q0 113 -120 113q-106 0 -122 -101l-69 18q14 70 63.5 108.5t127.5 38.5q92 0 144 -45t52 -131v-245q0 -34 35 -34q10 0 16 3zM421 248
l-122 -18q-61 -9 -92 -29.5t-31 -62.5q0 -40 30 -63t82 -23q56 0 94.5 31.5t38.5 93.5v71zM163 610q14 34 37 50t49 16q19 0 32 -4.5t34 -15.5q14 -8 24 -12t22 -4q27 0 45 39l46 -33q-12 -33 -35.5 -50t-53.5 -17q-19 0 -33 5t-32 15q-15 8 -24 11.5t-20 3.5q-28 0 -45 -35
z" />
    <glyph glyph-name="a.ss02" 
d="M535 0h-68l-11 71q-26 -37 -69.5 -60.5t-102.5 -23.5q-70 0 -124 37t-82.5 97t-28.5 126q0 67 27 126t80 95.5t127 36.5q57 0 100 -22.5t70 -60.5v69h82v-491zM409 380q-45 52 -117 52q-47 0 -83.5 -23.5t-57 -66t-20.5 -95.5t20.5 -96t57 -67t83.5 -24q48 0 84.5 24
t57 66.5t20.5 96.5q0 81 -45 133z" />
    <glyph glyph-name="aacute.ss02" 
d="M535 0h-68l-11 71q-26 -37 -69.5 -60.5t-102.5 -23.5q-70 0 -124 37t-82.5 97t-28.5 126q0 67 27 126t80 95.5t127 36.5q57 0 100 -22.5t70 -60.5v69h82v-491zM409 380q-45 52 -117 52q-47 0 -83.5 -23.5t-57 -66t-20.5 -95.5t20.5 -96t57 -67t83.5 -24q48 0 84.5 24
t57 66.5t20.5 96.5q0 81 -45 133zM322 685h106l-99 -118h-73z" />
    <glyph glyph-name="abreve.ss02" 
d="M535 0h-68l-11 71q-26 -37 -69.5 -60.5t-102.5 -23.5q-70 0 -124 37t-82.5 97t-28.5 126q0 67 27 126t80 95.5t127 36.5q57 0 100 -22.5t70 -60.5v69h82v-491zM409 380q-45 52 -117 52q-47 0 -83.5 -23.5t-57 -66t-20.5 -95.5t20.5 -96t57 -67t83.5 -24q48 0 84.5 24
t57 66.5t20.5 96.5q0 81 -45 133zM369 601.5q-33 -33.5 -86 -33.5t-86 33.5t-35 84.5h62q2 -26 17.5 -42t41.5 -16t42 16t18 42h61q-2 -51 -35 -84.5z" />
    <glyph glyph-name="acircumflex.ss02" 
d="M535 0h-68l-11 71q-26 -37 -69.5 -60.5t-102.5 -23.5q-70 0 -124 37t-82.5 97t-28.5 126q0 67 27 126t80 95.5t127 36.5q57 0 100 -22.5t70 -60.5v69h82v-491zM409 380q-45 52 -117 52q-47 0 -83.5 -23.5t-57 -66t-20.5 -95.5t20.5 -96t57 -67t83.5 -24q48 0 84.5 24
t57 66.5t20.5 96.5q0 81 -45 133zM342 567l-59 64l-58 -64h-74l85 118h95l84 -118h-73z" />
    <glyph glyph-name="adieresis.ss02" 
d="M535 0h-68l-11 71q-26 -37 -69.5 -60.5t-102.5 -23.5q-70 0 -124 37t-82.5 97t-28.5 126q0 67 27 126t80 95.5t127 36.5q57 0 100 -22.5t70 -60.5v69h82v-491zM409 380q-45 52 -117 52q-47 0 -83.5 -23.5t-57 -66t-20.5 -95.5t20.5 -96t57 -67t83.5 -24q48 0 84.5 24
t57 66.5t20.5 96.5q0 81 -45 133zM162 586q-17 17 -17 40t17 40t41 17q23 0 40 -17t17 -40t-17 -40t-40 -17q-24 0 -41 17zM320 586q-17 17 -17 40t17 40t40 17q24 0 40.5 -17t16.5 -40t-16.5 -40t-40.5 -17q-23 0 -40 17z" />
    <glyph glyph-name="agrave.ss02" 
d="M535 0h-68l-11 71q-26 -37 -69.5 -60.5t-102.5 -23.5q-70 0 -124 37t-82.5 97t-28.5 126q0 67 27 126t80 95.5t127 36.5q57 0 100 -22.5t70 -60.5v69h82v-491zM409 380q-45 52 -117 52q-47 0 -83.5 -23.5t-57 -66t-20.5 -95.5t20.5 -96t57 -67t83.5 -24q48 0 84.5 24
t57 66.5t20.5 96.5q0 81 -45 133zM247 567l-99 118h106l66 -118h-73z" />
    <glyph glyph-name="amacron.ss02" 
d="M535 0h-68l-11 71q-26 -37 -69.5 -60.5t-102.5 -23.5q-70 0 -124 37t-82.5 97t-28.5 126q0 67 27 126t80 95.5t127 36.5q57 0 100 -22.5t70 -60.5v69h82v-491zM409 380q-45 52 -117 52q-47 0 -83.5 -23.5t-57 -66t-20.5 -95.5t20.5 -96t57 -67t83.5 -24q48 0 84.5 24
t57 66.5t20.5 96.5q0 81 -45 133zM186 657h196v-62h-196v62z" />
    <glyph glyph-name="aogonek.ss02" 
d="M473 -78q0 -18 14 -31t38 -13h6l-1 -57q-6 -1 -14 -1q-49 0 -78.5 24t-29.5 63q0 58 58 101l-10 63q-26 -37 -69.5 -60.5t-102.5 -23.5q-70 0 -124 37t-82.5 97t-28.5 126q0 67 27 126t80 95.5t127 36.5q57 0 100 -22.5t70 -60.5v69h82v-491q-62 -34 -62 -78zM376.5 84
q36.5 24 57 66.5t20.5 96.5q0 81 -45 133t-117 52q-47 0 -83.5 -23.5t-57 -66t-20.5 -95.5t20.5 -96t57 -67t83.5 -24q48 0 84.5 24z" />
    <glyph glyph-name="aring.ss02" 
d="M535 0h-68l-11 71q-26 -37 -69.5 -60.5t-102.5 -23.5q-70 0 -124 37t-82.5 97t-28.5 126q0 67 27 126t80 95.5t127 36.5q57 0 100 -22.5t70 -60.5v69h82v-491zM409 380q-45 52 -117 52q-47 0 -83.5 -23.5t-57 -66t-20.5 -95.5t20.5 -96t57 -67t83.5 -24q48 0 84.5 24
t57 66.5t20.5 96.5q0 81 -45 133zM223 697q25 25 60 25t60.5 -25t25.5 -60t-25.5 -60t-60.5 -25t-60 25t-25 60t25 60zM260.5 613.5q9.5 -9.5 22.5 -9.5q14 0 23.5 9.5t9.5 23.5q0 13 -9.5 23t-23.5 10q-13 0 -22.5 -10t-9.5 -23q0 -14 9.5 -23.5z" />
    <glyph glyph-name="atilde.ss02" 
d="M535 0h-68l-11 71q-26 -37 -69.5 -60.5t-102.5 -23.5q-70 0 -124 37t-82.5 97t-28.5 126q0 67 27 126t80 95.5t127 36.5q57 0 100 -22.5t70 -60.5v69h82v-491zM409 380q-45 52 -117 52q-47 0 -83.5 -23.5t-57 -66t-20.5 -95.5t20.5 -96t57 -67t83.5 -24q48 0 84.5 24
t57 66.5t20.5 96.5q0 81 -45 133zM143 610q14 34 37 50t49 16q19 0 32 -4.5t34 -15.5q14 -8 24 -12t22 -4q27 0 45 39l46 -33q-12 -33 -35.5 -50t-53.5 -17q-19 0 -33 5t-32 15q-15 8 -24 11.5t-20 3.5q-28 0 -45 -35z" />
    <glyph glyph-name="y.ss04" 
d="M534 491l-237 -616q-38 -98 -131 -98q-37 0 -65 15.5t-44 41.5l68 40q5 -10 16.5 -15.5t25.5 -5.5q23 0 36 11.5t22 36.5l43 114l-189 476h84l145 -371l141 371h85z" />
    <glyph glyph-name="yacute.ss04" 
d="M534 491l-237 -616q-38 -98 -131 -98q-37 0 -65 15.5t-44 41.5l68 40q5 -10 16.5 -15.5t25.5 -5.5q23 0 36 11.5t22 36.5l43 114l-189 476h84l145 -371l141 371h85zM345 685h106l-99 -118h-73z" />
    <glyph glyph-name="ycircumflex.ss04" 
d="M534 491l-237 -616q-38 -98 -131 -98q-37 0 -65 15.5t-44 41.5l68 40q5 -10 16.5 -15.5t25.5 -5.5q23 0 36 11.5t22 36.5l43 114l-189 476h84l145 -371l141 371h85zM365 567l-59 64l-58 -64h-74l85 118h95l84 -118h-73z" />
    <glyph glyph-name="ydieresis.ss04" 
d="M534 491l-237 -616q-38 -98 -131 -98q-37 0 -65 15.5t-44 41.5l68 40q5 -10 16.5 -15.5t25.5 -5.5q23 0 36 11.5t22 36.5l43 114l-189 476h84l145 -371l141 371h85zM185 586q-17 17 -17 40t17 40t41 17q23 0 40 -17t17 -40t-17 -40t-40 -17q-24 0 -41 17zM343 586
q-17 17 -17 40t17 40t40 17q24 0 40.5 -17t16.5 -40t-16.5 -40t-40.5 -17q-23 0 -40 17z" />
    <glyph glyph-name="ygrave.ss04" 
d="M534 491l-237 -616q-38 -98 -131 -98q-37 0 -65 15.5t-44 41.5l68 40q5 -10 16.5 -15.5t25.5 -5.5q23 0 36 11.5t22 36.5l43 114l-189 476h84l145 -371l141 371h85zM270 567l-99 118h106l66 -118h-73z" />
    <glyph glyph-name="zero.dnom" 
d="M398 306.5q33 -50.5 33 -130.5q0 -81 -33 -132t-97 -51q-65 0 -98 50.5t-33 132.5q0 80 33.5 130.5t97.5 50.5t97 -50.5zM248.5 265q-17.5 -34 -17.5 -90q0 -23 3 -44l108 150q-18 18 -41 18q-35 0 -52.5 -34zM352 83q17 34 17 92q0 28 -4 47l-109 -151q19 -22 45 -22
q34 0 51 34z" />
    <glyph glyph-name="one.dnom" 
d="M418 57v-57h-226v57h84v225q-12 -8 -33 -15t-36 -10v60q16 3 36.5 12.5t32.5 20.5h61v-293h81z" />
    <glyph glyph-name="two.dnom" 
d="M254.5 281.5q17.5 18.5 45.5 18.5q26 0 42 -16t16 -39q0 -24 -14 -43t-39 -42l-118 -102v-58h233v58h-145l73 63q36 32 54 59.5t18 65.5q0 48 -34.5 79.5t-85.5 31.5q-49 0 -83.5 -30t-36.5 -79l57 -15q0 30 17.5 48.5z" />
    <glyph glyph-name="three.dnom" 
d="M389 27q36 34 36 86q0 48 -25.5 76.5t-65.5 34.5l68 69v57h-215v-57h143l-86 -84l32 -37q14 4 22 4q29 0 47.5 -18t18.5 -45t-18.5 -44.5t-47.5 -17.5q-28 0 -46.5 18t-19.5 45l-57 -17q2 -44 36 -74t87 -30q55 0 91 34z" />
    <glyph glyph-name="four.dnom" 
d="M389 89h40v52h-40v209h-66l-152 -216v-45h156v-89h62v89zM327 265v-124h-89z" />
    <glyph glyph-name="five.dnom" 
d="M214 22q35 -29 86 -29q55 0 90.5 33.5t35.5 87.5q0 53 -33.5 84.5t-87.5 31.5q-24 0 -44 -9l6 71h131v58h-184l-17 -173l54 -19q18 18 49 18q28 0 46.5 -17.5t18.5 -44.5q0 -28 -18.5 -45.5t-46.5 -17.5q-27 0 -45.5 15.5t-20.5 42.5l-57 -17q2 -41 37 -70z" />
    <glyph glyph-name="six.dnom" 
d="M343 288q-14 12 -37 12q-36 0 -51 -25t-16 -72q6 9 25 18.5t45 9.5q51 0 84.5 -32.5t33.5 -85.5q0 -54 -35.5 -87t-89.5 -33q-65 0 -97 43.5t-32 122.5q0 96 31.5 147t101.5 51q46 0 74 -23.5t38 -64.5l-54 -16q-7 23 -21 35zM347.5 68q17.5 18 17.5 45q0 28 -17 45
t-46 17q-27 0 -45 -17.5t-18 -44.5t18 -45t45 -18q28 0 45.5 18z" />
    <glyph glyph-name="seven.dnom" 
d="M186 350h229v-57q-34 -54 -67 -139.5t-44 -153.5h-62q12 69 43 154.5t62 138.5h-161v57z" />
    <glyph glyph-name="eight.dnom" 
d="M412.5 152q11.5 -22 11.5 -48q0 -48 -35 -79.5t-89 -31.5q-53 0 -88.5 31.5t-35.5 79.5q0 26 11.5 48t32.5 37q-30 25 -30 68t31.5 71.5t78.5 28.5t79 -28.5t32 -71.5q0 -40 -31 -68q21 -15 32.5 -37zM264.5 224.5q14.5 -12.5 35.5 -12.5q22 0 36.5 12.5t14.5 33.5
t-14.5 33.5t-36.5 12.5q-21 0 -35.5 -13t-14.5 -33q0 -21 14.5 -33.5zM344.5 64.5q18.5 15.5 18.5 40.5q0 26 -18.5 41.5t-44.5 15.5t-44 -16t-18 -41t18 -40.5t44 -15.5t44.5 15.5z" />
    <glyph glyph-name="nine.dnom" 
d="M258 62q14 -12 37 -12q35 0 50 25t17 73q-7 -10 -25 -19t-45 -9q-51 0 -84.5 32.5t-33.5 84.5q0 54 35.5 87t89.5 33q64 0 96 -43.5t32 -122.5q0 -95 -31 -146.5t-101 -51.5q-46 0 -74 23.5t-38 64.5l54 16q7 -23 21 -35zM253 282.5q-18 -17.5 -18 -45.5t18 -45t46 -17
q27 0 45 17.5t18 44.5t-18 45t-45 18q-28 0 -46 -17.5z" />
    <glyph glyph-name="zero.numr" 
d="M398 656.5q33 -50.5 33 -130.5q0 -81 -33 -132t-97 -51q-65 0 -98 50.5t-33 132.5q0 80 33.5 130.5t97.5 50.5t97 -50.5zM248.5 615q-17.5 -34 -17.5 -90q0 -23 3 -44l108 150q-18 18 -41 18q-35 0 -52.5 -34zM352 433q17 34 17 92q0 28 -4 47l-109 -151q19 -22 45 -22
q34 0 51 34z" />
    <glyph glyph-name="one.numr" 
d="M418 407v-57h-226v57h84v225q-12 -8 -33 -15t-36 -10v60q16 3 36.5 12.5t32.5 20.5h61v-293h81z" />
    <glyph glyph-name="two.numr" 
d="M254.5 631.5q17.5 18.5 45.5 18.5q26 0 42 -16t16 -39q0 -24 -14 -43t-39 -42l-118 -102v-58h233v58h-145l73 63q36 32 54 59.5t18 65.5q0 48 -34.5 79.5t-85.5 31.5q-49 0 -83.5 -30t-36.5 -79l57 -15q0 30 17.5 48.5z" />
    <glyph glyph-name="three.numr" 
d="M389 377q36 34 36 86q0 48 -25.5 76.5t-65.5 34.5l68 69v57h-215v-57h143l-86 -84l32 -37q14 4 22 4q29 0 47.5 -18t18.5 -45t-18.5 -44.5t-47.5 -17.5q-28 0 -46.5 18t-19.5 45l-57 -17q2 -44 36 -74t87 -30q55 0 91 34z" />
    <glyph glyph-name="four.numr" 
d="M389 439h40v52h-40v209h-66l-152 -216v-45h156v-89h62v89zM327 615v-124h-89z" />
    <glyph glyph-name="five.numr" 
d="M214 372q35 -29 86 -29q55 0 90.5 33.5t35.5 87.5q0 53 -33.5 84.5t-87.5 31.5q-24 0 -44 -9l6 71h131v58h-184l-17 -173l54 -19q18 18 49 18q28 0 46.5 -17.5t18.5 -44.5q0 -28 -18.5 -45.5t-46.5 -17.5q-27 0 -45.5 15.5t-20.5 42.5l-57 -17q2 -41 37 -70z" />
    <glyph glyph-name="six.numr" 
d="M343 638q-14 12 -37 12q-36 0 -51 -25t-16 -72q6 9 25 18.5t45 9.5q51 0 84.5 -32.5t33.5 -85.5q0 -54 -35.5 -87t-89.5 -33q-65 0 -97 43.5t-32 122.5q0 96 31.5 147t101.5 51q46 0 74 -23.5t38 -64.5l-54 -16q-7 23 -21 35zM347.5 418q17.5 18 17.5 45q0 28 -17 45
t-46 17q-27 0 -45 -17.5t-18 -44.5t18 -45t45 -18q28 0 45.5 18z" />
    <glyph glyph-name="seven.numr" 
d="M186 700h229v-57q-34 -54 -67 -139.5t-44 -153.5h-62q12 69 43 154.5t62 138.5h-161v57z" />
    <glyph glyph-name="eight.numr" 
d="M412.5 502q11.5 -22 11.5 -48q0 -48 -35 -79.5t-89 -31.5q-53 0 -88.5 31.5t-35.5 79.5q0 26 11.5 48t32.5 37q-30 25 -30 68t31.5 71.5t78.5 28.5t79 -28.5t32 -71.5q0 -40 -31 -68q21 -15 32.5 -37zM264.5 574.5q14.5 -12.5 35.5 -12.5q22 0 36.5 12.5t14.5 33.5
t-14.5 33.5t-36.5 12.5q-21 0 -35.5 -13t-14.5 -33q0 -21 14.5 -33.5zM344.5 414.5q18.5 15.5 18.5 40.5q0 26 -18.5 41.5t-44.5 15.5t-44 -16t-18 -41t18 -40.5t44 -15.5t44.5 15.5z" />
    <glyph glyph-name="nine.numr" 
d="M258 412q14 -12 37 -12q35 0 50 25t17 73q-7 -10 -25 -19t-45 -9q-51 0 -84.5 32.5t-33.5 84.5q0 54 35.5 87t89.5 33q64 0 96 -43.5t32 -122.5q0 -95 -31 -146.5t-101 -51.5q-46 0 -74 23.5t-38 64.5l54 16q7 -23 21 -35zM253 632.5q-18 -17.5 -18 -45.5t18 -45t46 -17
q27 0 45 17.5t18 44.5t-18 45t-45 18q-28 0 -46 -17.5z" />
    <glyph glyph-name="bullet.case" 
d="M240 409q25 25 61 25q35 0 59.5 -25t24.5 -60q0 -36 -24.5 -60.5t-59.5 -24.5q-36 0 -61 24.5t-25 60.5q0 35 25 60z" />
    <glyph glyph-name="exclamdown.case" 
d="M259 689.5q17 17.5 41 17.5t41.5 -17t17.5 -41t-17 -41.5t-42 -17.5q-24 0 -41 17t-17 41t17 41.5zM262 525h78v-525h-78v525z" />
    <glyph glyph-name="questiondown.case" 
d="M256 608q-17 17 -17 41q0 25 17 42t42 17q24 0 41 -17t17 -42q0 -24 -17 -41t-41 -17q-25 0 -42 17zM521 184q-3 -57 -32 -102t-77.5 -70t-108.5 -25q-65 0 -116 27.5t-79.5 75t-28.5 106.5q0 82 47 143.5t133 80.5v108h78v-166h-8q-81 0 -127 -46t-46 -120
q0 -59 41 -98.5t104 -39.5q68 0 108.5 39.5t41.5 105.5z" />
    <glyph glyph-name="braceleft.case" 
d="M247.5 400.5q11.5 12.5 11.5 41.5v281q0 45 28 71t66 26h36v-69h-25q-10 0 -19.5 -10.5t-9.5 -34.5v-278q0 -50 -27 -77q27 -27 27 -77v-280q0 -24 9.5 -34.5t19.5 -10.5h25v-69h-36q-38 0 -66 26t-28 71v284q0 29 -11.5 42t-35.5 13v72q24 0 35.5 12.5z" />
    <glyph glyph-name="braceright.case" 
d="M388 315q-24 0 -35.5 -13t-11.5 -42v-284q0 -45 -28 -71t-66 -26h-36v69h25q10 0 19.5 10.5t9.5 34.5v280q0 50 27 77q-27 27 -27 77v278q0 24 -9.5 34.5t-19.5 10.5h-25v69h36q38 0 66 -26t28 -71v-281q0 -29 11.5 -41.5t35.5 -12.5v-72z" />
    <glyph glyph-name="bracketleft.case" 
d="M370 820v-69h-67v-802h67v-69h-141v940h141z" />
    <glyph glyph-name="bracketright.case" 
d="M370 -120h-141v69h67v802h-67v69h141v-940z" />
    <glyph glyph-name="parenleft.case" 
d="M334 -121q-130 205 -130 471q0 267 130 469l62 -41q-46 -67 -81 -180t-35 -251q0 -135 34.5 -245.5t80.5 -180.5z" />
    <glyph glyph-name="parenright.case" 
d="M285.5 102.5q34.5 110.5 34.5 245.5q0 138 -35 251t-81 180l62 41q130 -202 130 -469q0 -266 -130 -471l-61 42q46 70 80.5 180.5z" />
    <glyph glyph-name="emdash.case" 
d="M0 384h600v-70h-600v70z" />
    <glyph glyph-name="endash.case" 
d="M80 384h440v-70h-440v70z" />
    <glyph glyph-name="hyphen.case" 
d="M175 386h250v-70h-250v70z" />
    <glyph glyph-name="guillemotleft.case" 
d="M201 349l102 -186h-80l-102 186l102 184h80zM377 349l102 -186h-80l-102 186l102 184h80z" />
    <glyph glyph-name="guillemotright.case" 
d="M479 350l-102 -186h-80l102 186l-102 184h80zM303 350l-102 -186h-80l102 186l-102 184h80z" />
    <glyph glyph-name="guilsinglleft.case" 
d="M289 351l102 -186h-80l-102 186l102 184h80z" />
    <glyph glyph-name="guilsinglright.case" 
d="M391 351l-102 -186h-80l102 186l-102 184h80z" />
    <glyph glyph-name="uni0308.case" horiz-adv-x="0" 
d="M-365 791.5q-17 16.5 -17 40.5t17 40.5t41 16.5q23 0 40 -16.5t17 -40.5t-17 -40.5t-40 -16.5q-24 0 -41 16.5zM-204 791.5q-17 16.5 -17 40.5t17 40.5t40 16.5q24 0 40.5 -16.5t16.5 -40.5t-16.5 -40.5t-40.5 -16.5q-23 0 -40 16.5z" />
    <glyph glyph-name="uni0307.case" horiz-adv-x="0" 
d="M-211.5 873.5q16.5 16.5 41.5 16.5q23 0 39.5 -16.5t16.5 -40.5t-16.5 -40.5t-39.5 -16.5q-25 0 -41.5 16.5t-16.5 40.5t16.5 40.5z" />
    <glyph glyph-name="gravecomb.case" horiz-adv-x="0" 
d="M-174 773l-99 118h106l66 -118h-73z" />
    <glyph glyph-name="acutecomb.case" horiz-adv-x="0" 
d="M-159 891h106l-99 -118h-73z" />
    <glyph glyph-name="uni030B.case" horiz-adv-x="0" 
d="M-288 773l55 118h96l-89 -118h-62zM-160 773l55 118h96l-89 -118h-62z" />
    <glyph glyph-name="uni0302.case" horiz-adv-x="0" 
d="M-161 773l-59 64l-58 -64h-74l85 118h95l84 -118h-73z" />
    <glyph glyph-name="uni0306.case" horiz-adv-x="0" 
d="M-115 801.5q-33 -33.5 -86 -33.5t-86 33.5t-35 84.5h62q2 -26 17.5 -42t41.5 -16t42 16t18 42h61q-2 -51 -35 -84.5z" />
    <glyph glyph-name="uni030A.case" horiz-adv-x="0" 
d="M-240 902q25 25 60 25t60.5 -25t25.5 -60t-25.5 -60t-60.5 -25t-60 25t-25 60t25 60zM-202.5 818.5q9.5 -9.5 22.5 -9.5q14 0 23.5 9.5t9.5 23.5q0 13 -9.5 23t-23.5 10q-13 0 -22.5 -10t-9.5 -23q0 -14 9.5 -23.5z" />
    <glyph glyph-name="tildecomb.case" horiz-adv-x="0" 
d="M-360 814q14 34 37 50t49 16q19 0 32 -4.5t34 -15.5q14 -8 24 -12t22 -4q27 0 45 39l46 -33q-25 -67 -89 -67q-19 0 -33 5t-32 15q-15 8 -24 11.5t-20 3.5q-28 0 -45 -35z" />
    <glyph glyph-name="uni0304.case" horiz-adv-x="0" 
d="M-286 863h196v-62h-196v62z" />
    <glyph glyph-name="uni0327.case" horiz-adv-x="0" 
d="M-190 7l54 -7l-22 -41q37 -2 59 -22.5t22 -59.5q0 -38 -25 -61.5t-65 -23.5q-35 0 -60 20t-27 49l50 17q0 -17 10 -26.5t27 -9.5q16 0 26 10t10 26q0 15 -10 24.5t-26 9.5q-14 0 -23 -6l-41 28z" />
    <glyph glyph-name="uni0328.case" horiz-adv-x="0" 
d="M-115 -180q-49 0 -78.5 24t-29.5 63q0 38 23 67t57 48l47 -22q-62 -34 -62 -78q0 -18 14 -31t38 -13h6l-1 -57q-6 -1 -14 -1z" />
    <glyph glyph-name="uni0335.case" horiz-adv-x="0" 
d="M-286 865h196v-62h-196v62z" />
    <glyph glyph-name="uni0338.case" horiz-adv-x="0" 
d="M-142 732l64 -49l-515 -715l-65 44z" />
    <glyph glyph-name="IJn" 
d="M264 630h-71v-560h71v-70h-222v70h72v560h-72v70h222v-70zM538 220q0 -111 -51 -165.5t-154 -54.5l-1 70q64 -1 96 34t32 101v425h-128v70h206v-480z" />
    <glyph glyph-name="rightHcurreookArrow" 
d="M540 300l-198 -199l-46 47l119 119h-183q-47 1 -86 25t-62 63.5t-23 86.5q0 48 22.5 87.5t61.5 63t86 24.5v-65q-43 -2 -74 -34.5t-31 -75.5q0 -44 31 -75.5t75 -33.5h183l-119 120l47 45z" />
  </font>
</defs>
</svg>
